<svg width="393" height="113" viewBox="0 0 393 113" fill="none" xmlns="http://www.w3.org/2000/svg">
<path d="M60.3174 55.9798H60.6174L64.7574 47.6398L69.7974 38.9998H79.3374V40.3198L64.9374 64.1998V80.9998H55.9374V64.1998L41.4774 40.3198V38.9998H51.1374L56.3574 47.9398L60.3174 55.9798ZM107.576 66.4198C107.576 76.5598 99.9559 81.5998 92.3359 81.5998C84.6559 81.5998 76.9159 76.5598 76.9159 66.4198C76.9159 56.3998 84.4759 51.2998 92.0959 51.2398C99.8359 51.1798 107.576 56.2198 107.576 66.4198ZM85.2559 66.4198C85.2559 71.6398 88.6759 74.2798 92.1559 74.2798C95.6959 74.3398 99.2359 71.6998 99.2359 66.4198C99.2359 61.2598 95.8759 58.6198 92.3359 58.6198C88.7959 58.6198 85.2559 61.1998 85.2559 66.4198ZM132.716 52.0798H141.116V72.2998C141.116 74.9998 141.236 75.9598 143.816 75.7798L143.876 80.9998C139.796 81.9598 133.316 82.3798 133.316 76.7998C131.696 80.1598 127.676 81.4198 124.076 81.4198C115.736 81.4198 113.336 75.8398 113.336 68.6398V52.0798H121.796V68.6398C121.616 72.7198 123.836 74.8198 126.776 74.8198C130.136 74.8798 132.716 72.3598 132.716 68.4598V52.0798ZM159.024 56.0998C160.224 52.7998 163.584 51.1798 167.124 51.1798C169.344 51.1198 171.624 51.7798 173.304 53.0398L171.444 60.0598C169.704 58.9198 167.904 58.4398 166.044 58.4998C162.384 58.4998 159.264 60.8998 159.264 65.3398V80.9998H151.044V60.5998C151.044 58.1998 150.804 56.6398 148.164 57.0598V51.8998C152.364 50.9398 158.544 50.9398 159.024 56.0998ZM214.729 74.0398H197.269L194.029 80.9998H184.669V79.7998L203.989 38.6398H208.129L227.329 79.7998V80.9998H218.029L214.729 74.0398ZM206.029 52.6198L200.209 66.4798H211.849L206.029 52.6198ZM258.491 62.5198H250.511C249.491 59.8198 247.031 58.4998 244.451 58.5598C240.851 58.6198 237.131 61.2598 237.131 66.4198C237.131 71.6398 240.851 74.3998 244.451 74.3998C247.091 74.3998 249.611 72.9598 250.631 69.8998H258.611C257.411 77.6398 250.871 81.5398 244.211 81.5998C236.591 81.6598 228.791 76.6198 228.791 66.4198C228.791 56.2798 236.651 51.1798 244.271 51.1798C250.811 51.1798 257.171 54.9598 258.491 62.5198ZM292.358 62.5198H284.378C283.358 59.8198 280.898 58.4998 278.318 58.5598C274.718 58.6198 270.998 61.2598 270.998 66.4198C270.998 71.6398 274.718 74.3998 278.318 74.3998C280.958 74.3998 283.478 72.9598 284.498 69.8998H292.478C291.278 77.6398 284.738 81.5398 278.078 81.5998C270.458 81.6598 262.658 76.6198 262.658 66.4198C262.658 56.2798 270.518 51.1798 278.138 51.1798C284.678 51.1798 291.038 54.9598 292.358 62.5198ZM311.705 51.3598C322.265 51.3598 326.765 58.4398 324.545 68.2798H304.925C305.225 72.7798 308.585 74.5198 312.605 74.8198C313.805 74.8798 315.185 74.9398 316.445 74.7598C319.025 74.4598 321.605 73.7998 323.345 73.0198L324.305 79.1398C320.885 80.7598 316.925 81.7198 313.085 81.7198C303.365 81.8998 296.525 75.9598 296.525 66.1798C296.705 56.0998 304.025 51.3598 311.705 51.3598ZM311.705 57.7798C308.525 57.7798 305.645 59.5198 304.985 62.8798H317.705C317.885 59.0998 314.825 57.7798 311.705 57.7798ZM329.454 72.1798H337.854C337.914 74.5798 340.194 75.6598 342.594 75.5998C345.054 75.5998 347.514 74.8798 347.574 72.2998C347.574 69.9598 345.474 69.7198 343.434 69.4198C337.614 68.6398 330.054 67.8598 330.054 60.8398C330.054 54.3598 335.394 51.2998 342.474 51.2998C349.374 51.2998 355.314 54.4198 355.014 60.5398H347.094C347.034 58.4398 344.994 57.5998 342.594 57.5998C340.194 57.5998 338.154 58.6798 338.154 60.5998C338.154 62.7598 340.434 63.0598 342.294 63.2398C348.774 64.0198 356.154 64.5598 355.974 72.2998C355.794 79.1998 349.494 81.7798 342.954 81.7798C336.414 81.7798 329.754 79.8598 329.454 72.1798ZM360.098 72.1798H368.498C368.558 74.5798 370.838 75.6598 373.238 75.5998C375.698 75.5998 378.158 74.8798 378.218 72.2998C378.218 69.9598 376.118 69.7198 374.078 69.4198C368.258 68.6398 360.698 67.8598 360.698 60.8398C360.698 54.3598 366.038 51.2998 373.118 51.2998C380.018 51.2998 385.958 54.4198 385.658 60.5398H377.738C377.678 58.4398 375.638 57.5998 373.238 57.5998C370.838 57.5998 368.798 58.6798 368.798 60.5998C368.798 62.7598 371.078 63.0598 372.938 63.2398C379.418 64.0198 386.798 64.5598 386.618 72.2998C386.438 79.1998 380.138 81.7798 373.598 81.7798C367.058 81.7798 360.398 79.8598 360.098 72.1798Z" fill="#011B6D"/>
<path d="M9.73655 29.9825C75.5889 16.4952 273.654 -10.2015 363.047 25.1618C409.961 43.7208 408.1 90.5862 253.294 105.864C125.963 118.43 -141.832 99.2542 104.389 3.8861" stroke="#7951AF" stroke-width="6"/>
</svg>
