<svg width="14" height="16" viewBox="0 0 14 16" fill="none" xmlns="http://www.w3.org/2000/svg">
<path d="M5.85905 1.74981C5.9711 1.47287 6.16329 1.23571 6.41101 1.06871C6.65872 0.901715 6.95066 0.8125 7.2494 0.8125C7.54815 0.8125 7.84009 0.901715 8.0878 1.06871C8.33551 1.23571 8.52771 1.47287 8.63976 1.74981C9.74871 2.05479 10.7269 2.71538 11.424 3.63011C12.1212 4.54485 12.4988 5.66316 12.4989 6.81328V10.3357L13.8727 12.3964C13.9481 12.5094 13.9913 12.6407 13.9979 12.7763C14.0045 12.9119 13.9742 13.0467 13.9101 13.1664C13.8461 13.2861 13.7507 13.3862 13.6342 13.456C13.5178 13.5258 13.3845 13.5626 13.2488 13.5626H9.84788C9.75759 14.1873 9.44522 14.7586 8.968 15.1719C8.49078 15.5851 7.88066 15.8125 7.2494 15.8125C6.61815 15.8125 6.00803 15.5851 5.53081 15.1719C5.05359 14.7586 4.74122 14.1873 4.65093 13.5626H1.25003C1.11427 13.5626 0.981039 13.5258 0.864567 13.456C0.748095 13.3862 0.652748 13.2861 0.588697 13.1664C0.524647 13.0467 0.494296 12.9119 0.500883 12.7763C0.50747 12.6407 0.550748 12.5094 0.626099 12.3964L1.99995 10.3357V6.81328C1.99995 4.39553 3.63478 2.35875 5.85905 1.74981ZM6.18901 13.5626C6.26647 13.782 6.41008 13.9721 6.60006 14.1065C6.79005 14.2409 7.01705 14.3131 7.24978 14.3131C7.48251 14.3131 7.70951 14.2409 7.89949 14.1065C8.08948 13.9721 8.23309 13.782 8.31054 13.5626H6.18826H6.18901ZM7.2494 3.06367C6.25495 3.06367 5.30122 3.45872 4.59803 4.16191C3.89484 4.86509 3.4998 5.81882 3.4998 6.81328V10.5629C3.49983 10.711 3.45599 10.8558 3.37381 10.9791L2.65164 12.0627H11.8464L11.1242 10.9791C11.0423 10.8558 10.9988 10.7109 10.999 10.5629V6.81328C10.999 5.81882 10.604 4.86509 9.90077 4.16191C9.19759 3.45872 8.24386 3.06367 7.2494 3.06367Z" fill="#011B6D"/>
</svg>
