<svg width="20" height="16" viewBox="0 0 20 16" fill="none" xmlns="http://www.w3.org/2000/svg">
<path d="M14.5625 11.125C13.9062 11.125 13.3516 10.8984 12.8984 10.4453C12.4453 9.99219 12.2188 9.4375 12.2188 8.78125C12.2188 8.125 12.4453 7.57031 12.8984 7.11719C13.3516 6.66406 13.9062 6.4375 14.5625 6.4375C15.2188 6.4375 15.7734 6.66406 16.2266 7.11719C16.6797 7.57031 16.9062 8.125 16.9062 8.78125C16.9062 9.4375 16.6797 9.99219 16.2266 10.4453C15.7734 10.8984 15.2188 11.125 14.5625 11.125ZM9.875 15.8125V14.5C9.875 14.125 9.97281 13.7772 10.1684 13.4566C10.3641 13.1359 10.6412 12.9056 11 12.7656C11.5625 12.5312 12.1447 12.3553 12.7466 12.2378C13.3484 12.1203 13.9537 12.0619 14.5625 12.0625C15.1719 12.0625 15.7775 12.1213 16.3794 12.2387C16.9812 12.3562 17.5631 12.5319 18.125 12.7656C18.4844 12.9062 18.7619 13.1369 18.9575 13.4575C19.1531 13.7781 19.2506 14.1256 19.25 14.5V15.8125H9.875ZM8 8.3125C6.96875 8.3125 6.08594 7.94531 5.35156 7.21094C4.61719 6.47656 4.25 5.59375 4.25 4.5625C4.25 3.53125 4.61719 2.64844 5.35156 1.91406C6.08594 1.17969 6.96875 0.8125 8 0.8125C9.03125 0.8125 9.91406 1.17969 10.6484 1.91406C11.3828 2.64844 11.75 3.53125 11.75 4.5625C11.75 5.59375 11.3828 6.47656 10.6484 7.21094C9.91406 7.94531 9.03125 8.3125 8 8.3125ZM0.5 15.8125V13.1875C0.5 12.6563 0.632812 12.1678 0.898437 11.7222C1.16406 11.2766 1.53125 10.9369 2 10.7031C2.9375 10.2344 3.91 9.875 4.9175 9.625C5.925 9.375 6.9525 9.25 8 9.25C8.54688 9.25 9.09375 9.29688 9.64062 9.39062C10.1875 9.48438 10.7344 9.59375 11.2812 9.71875L10.4844 10.5156L9.6875 11.3125C9.40625 11.2344 9.125 11.1834 8.84375 11.1597C8.5625 11.1359 8.28125 11.1244 8 11.125C7.09375 11.125 6.20688 11.2344 5.33938 11.4531C4.47188 11.6719 3.64 11.9844 2.84375 12.3906C2.6875 12.4688 2.57031 12.5781 2.49219 12.7188C2.41406 12.8594 2.375 13.0156 2.375 13.1875V13.9375H8V15.8125H0.5ZM8 6.4375C8.51562 6.4375 8.95719 6.25375 9.32469 5.88625C9.69219 5.51875 9.87562 5.0775 9.875 4.5625C9.875 4.04688 9.69125 3.60531 9.32375 3.23781C8.95625 2.87031 8.515 2.68687 8 2.6875C7.48438 2.6875 7.04281 2.87125 6.67531 3.23875C6.30781 3.60625 6.12437 4.0475 6.125 4.5625C6.125 5.07812 6.30875 5.51969 6.67625 5.88719C7.04375 6.25469 7.485 6.43813 8 6.4375Z" fill="#011B6D"/>
</svg>
