<svg width="18" height="19" viewBox="0 0 18 19" fill="none" xmlns="http://www.w3.org/2000/svg">
<path d="M8.33331 0V3.33333H6.66665L9.99998 6.66667L13.3333 3.33333H11.6666V0M0.833313 1.66667V3.33333H2.49998L5.49998 9.66667L4.33331 11.6667C4.24998 11.9167 4.16665 12.1667 4.16665 12.5C4.16665 13.4167 4.91665 14.1667 5.83331 14.1667H15.8333V12.5H6.16665C6.08331 12.5 5.99998 12.4167 5.99998 12.3333V12.25L6.74998 10.8333H12.9166C13.5 10.8333 14.0833 10.5 14.3333 10L17.5833 4.16667L16.1666 3.33333L12.9166 9.16667H7.08331L3.58331 1.66667M5.83331 15C4.91665 15 4.16665 15.75 4.16665 16.6667C4.16665 17.5833 4.91665 18.3333 5.83331 18.3333C6.74998 18.3333 7.49998 17.5833 7.49998 16.6667C7.49998 15.75 6.74998 15 5.83331 15ZM14.1666 15C13.25 15 12.5 15.75 12.5 16.6667C12.5 17.5833 13.25 18.3333 14.1666 18.3333C15.0833 18.3333 15.8333 17.5833 15.8333 16.6667C15.8333 15.75 15.0833 15 14.1666 15Z" fill="#011B6D"/>
</svg>
