<svg width="20" height="20" viewBox="0 0 20 20" fill="none" xmlns="http://www.w3.org/2000/svg">
<path d="M3.06495 9.04786L16.324 3.01788M16.324 3.01788L13.8451 2.08398M16.324 3.01788L15.4016 5.49674M16.912 17.084H14.0296V9.01327C14.0296 8.86038 14.0903 8.71375 14.1984 8.60564C14.3066 8.49753 14.4532 8.43679 14.6061 8.43679H16.3355C16.4884 8.43679 16.635 8.49753 16.7431 8.60564C16.8513 8.71375 16.912 8.86038 16.912 9.01327V17.084ZM11.1472 17.084H8.2648V10.7427C8.2648 10.5898 8.32553 10.4432 8.43364 10.3351C8.54175 10.227 8.68838 10.1662 8.84128 10.1662H10.5707C10.7236 10.1662 10.8702 10.227 10.9783 10.3351C11.0865 10.4432 11.1472 10.5898 11.1472 10.7427V17.084ZM5.3824 17.084H2.5V12.4721C2.5 12.3193 2.56074 12.1726 2.66885 12.0645C2.77696 11.9564 2.92359 11.8957 3.07648 11.8957H4.80592C4.95881 11.8957 5.10544 11.9564 5.21355 12.0645C5.32166 12.1726 5.3824 12.3193 5.3824 12.4721V17.084Z" stroke="#011B6D" stroke-width="1.5" stroke-linecap="round" stroke-linejoin="round"/>
</svg>
