<svg width="16" height="16" viewBox="0 0 16 16" fill="none" xmlns="http://www.w3.org/2000/svg">
<path d="M3.71428 8.31262V5.49476C3.72265 4.94087 3.84023 4.39407 4.06028 3.88569C4.28034 3.37732 4.59854 2.91736 4.99667 2.53218C5.39479 2.14699 5.86501 1.84415 6.38037 1.64101C6.89574 1.43786 7.44612 1.3384 7.99999 1.34833C8.55386 1.3384 9.10424 1.43786 9.61961 1.64101C10.135 1.84415 10.6052 2.14699 11.0033 2.53218C11.4014 2.91736 11.7196 3.37732 11.9397 3.88569C12.1598 4.39407 12.2773 4.94087 12.2857 5.49476V8.31262M10.1428 13.9376C10.7112 13.9376 11.2562 13.7119 11.6581 13.31C12.0599 12.9081 12.2857 12.3631 12.2857 11.7948V9.38405M10.1428 13.9376C10.1428 14.2928 10.0017 14.6335 9.75058 14.8846C9.49942 15.1358 9.15876 15.2769 8.80356 15.2769H7.19642C6.84122 15.2769 6.50057 15.1358 6.2494 14.8846C5.99824 14.6335 5.85713 14.2928 5.85713 13.9376C5.85713 13.5824 5.99824 13.2418 6.2494 12.9906C6.50057 12.7394 6.84122 12.5983 7.19642 12.5983H8.80356C9.15876 12.5983 9.49942 12.7394 9.75058 12.9906C10.0017 13.2418 10.1428 13.5824 10.1428 13.9376ZM2.10713 6.70548H3.17856C3.32064 6.70548 3.4569 6.76192 3.55737 6.86238C3.65784 6.96285 3.71428 7.09911 3.71428 7.24119V10.4555C3.71428 10.5976 3.65784 10.7338 3.55737 10.8343C3.4569 10.9347 3.32064 10.9912 3.17856 10.9912H2.10713C1.82297 10.9912 1.55045 10.8783 1.34952 10.6774C1.14859 10.4764 1.03571 10.2039 1.03571 9.91976V7.7769C1.03571 7.49274 1.14859 7.22022 1.34952 7.01929C1.55045 6.81836 1.82297 6.70548 2.10713 6.70548ZM13.8928 10.9912H12.8214C12.6793 10.9912 12.5431 10.9347 12.4426 10.8343C12.3421 10.7338 12.2857 10.5976 12.2857 10.4555V7.24119C12.2857 7.09911 12.3421 6.96285 12.4426 6.86238C12.5431 6.76192 12.6793 6.70548 12.8214 6.70548H13.8928C14.177 6.70548 14.4495 6.81836 14.6505 7.01929C14.8514 7.22022 14.9643 7.49274 14.9643 7.7769V9.91976C14.9643 10.2039 14.8514 10.4764 14.6505 10.6774C14.4495 10.8783 14.177 10.9912 13.8928 10.9912Z" stroke="#011B6D" stroke-width="1.5" stroke-linecap="round" stroke-linejoin="round"/>
</svg>
