<svg width="32" height="32" viewBox="0 0 32 32" fill="none" xmlns="http://www.w3.org/2000/svg">
<rect width="32" height="32" rx="16" fill="#F0F3FF"/>
<path d="M17.592 8.425L15.8587 10.1667H17.667C19.4351 10.1667 21.1308 10.869 22.381 12.1193C23.6313 13.3695 24.3337 15.0652 24.3337 16.8333H22.667C22.667 15.5073 22.1402 14.2355 21.2025 13.2978C20.2648 12.3601 18.9931 11.8333 17.667 11.8333H15.8587L17.6003 13.575L16.417 14.75L12.667 11L13.842 9.825L16.417 7.25L17.592 8.425ZM7.66699 16V24.3333H21.0003V16H7.66699ZM9.33366 21.4667V18.875C9.83459 18.5841 10.2511 18.1676 10.542 17.6667H18.1253C18.4163 18.1676 18.8327 18.5841 19.3337 18.875V21.4667C18.8398 21.7575 18.4293 22.1708 18.142 22.6667H10.542C10.25 22.1687 9.83364 21.7552 9.33366 21.4667ZM14.3337 21.8333C15.0237 21.8333 15.5837 21.0875 15.5837 20.1667C15.5837 19.2458 15.0237 18.5 14.3337 18.5C13.6437 18.5 13.0837 19.2458 13.0837 20.1667C13.0837 21.0875 13.6437 21.8333 14.3337 21.8333Z" fill="#011B6D"/>
</svg>
