<svg width="182" height="182" viewBox="0 0 182 182" fill="none" xmlns="http://www.w3.org/2000/svg">
<g id="Group 1011">
<circle id="Ellipse 73" cx="91" cy="91" r="91" fill="#FF0F0F" fill-opacity="0.07"/>
<circle id="Ellipse 74" cx="91.0015" cy="91" r="78" fill="#FF0F0F" fill-opacity="0.19"/>
<circle id="Ellipse 75" cx="92.2998" cy="91.002" r="65" fill="#FF0F0F" fill-opacity="0.5"/>
<path id="Vector" d="M98.9543 91L114.353 75.6017C116.549 73.4052 116.549 69.8439 114.353 67.6474C112.156 65.4509 108.595 65.4509 106.398 67.6474L91 83.0457L75.6017 67.6474C73.4052 65.4509 69.8439 65.4509 67.6474 67.6474C65.4509 69.8439 65.4509 73.4052 67.6474 75.6017L83.0457 91L67.6474 106.398C65.4509 108.595 65.4509 112.156 67.6474 114.353C68.7457 115.451 70.1851 116 71.6245 116C73.0639 116 74.5034 115.451 75.6016 114.353L91 98.9543L106.398 114.353C107.497 115.451 108.936 116 110.375 116C111.815 116 113.254 115.451 114.352 114.353C116.549 112.156 116.549 108.595 114.352 106.398L98.9543 91Z" fill="white"/>
</g>
</svg>
