<svg width="25" height="24" viewBox="0 0 25 24" fill="none" xmlns="http://www.w3.org/2000/svg">
<path d="M1.25 12C1.25 16.9125 4.4 21.075 8.75 22.6125V1.38751C4.4 2.92501 1.25 7.08751 1.25 12ZM23.75 12C23.75 7.08751 20.6375 2.92501 16.25 1.38751V22.6125C20.6375 21.075 23.75 16.9125 23.75 12Z" fill="#83BF4F"/>
<path d="M8.75 22.6125C9.9125 23.025 11.1875 23.25 12.5 23.25C13.8125 23.25 15.0875 23.025 16.25 22.6125V1.3875C15.0875 0.975 13.8125 0.75 12.5 0.75C11.1875 0.75 9.9125 0.975 8.75 1.3875V22.6125Z" fill="#F9F9F9"/>
</svg>
