<svg width="32" height="32" viewBox="0 0 32 32" fill="none" xmlns="http://www.w3.org/2000/svg">
<rect width="32" height="32" rx="16" fill="#F0F3FF"/>
<path d="M17.9 7.66797C18.2498 7.66806 18.5907 7.77821 18.8744 7.98281C19.1581 8.18741 19.3703 8.47609 19.4808 8.80797L19.9333 10.168H22.6667C22.8877 10.168 23.0996 10.2558 23.2559 10.412C23.4122 10.5683 23.5 10.7803 23.5 11.0013C23.5 11.2223 23.4122 11.4343 23.2559 11.5906C23.0996 11.7468 22.8877 11.8346 22.6667 11.8346L22.6642 11.8938L21.9417 22.013C21.8966 22.6435 21.6143 23.2335 21.1517 23.6643C20.6891 24.095 20.0805 24.3346 19.4483 24.3346H12.5517C11.9195 24.3346 11.3109 24.095 10.8483 23.6643C10.3857 23.2335 10.1034 22.6435 10.0583 22.013L9.33583 11.893C9.33433 11.8736 9.33349 11.8541 9.33333 11.8346C9.11232 11.8346 8.90036 11.7468 8.74408 11.5906C8.5878 11.4343 8.5 11.2223 8.5 11.0013C8.5 10.7803 8.5878 10.5683 8.74408 10.412C8.90036 10.2558 9.11232 10.168 9.33333 10.168H12.0667L12.5192 8.80797C12.6297 8.47596 12.842 8.18718 13.1259 7.98256C13.4098 7.77795 13.7509 7.66788 14.1008 7.66797H17.9ZM20.9975 11.8346H11.0025L11.7208 21.8938C11.7358 22.104 11.8298 22.3007 11.984 22.4443C12.1381 22.588 12.341 22.6679 12.5517 22.668H19.4483C19.659 22.6679 19.8619 22.588 20.016 22.4443C20.1702 22.3007 20.2642 22.104 20.2792 21.8938L20.9975 11.8346ZM14.3333 14.3346C14.5374 14.3347 14.7344 14.4096 14.887 14.5452C15.0395 14.6809 15.137 14.8678 15.1608 15.0705L15.1667 15.168V19.3346C15.1664 19.547 15.0851 19.7513 14.9393 19.9058C14.7935 20.0602 14.5942 20.1532 14.3822 20.1656C14.1701 20.1781 13.9614 20.1091 13.7985 19.9727C13.6356 19.8364 13.5309 19.643 13.5058 19.4321L13.5 19.3346V15.168C13.5 14.947 13.5878 14.735 13.7441 14.5787C13.9004 14.4224 14.1123 14.3346 14.3333 14.3346ZM17.6667 14.3346C17.8877 14.3346 18.0996 14.4224 18.2559 14.5787C18.4122 14.735 18.5 14.947 18.5 15.168V19.3346C18.5 19.5556 18.4122 19.7676 18.2559 19.9239C18.0996 20.0802 17.8877 20.168 17.6667 20.168C17.4457 20.168 17.2337 20.0802 17.0774 19.9239C16.9211 19.7676 16.8333 19.5556 16.8333 19.3346V15.168C16.8333 14.947 16.9211 14.735 17.0774 14.5787C17.2337 14.4224 17.4457 14.3346 17.6667 14.3346ZM17.9 9.33464H14.1L13.8225 10.168H18.1775L17.9 9.33464Z" fill="#011B6D"/>
</svg>
