<svg width="52" height="52" viewBox="0 0 52 52" fill="none" xmlns="http://www.w3.org/2000/svg">
<rect width="52" height="52" rx="26" fill="#DADADA"/>
<path d="M12.8807 13.3133C13.3913 13.1693 13.9263 13.2065 14.45 13.2023C21.2781 13.2011 28.1062 13.2041 34.9344 13.2005C35.429 13.1945 35.9325 13.2371 36.3944 13.4279C37.3011 13.789 38.023 14.5941 38.2772 15.5462C38.4078 15.9991 38.3977 16.4749 38.3965 16.9416C38.3918 19.102 38.4019 21.2629 38.3924 23.4232C38.4054 23.7628 38.1228 24.0759 37.785 24.0789C37.4578 24.0969 37.1437 23.8192 37.136 23.4844C37.1158 23.0441 37.1366 22.6025 37.1301 22.1616C28.6846 22.1634 20.2391 22.1562 11.7942 22.1652C11.8037 24.7233 11.7953 27.2819 11.7983 29.84C11.8025 30.2738 11.7567 30.7255 11.9153 31.1395C12.1296 31.7394 12.6581 32.2097 13.2738 32.3495C13.5819 32.4179 13.8996 32.3993 14.2125 32.3999C18.646 32.3981 23.0801 32.4017 27.5137 32.3981C27.696 32.3999 27.8949 32.4197 28.0356 32.5505C28.2897 32.7521 28.3301 33.157 28.1389 33.4162C28.0023 33.6202 27.7488 33.6898 27.5166 33.6808C22.9228 33.6772 18.329 33.682 13.7357 33.6784C12.6497 33.6952 11.5804 33.106 11.0134 32.1695C10.7587 31.7802 10.6393 31.3254 10.5312 30.8773V16.0807C10.6043 15.68 10.7022 15.2774 10.8964 14.9169C11.3002 14.1352 12.0376 13.54 12.8807 13.3133ZM13.0737 14.5911C12.4122 14.8161 11.9046 15.4394 11.8173 16.1395C11.7823 16.4395 11.8025 16.7424 11.7965 17.0436C20.2391 17.0418 28.6822 17.037 37.1247 17.046C37.1283 16.6417 37.1645 16.2259 37.041 15.8348C36.8611 15.2264 36.3588 14.7273 35.7526 14.5593C35.4105 14.4537 35.049 14.4867 34.6969 14.4819C27.8687 14.4819 21.0406 14.4819 14.2125 14.4819C13.8313 14.4837 13.4377 14.4531 13.0737 14.5911ZM11.7936 18.3263C11.8025 19.1781 11.7977 20.0306 11.7959 20.8831C20.2391 20.8813 28.6822 20.8765 37.1253 20.8855C37.1354 20.0312 37.1265 19.1763 37.1301 18.3221C28.6846 18.3239 20.2391 18.3155 11.7936 18.3263Z" fill="#777E91"/>
<path d="M33.409 25.1732C33.998 24.842 34.6814 24.7161 35.35 24.7221C35.8784 24.7149 36.4193 24.7953 36.8949 25.0388C37.4804 25.3292 37.9227 25.8841 38.1062 26.5134C38.2291 26.9436 38.1685 27.4361 37.8996 27.7985C37.8105 27.9257 37.6965 28.0361 37.6247 28.1752C37.5867 28.3804 37.5647 28.5982 37.6074 28.804C37.747 28.9881 37.9399 29.1381 38.0171 29.3649C38.1733 29.7458 38.0617 30.1604 38.0207 30.5527C37.975 30.8845 37.9762 31.2397 37.8004 31.5348C37.6864 31.7364 37.4798 31.854 37.3337 32.0268C37.2714 32.1539 37.2441 32.2943 37.2025 32.4287C37.0529 32.9434 36.7821 33.4138 36.4502 33.8301C36.3333 33.9495 36.3683 34.1205 36.3778 34.2717C37.0475 34.4637 37.7298 34.6076 38.4007 34.7954C38.925 34.9406 39.413 35.2142 39.8126 35.5873C40.4545 36.1662 40.8273 36.9989 40.9313 37.8544V38.3338C40.8078 38.5851 40.5786 38.8101 40.2805 38.7921C36.1041 38.8059 31.9264 38.7951 27.7494 38.7999C27.538 38.8011 27.3071 38.7621 27.164 38.5899C26.9544 38.3788 26.99 38.0554 27.0161 37.7848C27.1295 36.666 27.8135 35.6251 28.7962 35.0954C29.3377 34.787 29.9617 34.7 30.5537 34.5362C30.8642 34.4463 31.1902 34.4049 31.4906 34.2825C31.5625 34.1829 31.5892 34.0509 31.5868 33.9297C31.5209 33.7887 31.4146 33.673 31.3274 33.547C31.034 33.1396 30.8405 32.6681 30.7122 32.1833C30.6576 31.9434 30.3934 31.8684 30.2491 31.6956C29.957 31.386 29.9552 30.9355 29.9035 30.5377C29.8667 30.1694 29.7646 29.7848 29.8875 29.4225C29.9671 29.1639 30.1624 28.9689 30.3619 28.7992C30.3429 28.4056 30.2847 28.0127 30.3079 27.6179C30.3299 27.0696 30.4902 26.5008 30.8761 26.0989C31.2971 25.6435 31.9116 25.4432 32.5054 25.3484C32.807 25.2962 33.1353 25.3352 33.409 25.1732ZM34.1453 26.2285C33.8929 26.3353 33.6822 26.5638 33.3918 26.5554C32.9352 26.574 32.4596 26.5902 32.0399 26.7942C31.8029 26.9082 31.6266 27.141 31.5922 27.4055C31.5013 28.0397 31.6765 28.6702 31.6901 29.3025C31.6854 29.6415 31.379 29.8664 31.0732 29.9162C31.1243 30.239 31.1599 30.5653 31.2288 30.8857C31.3962 30.9493 31.5957 30.9631 31.7228 31.1059C31.8516 31.2271 31.8599 31.4142 31.8896 31.578C31.9674 32.2169 32.2845 32.8121 32.7363 33.2602C32.9097 33.427 32.9798 33.6826 32.9121 33.9159C32.8212 34.2837 32.7387 34.6544 32.6348 35.0192C32.5659 35.2772 32.3189 35.4241 32.0743 35.4727C31.3297 35.6617 30.584 35.8441 29.8406 36.0373C29.1334 36.2292 28.5759 36.8184 28.3479 37.5125C32.0903 37.5215 35.8327 37.5221 39.5751 37.5149C39.3525 36.8112 38.7807 36.2244 38.07 36.0307C37.3112 35.8315 36.5488 35.6455 35.7882 35.4535C35.5911 35.4073 35.4005 35.2874 35.3209 35.0924C35.2235 34.85 35.1879 34.5884 35.1173 34.3383C35.0692 34.1247 34.9866 33.9111 35.005 33.6892C35.0252 33.475 35.1855 33.3202 35.3268 33.1756C35.7923 32.7047 36.0613 32.0598 36.132 31.4028C36.1569 31.0789 36.4502 30.8587 36.7542 30.8323C36.7869 30.4915 36.8118 30.1508 36.8296 29.8094C36.5761 29.8088 36.3077 29.6385 36.3 29.3619C36.2929 28.9011 36.341 28.4404 36.3517 27.9797C36.3523 27.7703 36.3974 27.5477 36.5589 27.4025C36.6788 27.2459 36.9175 27.1302 36.8949 26.9034C36.7993 26.4271 36.3558 26.1061 35.8968 26.0419C35.3132 25.9585 34.6903 25.9825 34.1453 26.2285Z" fill="#777E91"/>
<path d="M14.8222 26.0197C15.0128 25.9873 15.2075 26.0017 15.3999 25.9999C16.9252 26.0023 18.4506 25.9993 19.9759 26.0005C20.1778 25.9945 20.3874 26.0677 20.5145 26.2327C20.7276 26.4756 20.7068 26.8836 20.4664 27.1008C20.3233 27.2514 20.1095 27.285 19.9118 27.2814C18.2891 27.279 16.6664 27.2814 15.0431 27.2802C14.7753 27.2975 14.4956 27.1614 14.3893 26.9034C14.2166 26.5566 14.4452 26.0923 14.8222 26.0197Z" fill="#777E91"/>
<path d="M14.7647 28.5952C14.8549 28.5688 14.9499 28.5634 15.0432 28.5604C17.9329 28.5592 20.8227 28.5616 23.7125 28.5592C23.9102 28.5538 24.124 28.5892 24.2665 28.7398C24.5075 28.9569 24.5271 29.3649 24.314 29.6079C24.1869 29.7716 23.9779 29.8448 23.7766 29.8394C20.8643 29.8406 17.9519 29.84 15.0402 29.84C14.7783 29.855 14.5028 29.723 14.3942 29.4735C14.2244 29.1453 14.4138 28.6984 14.7647 28.5952Z" fill="#777E91"/>
<path d="M12.8807 13.3133C13.3913 13.1693 13.9263 13.2065 14.45 13.2023C21.2781 13.2011 28.1062 13.2041 34.9344 13.2005C35.429 13.1945 35.9325 13.2371 36.3944 13.4279C37.3011 13.789 38.023 14.5941 38.2772 15.5462C38.4078 15.9991 38.3977 16.4749 38.3965 16.9416C38.3918 19.102 38.4019 21.2629 38.3924 23.4232C38.4054 23.7628 38.1228 24.0759 37.785 24.0789C37.4578 24.0969 37.1437 23.8192 37.136 23.4844C37.1158 23.0441 37.1366 22.6025 37.1301 22.1616C28.6846 22.1634 20.2391 22.1562 11.7942 22.1652C11.8037 24.7233 11.7953 27.2819 11.7983 29.84C11.8025 30.2738 11.7567 30.7255 11.9153 31.1395C12.1296 31.7394 12.6581 32.2097 13.2738 32.3495C13.5819 32.4179 13.8996 32.3993 14.2125 32.3999C18.646 32.3981 23.0801 32.4017 27.5137 32.3981C27.696 32.3999 27.8949 32.4197 28.0356 32.5505C28.2897 32.7521 28.3301 33.157 28.1389 33.4162C28.0023 33.6202 27.7488 33.6898 27.5166 33.6808C22.9228 33.6772 18.329 33.682 13.7357 33.6784C12.6497 33.6952 11.5804 33.106 11.0134 32.1695C10.7587 31.7802 10.6393 31.3254 10.5312 30.8773V16.0807C10.6043 15.68 10.7022 15.2774 10.8964 14.9169C11.3002 14.1352 12.0376 13.54 12.8807 13.3133ZM13.0737 14.5911C12.4122 14.8161 11.9046 15.4394 11.8173 16.1395C11.7823 16.4395 11.8025 16.7424 11.7965 17.0436C20.2391 17.0418 28.6822 17.037 37.1247 17.046C37.1283 16.6417 37.1645 16.2259 37.041 15.8348C36.8611 15.2264 36.3588 14.7273 35.7526 14.5593C35.4105 14.4537 35.049 14.4867 34.6969 14.4819C27.8687 14.4819 21.0406 14.4819 14.2125 14.4819C13.8313 14.4837 13.4377 14.4531 13.0737 14.5911ZM11.7936 18.3263C11.8025 19.1781 11.7977 20.0306 11.7959 20.8831C20.2391 20.8813 28.6822 20.8765 37.1253 20.8855C37.1354 20.0312 37.1265 19.1763 37.1301 18.3221C28.6846 18.3239 20.2391 18.3155 11.7936 18.3263Z" stroke="#777E91" stroke-width="0.4"/>
<path d="M33.409 25.1732C33.998 24.842 34.6814 24.7161 35.35 24.7221C35.8784 24.7149 36.4193 24.7953 36.8949 25.0388C37.4804 25.3292 37.9227 25.8841 38.1062 26.5134C38.2291 26.9436 38.1685 27.4361 37.8996 27.7985C37.8105 27.9257 37.6965 28.0361 37.6247 28.1752C37.5867 28.3804 37.5647 28.5982 37.6074 28.804C37.747 28.9881 37.9399 29.1381 38.0171 29.3649C38.1733 29.7458 38.0617 30.1604 38.0207 30.5527C37.975 30.8845 37.9762 31.2397 37.8004 31.5348C37.6864 31.7364 37.4798 31.854 37.3337 32.0268C37.2714 32.1539 37.2441 32.2943 37.2025 32.4287C37.0529 32.9434 36.7821 33.4138 36.4502 33.8301C36.3333 33.9495 36.3683 34.1205 36.3778 34.2717C37.0475 34.4637 37.7298 34.6076 38.4007 34.7954C38.925 34.9406 39.413 35.2142 39.8126 35.5873C40.4545 36.1662 40.8273 36.9989 40.9313 37.8544V38.3338C40.8078 38.5851 40.5786 38.8101 40.2805 38.7921C36.1041 38.8059 31.9264 38.7951 27.7494 38.7999C27.538 38.8011 27.3071 38.7621 27.164 38.5899C26.9544 38.3788 26.99 38.0554 27.0161 37.7848C27.1295 36.666 27.8135 35.6251 28.7962 35.0954C29.3377 34.787 29.9617 34.7 30.5537 34.5362C30.8642 34.4463 31.1902 34.4049 31.4906 34.2825C31.5625 34.1829 31.5892 34.0509 31.5868 33.9297C31.5209 33.7887 31.4146 33.673 31.3274 33.547C31.034 33.1396 30.8405 32.6681 30.7122 32.1833C30.6576 31.9434 30.3934 31.8684 30.2491 31.6956C29.957 31.386 29.9552 30.9355 29.9035 30.5377C29.8667 30.1694 29.7646 29.7848 29.8875 29.4225C29.9671 29.1639 30.1624 28.9689 30.3619 28.7992C30.3429 28.4056 30.2847 28.0127 30.3079 27.6179C30.3299 27.0696 30.4902 26.5008 30.8761 26.0989C31.2971 25.6435 31.9116 25.4432 32.5054 25.3484C32.807 25.2962 33.1353 25.3352 33.409 25.1732ZM34.1453 26.2285C33.8929 26.3353 33.6822 26.5638 33.3918 26.5554C32.9352 26.574 32.4596 26.5902 32.0399 26.7942C31.8029 26.9082 31.6266 27.141 31.5922 27.4055C31.5013 28.0397 31.6765 28.6702 31.6901 29.3025C31.6854 29.6415 31.379 29.8664 31.0732 29.9162C31.1243 30.239 31.1599 30.5653 31.2288 30.8857C31.3962 30.9493 31.5957 30.9631 31.7228 31.1059C31.8516 31.2271 31.8599 31.4142 31.8896 31.578C31.9674 32.2169 32.2845 32.8121 32.7363 33.2602C32.9097 33.427 32.9798 33.6826 32.9121 33.9159C32.8212 34.2837 32.7387 34.6544 32.6348 35.0192C32.5659 35.2772 32.3189 35.4241 32.0743 35.4727C31.3297 35.6617 30.584 35.8441 29.8406 36.0373C29.1334 36.2292 28.5759 36.8184 28.3479 37.5125C32.0903 37.5215 35.8327 37.5221 39.5751 37.5149C39.3525 36.8112 38.7807 36.2244 38.07 36.0307C37.3112 35.8315 36.5488 35.6455 35.7882 35.4535C35.5911 35.4073 35.4005 35.2874 35.3209 35.0924C35.2235 34.85 35.1879 34.5884 35.1173 34.3383C35.0692 34.1247 34.9866 33.9111 35.005 33.6892C35.0252 33.475 35.1855 33.3202 35.3268 33.1756C35.7923 32.7047 36.0613 32.0598 36.132 31.4028C36.1569 31.0789 36.4502 30.8587 36.7542 30.8323C36.7869 30.4915 36.8118 30.1508 36.8296 29.8094C36.5761 29.8088 36.3077 29.6385 36.3 29.3619C36.2929 28.9011 36.341 28.4404 36.3517 27.9797C36.3523 27.7703 36.3974 27.5477 36.5589 27.4025C36.6788 27.2459 36.9175 27.1302 36.8949 26.9034C36.7993 26.4271 36.3558 26.1061 35.8968 26.0419C35.3132 25.9585 34.6903 25.9825 34.1453 26.2285Z" stroke="#777E91" stroke-width="0.4"/>
<path d="M14.8222 26.0197C15.0128 25.9873 15.2075 26.0017 15.3999 25.9999C16.9252 26.0023 18.4506 25.9993 19.9759 26.0005C20.1778 25.9945 20.3874 26.0677 20.5145 26.2327C20.7276 26.4756 20.7068 26.8836 20.4664 27.1008C20.3233 27.2514 20.1095 27.285 19.9118 27.2814C18.2891 27.279 16.6664 27.2814 15.0431 27.2802C14.7753 27.2975 14.4956 27.1614 14.3893 26.9034C14.2166 26.5566 14.4452 26.0923 14.8222 26.0197Z" stroke="#777E91" stroke-width="0.4"/>
<path d="M14.7647 28.5952C14.8549 28.5688 14.9499 28.5634 15.0432 28.5604C17.9329 28.5592 20.8227 28.5616 23.7125 28.5592C23.9102 28.5538 24.124 28.5892 24.2665 28.7398C24.5075 28.9569 24.5271 29.3649 24.314 29.6079C24.1869 29.7716 23.9779 29.8448 23.7766 29.8394C20.8643 29.8406 17.9519 29.84 15.0402 29.84C14.7783 29.855 14.5028 29.723 14.3942 29.4735C14.2244 29.1453 14.4138 28.6984 14.7647 28.5952Z" stroke="#777E91" stroke-width="0.4"/>
</svg>
