<svg width="32" height="32" viewBox="0 0 32 32" fill="none" xmlns="http://www.w3.org/2000/svg">
<rect width="32" height="32" rx="16" fill="#F0F3FF"/>
<path d="M22.5504 20.4596C23.4653 20.4596 24.3427 20.0961 24.9896 19.4492C25.6366 18.8023 26 17.9249 26 17.01C26 16.0951 25.6366 15.2177 24.9896 14.5708C24.3427 13.9239 23.4653 13.5605 22.5504 13.5605H21.5649C21.7087 12.9198 21.7109 12.2599 21.5713 11.6185C21.4318 10.977 21.1532 10.3666 20.7515 9.82206C20.3498 9.27751 19.8329 8.8095 19.2303 8.44475C18.6276 8.08 17.9511 7.82564 17.2392 7.69622C16.5274 7.56679 15.7941 7.56481 15.0814 7.69041C14.3687 7.81601 13.6905 8.06672 13.0854 8.42823C11.8635 9.15832 11.0138 10.2954 10.7234 11.5893C9.67271 11.5472 8.63941 11.8558 7.80041 12.4622C6.96141 13.0686 6.3689 13.9352 6.12432 14.9135C5.87975 15.8918 5.99832 16.921 6.45975 17.8249C6.92117 18.7288 7.69674 19.4511 8.65366 19.8682M15.6513 15.5316V24.4019M15.6513 24.4019L12.6946 21.4452M15.6513 24.4019L18.6081 21.4452" stroke="#011B6D" stroke-width="2" stroke-linecap="round" stroke-linejoin="round"/>
</svg>
