<svg width="32" height="32" viewBox="0 0 32 32" fill="none" xmlns="http://www.w3.org/2000/svg">
<rect width="32" height="32" rx="16" fill="#F0F3FF"/>
<path d="M16.0276 15.5851V22.6685M16.0276 22.6685L18.5276 20.1685M16.0276 22.6685L13.5276 20.1685M12.6943 11.8651C13.3179 11.9543 13.8956 12.2439 14.3401 12.6901M20.611 17.6685C21.8768 17.6685 22.6943 16.6426 22.6943 15.3768C22.6943 14.8757 22.5299 14.3883 22.2265 13.9895C21.9231 13.5906 21.4973 13.3022 21.0143 13.1685C20.94 12.2339 20.5526 11.3516 19.9149 10.6644C19.2771 9.97715 18.4262 9.5251 17.4997 9.38132C16.5733 9.23754 15.6254 9.41043 14.8093 9.87204C13.9932 10.3337 13.3567 11.057 13.0026 11.9251C12.2572 11.7185 11.4601 11.8164 10.7869 12.1975C10.1136 12.5785 9.61929 13.2113 9.41264 13.9568C9.20599 14.7023 9.30395 15.4993 9.68496 16.1726C10.066 16.8458 10.6988 17.3402 11.4443 17.5468" stroke="#011B6D" stroke-width="1.5" stroke-linecap="round" stroke-linejoin="round"/>
</svg>
