<svg width="21" height="20" viewBox="0 0 21 20" fill="none" xmlns="http://www.w3.org/2000/svg">
<path fill-rule="evenodd" clip-rule="evenodd" d="M12.1667 1.66671C12.1667 1.20647 11.7936 0.833374 11.3333 0.833374H5.5C4.11929 0.833374 3 1.95266 3 3.33337V16.6667C3 18.0474 4.11929 19.1667 5.5 19.1667H15.5C16.8807 19.1667 18 18.0474 18 16.6667V7.50004C18 7.0398 17.6269 6.66671 17.1667 6.66671H14.6667C13.286 6.66671 12.1667 5.54742 12.1667 4.16671V1.66671ZM11.0893 14.756C11.0094 14.8359 10.9173 14.8961 10.819 14.9368C10.5169 15.0618 10.1563 15.0015 9.91074 14.756L7.41074 12.256C7.08531 11.9305 7.08531 11.4029 7.41074 11.0775C7.73618 10.752 8.26382 10.752 8.58925 11.0775L9.66667 12.1549V8.33337C9.66667 7.87314 10.0398 7.50004 10.5 7.50004C10.9602 7.50004 11.3333 7.87314 11.3333 8.33337V12.1549L12.4107 11.0775C12.7362 10.752 13.2638 10.752 13.5893 11.0775C13.9147 11.4029 13.9147 11.9305 13.5893 12.256L11.0893 14.756Z" fill="#FCFCFD"/>
<path d="M14.6478 0.981345C14.2233 0.803365 13.8333 1.20651 13.8333 1.66675V4.16675C13.8333 4.62699 14.2063 5.00008 14.6666 5.00008H17.1666C17.6268 5.00008 18.03 4.60999 17.852 4.18556C17.7749 4.00181 17.6642 3.83105 17.5118 3.6786L15.1547 1.32157C15.0023 1.16912 14.8315 1.0584 14.6478 0.981345Z" fill="white"/>
</svg>
