<svg width="32" height="32" viewBox="0 0 32 32" fill="none" xmlns="http://www.w3.org/2000/svg">
<rect width="32" height="32" rx="16" fill="#F0F3FF"/>
<g clip-path="url(#clip0_856_17203)">
<path d="M22.8626 10.7398C23.2226 9.74396 22.2576 8.77896 21.2618 9.13979L9.09095 13.5415C8.09178 13.9031 7.97095 15.2665 8.89012 15.799L12.7751 18.0481L16.2443 14.579C16.4015 14.4272 16.612 14.3432 16.8305 14.3451C17.0489 14.347 17.258 14.4346 17.4125 14.5891C17.567 14.7436 17.6546 14.9526 17.6565 15.1711C17.6584 15.3896 17.5744 15.6001 17.4226 15.7573L13.9534 19.2265L16.2034 23.1115C16.7351 24.0306 18.0984 23.909 18.4601 22.9106L22.8626 10.7398Z" fill="#011B6D"/>
</g>
<defs>
<clipPath id="clip0_856_17203">
<rect width="20" height="20" fill="white" transform="translate(6 6)"/>
</clipPath>
</defs>
</svg>
