<svg width="25" height="24" viewBox="0 0 25 24" fill="none" xmlns="http://www.w3.org/2000/svg">
<path d="M12.5002 0.75C7.58769 0.75 3.4252 3.8625 1.8877 8.25H23.1127C21.5752 3.8625 17.4127 0.75 12.5002 0.75Z" fill="#C94747"/>
<path d="M12.5002 23.25C17.4127 23.25 21.5752 20.1375 23.1127 15.75H1.8877C3.4252 20.1375 7.58769 23.25 12.5002 23.25Z" fill="#699635"/>
<path d="M1.8875 8.25C1.475 9.4125 1.25 10.6875 1.25 12C1.25 13.3125 1.475 14.5875 1.8875 15.75H23.1125C23.525 14.5875 23.75 13.3125 23.75 12C23.75 10.6875 23.525 9.4125 23.1125 8.25H1.8875Z" fill="#FFCE31"/>
<path d="M12.5 13.9875L14.825 15.75L13.925 12.9L16.25 11.0625H13.4L12.5 8.25L11.6375 11.0625H8.75L11.075 12.9L10.175 15.75L12.5 13.9875Z" fill="#3E4347"/>
</svg>
