<svg width="25" height="24" viewBox="0 0 25 24" fill="none" xmlns="http://www.w3.org/2000/svg">
<g id="bxs:hot">
<path id="Vector" d="M17 8.00001C17 9.50001 16.5 11.5 14.1 12.3C14.8 10.6 14.9 8.90001 14.4 7.30001C13.7 5.20001 11.4 3.60001 9.8 2.70001C9.4 2.40001 8.7 2.80001 8.8 3.40001C8.8 4.50001 8.5 6.10001 6.8 7.80001C4.6 10 3.5 12.3 3.5 14.5C3.5 17.4 5.5 21 9.5 21C5.5 17 8.5 13.5 8.5 13.5C9.3 19.4 13.5 21 15.5 21C17.2 21 20.5 19.8 20.5 14.6C20.5 11.5 19.2 9.10001 18.1 7.70001C17.8 7.20001 17.1 7.50001 17 8.00001Z" fill="#FF0F0F"/>
</g>
</svg>
