<svg width="187" height="140" viewBox="0 0 187 140" fill="none" xmlns="http://www.w3.org/2000/svg">
<path d="M182.754 100.073C182.122 100.358 181.526 100.861 181.3 101.338C181.037 101.711 180.978 102.279 181.144 102.714C181.234 102.952 181.427 103.249 181.832 103.32C182.527 103.463 182.822 102.688 182.918 102.348C183.124 101.616 183.066 100.71 182.754 100.073ZM182.003 103.681C181.928 103.681 181.852 103.673 181.774 103.656C181.346 103.582 181.013 103.292 180.842 102.842C180.633 102.294 180.708 101.601 181.023 101.159C181.268 100.64 181.899 100.095 182.577 99.7786C182.439 99.5927 182.27 99.448 182.071 99.3643C181.614 99.1721 180.785 99.1342 180.15 99.4435C179.82 99.6042 179.607 99.8308 179.517 100.116C179.488 100.206 179.396 100.255 179.31 100.225C179.225 100.195 179.179 100.098 179.207 100.008C179.326 99.6348 179.604 99.3319 180.013 99.1325C180.642 98.8255 181.58 98.7882 182.192 99.0466C182.477 99.1665 182.71 99.379 182.891 99.65C183.008 99.6092 183.125 99.5756 183.24 99.5517C183.932 99.308 184.53 99.3224 184.996 99.6006C185.498 99.8993 185.849 100.503 186.037 101.396C186.056 101.488 186.001 101.579 185.913 101.6C185.825 101.62 185.739 101.562 185.719 101.47C185.551 100.676 185.254 100.148 184.836 99.8987C184.452 99.6699 183.943 99.6647 183.323 99.8823C183.237 99.9005 183.149 99.9245 183.061 99.9532C183.4 100.674 183.455 101.651 183.23 102.445C183.007 103.236 182.558 103.681 182.003 103.682V103.681Z" fill="#292929"/>
<path d="M45.6628 108.613C45.5565 108.613 45.4451 108.638 45.3333 108.688C44.6705 108.985 44.421 109.563 44.3282 109.995C44.249 110.367 44.2525 110.779 44.3269 111.172C44.4771 111.169 44.629 111.15 44.7804 111.114C45.5132 110.927 46.1951 110.324 46.3306 109.741C46.4036 109.331 46.3062 108.961 46.0684 108.76C45.9526 108.663 45.8129 108.613 45.6628 108.613V108.613ZM46.7402 113.58C45.941 113.58 45.1962 113.247 44.629 112.631C44.3771 112.332 44.1865 111.935 44.0711 111.506C43.6495 111.467 43.2445 111.314 42.8871 111.054C42.2638 110.6 41.8432 109.858 41.7334 109.018C41.6092 107.976 41.9507 107.335 42.4856 106.476C42.5352 106.397 42.6361 106.375 42.7114 106.426C42.7867 106.479 42.8076 106.584 42.7584 106.664C42.2498 107.48 41.9438 108.028 42.0565 108.973C42.1536 109.716 42.5241 110.373 43.0725 110.772C43.3529 110.977 43.6667 111.104 43.9948 111.152C43.926 110.737 43.9274 110.308 44.0104 109.92C44.1675 109.188 44.5806 108.653 45.2055 108.373C45.5838 108.203 45.9826 108.248 46.2723 108.493C46.6052 108.774 46.7464 109.268 46.6492 109.813C46.482 110.531 45.7118 111.229 44.8549 111.448C44.7063 111.483 44.5572 111.505 44.4096 111.512C44.5122 111.851 44.6679 112.161 44.8676 112.398C45.4 112.976 46.1181 113.271 46.8783 113.234C47.6801 113.191 48.4249 112.787 48.9217 112.125C48.9774 112.051 49.08 112.038 49.1504 112.096C49.2211 112.155 49.2331 112.263 49.1774 112.337C48.6223 113.076 47.7904 113.528 46.8949 113.576C46.843 113.578 46.7912 113.58 46.74 113.58L46.7402 113.58Z" fill="#292929"/>
<path d="M51.7087 10.7642C51.7029 10.7759 51.697 10.7876 51.6912 10.7991C51.2924 11.6129 51.4468 12.4558 52.1256 13.1726C52.6204 13.6951 53.0876 13.886 53.4063 13.6973C53.74 13.4995 53.8865 12.9067 53.7478 12.318C53.6654 11.9692 53.2767 10.8388 51.7088 10.7641L51.7087 10.7642ZM48.0636 15.3877C47.974 15.3877 47.901 15.3113 47.9007 15.217C47.8945 13.7549 48.4315 12.2907 49.3016 11.3961C49.9168 10.7638 50.6829 10.427 51.5244 10.4181C52.1838 9.32974 53.5607 8.66 54.7694 8.87067C55.4781 8.99443 56.0989 9.40218 56.699 9.79652C57.809 10.5254 58.7676 11.1555 60.0005 9.78726C60.0624 9.71867 60.1653 9.71568 60.2308 9.78079C60.296 9.8459 60.2989 9.95452 60.237 10.023C58.8213 11.5948 57.6548 10.8286 56.5263 10.0868C55.9535 9.71057 55.3609 9.32096 54.7161 9.20858C53.709 9.0335 52.534 9.56838 51.9095 10.436C53.2108 10.5717 53.8751 11.4358 54.0637 12.2356C54.2397 12.9804 54.0302 13.7206 53.5666 13.9958C53.2988 14.1548 52.7251 14.2909 51.8949 13.4147C51.1536 12.6321 50.9566 11.6747 51.3439 10.7681C50.6548 10.8175 50.0456 11.1103 49.5295 11.6411C48.7201 12.4733 48.2211 13.843 48.2266 15.2157C48.2268 15.3103 48.1542 15.3874 48.0643 15.3877C48.064 15.3877 48.0637 15.3877 48.0637 15.3877H48.0636Z" fill="#292929"/>
<path d="M182.047 58.8271C181.396 58.8271 180.78 59.1221 180.4 59.6159C180.024 60.1045 179.902 60.7414 180.047 61.4575C180.245 62.4383 181.007 63.0721 181.988 63.0721C182.273 63.0721 182.561 63.0176 182.841 62.9104C183.323 62.726 183.773 62.2542 184.015 61.6785C184.221 61.1889 184.249 60.7002 184.094 60.3017C183.723 59.379 182.957 58.827 182.047 58.827V58.8271ZM181.988 63.4148C180.847 63.4148 179.96 62.6744 179.728 61.5288C179.518 60.4923 179.84 59.7992 180.147 59.4003C180.588 58.8266 181.298 58.4844 182.047 58.4844C183.093 58.4844 183.97 59.1146 184.395 60.1702C184.584 60.6575 184.555 61.2417 184.313 61.8173C184.036 62.4752 183.514 63.0173 182.953 63.2321C182.636 63.3535 182.312 63.4148 181.988 63.4148V63.4148Z" fill="#FBAE39"/>
<path d="M18.9763 105.655C18.3247 105.655 17.7089 105.95 17.329 106.444C16.9527 106.933 16.8305 107.57 16.9754 108.285C17.1742 109.266 17.9366 109.901 18.9174 109.901C19.2027 109.901 19.4898 109.846 19.7706 109.739C20.2519 109.555 20.7015 109.083 20.9436 108.508C21.1498 108.018 21.1779 107.528 21.0227 107.13C20.6516 106.207 19.8863 105.655 18.9762 105.655L18.9763 105.655ZM18.9174 110.243C17.7764 110.243 16.8889 109.503 16.6569 108.357C16.4467 107.32 16.7686 106.627 17.0759 106.228C17.5169 105.655 18.2276 105.312 18.9763 105.312C20.0215 105.312 20.899 105.943 21.3239 106.998C21.5134 107.486 21.4842 108.07 21.2418 108.646C20.9648 109.304 20.4438 109.846 19.8818 110.061C19.5651 110.182 19.2409 110.243 18.9174 110.243Z" fill="#011B6D"/>
<path d="M179.947 74.585C179.646 74.585 179.356 74.6786 179.108 74.8557L174.3 78.2908C173.97 78.5266 173.746 78.8853 173.671 79.3013C173.595 79.717 173.677 80.1374 173.902 80.4844L177.167 85.5407C177.446 85.9732 177.912 86.2311 178.414 86.2311C178.715 86.2311 179.006 86.1372 179.254 85.9597L184.061 82.526C184.746 82.0367 184.925 81.0522 184.46 80.3313L181.194 75.2757C180.915 74.8432 180.449 74.5849 179.947 74.5849L179.947 74.585ZM178.414 86.5738C177.804 86.5738 177.238 86.2597 176.898 85.7336L173.632 80.6774C173.359 80.2542 173.259 79.7426 173.351 79.2368C173.442 78.7311 173.714 78.2946 174.117 78.007L178.925 74.5719C179.227 74.3564 179.581 74.2422 179.947 74.2422C180.557 74.2422 181.124 74.5564 181.464 75.0831L184.73 80.139C185.295 81.0159 185.078 82.2138 184.245 82.8096L179.437 86.2434C179.134 86.4595 178.781 86.5737 178.414 86.5737V86.5738Z" fill="#011B6D"/>
<path d="M34.1491 121.118C33.8638 121.118 33.6272 121.221 33.4659 121.416C33.2571 121.67 33.1775 122.074 33.2424 122.556L34.1873 129.576C34.2854 130.303 34.6427 130.738 35.1436 130.738C35.4205 130.738 35.7274 130.606 36.0308 130.356L41.3387 125.985C41.7658 125.633 41.973 125.227 41.9209 124.843C41.8691 124.458 41.5631 124.129 41.0591 123.915L34.8063 121.267C34.5721 121.168 34.3512 121.118 34.1492 121.118H34.1491ZM35.1436 131.081C34.4757 131.081 33.9859 130.522 33.8647 129.624L32.9199 122.604C32.8404 122.014 32.9443 121.526 33.22 121.192C33.5885 120.745 34.226 120.652 34.9282 120.949L41.1809 123.598C41.7974 123.859 42.1747 124.284 42.2438 124.795C42.3125 125.305 42.0626 125.824 41.5393 126.255L36.2315 130.626C35.8705 130.923 35.4942 131.081 35.1436 131.081V131.081Z" fill="#FBAE39"/>
<path d="M85.6534 3.76451C85.4069 3.76451 85.1273 3.85981 84.8448 4.03972L79.0774 7.71126C78.6131 8.00692 78.3616 8.38351 78.3694 8.77177C78.3773 9.16003 78.6435 9.52533 79.1192 9.80073L85.0268 13.2167C85.5827 13.5378 86.102 13.5319 86.4103 13.2009C86.6262 12.9689 86.7357 12.6 86.7266 12.1336L86.5855 5.04611C86.5702 4.2556 86.2128 3.76461 85.6533 3.76461L85.6534 3.76451ZM85.8011 13.7992C85.5072 13.7992 85.1937 13.7043 84.8698 13.5168L78.9625 10.1009C78.3802 9.76437 78.0538 9.29498 78.0437 8.77891C78.0333 8.26322 78.3405 7.78014 78.9087 7.41831L84.676 3.74637C85.0142 3.53126 85.343 3.42188 85.6534 3.42188C86.3983 3.42188 86.8922 4.0565 86.9114 5.03887L87.0525 12.1267C87.0636 12.687 86.9218 13.1413 86.6433 13.4408C86.4247 13.6752 86.1337 13.7993 85.8011 13.7993V13.7992Z" fill="#FECA80"/>
<path d="M116.634 54.3738C102.499 54.3738 88.8575 61.8502 78.2219 75.4266C63.5446 94.1609 60.4643 103.55 58.8092 108.594C58.7233 108.855 58.6411 109.107 58.5609 109.347C56.4646 115.647 56.5646 121.077 58.859 125.485C61.5821 130.717 67.3924 134.474 76.1291 136.65C83.864 138.576 95.5321 139.638 108.985 139.638C108.986 139.638 108.989 139.638 108.99 139.638C130.217 139.638 156.027 136.88 165.846 130.718C171.155 127.386 173.915 118.921 173.048 108.626C171.646 91.9505 160.063 68.5225 132.035 57.3751C127.028 55.3833 121.846 54.3738 116.634 54.3738ZM108.99 139.981C108.988 139.981 108.987 139.981 108.985 139.981C95.5078 139.98 83.813 138.916 76.0541 136.983C67.2241 134.784 61.3425 130.971 58.5734 125.649C56.233 121.153 56.1253 115.63 58.2535 109.234C58.3336 108.993 58.4154 108.743 58.5015 108.482C60.1631 103.417 63.2558 93.9904 77.9705 75.2083C88.6694 61.5517 102.4 54.0312 116.634 54.0312C121.886 54.0312 127.106 55.0482 132.151 57.0545C144.726 62.0562 155.242 70.0966 162.562 80.3067C168.722 88.8991 172.561 98.9457 173.373 108.596C174.251 119.023 171.43 127.612 166.013 131.012C156.142 137.207 130.261 139.981 108.99 139.981L108.99 139.981Z" fill="#292929"/>
<path d="M44.9886 40.2628C45.6367 41.3786 46.1663 43.3628 46.462 45.5326C46.6689 47.0508 47.0516 47.2064 48.4661 47.8883C49.8811 48.5703 50.2055 49.8719 49.4392 50.6158C48.3474 51.6754 48.3488 51.0966 48.2015 52.2897C48.1028 53.0857 48.308 53.721 47.2898 53.3783C46.8901 53.2437 46.0635 52.7262 45.9458 52.8215C45.5934 53.1079 45.7015 54.1922 47.0454 55.0059C47.5355 55.3026 47.9414 55.2629 47.5084 57.6215C47.1312 59.6753 44.7673 59.9926 42.4241 59.5273C40.0809 59.0627 40.5674 60.9226 39.6391 63.5727C38.7105 66.2232 38.5778 67.711 39.8597 68.827C41.1421 69.9431 42.1589 75.2899 42.0264 76.592C41.8938 77.8937 37.4724 80.5904 33.7146 76.2198C31.6811 73.2442 29.3818 67.525 29.3818 67.525C29.3818 67.525 31.7691 64.0378 31.7251 60.6434C31.6812 57.2494 30.3105 44.4626 34.7758 40.8359C39.2411 37.2095 44.5464 39.3645 44.9888 40.2629L44.9886 40.2628Z" fill="white"/>
<path d="M29.567 67.5451C29.8654 68.2753 31.9832 73.3925 33.8465 76.1194C35.4972 78.0375 37.1949 78.443 38.3269 78.443C40.2931 78.443 41.7971 77.23 41.8642 76.5732C41.9922 75.3152 40.9656 70.012 39.7555 68.9586C38.3532 67.7378 38.5787 66.1029 39.4858 63.5132C39.733 62.8084 39.8777 62.1618 40.0061 61.5913C40.3062 60.2521 40.5235 59.2845 41.7827 59.2845C41.9824 59.2845 42.2024 59.3088 42.4541 59.3588C43.0706 59.4812 43.6584 59.5431 44.2005 59.5431C45.4728 59.5431 47.0518 59.204 47.3482 57.5887C47.7184 55.5725 47.4733 55.4375 47.1023 55.2333C47.0574 55.2082 47.0111 55.1828 46.9638 55.1541C46.1598 54.6672 45.6548 53.9935 45.6134 53.3524C45.5949 53.0638 45.6795 52.8213 45.846 52.6855C45.9874 52.5704 46.2334 52.6828 46.7543 52.9448C46.9693 53.0531 47.1916 53.1649 47.3391 53.2148C47.5106 53.2724 47.6483 53.3015 47.7484 53.3015C47.9413 53.3015 47.9772 53.2179 48.0051 52.7056C48.0124 52.5688 48.0208 52.4212 48.0397 52.2674C48.1378 51.4734 48.1766 51.3877 48.5571 51.125C48.7177 51.0143 48.9605 50.8468 49.3284 50.4894C49.603 50.2229 49.723 49.8695 49.6662 49.494C49.5805 48.9273 49.1064 48.3849 48.3982 48.0436L48.3154 48.0038C46.9694 47.3555 46.5159 47.1376 46.3006 45.5562C45.9946 43.3098 45.4655 41.4128 44.8494 40.3516C44.6424 39.9328 42.9049 38.9755 40.4496 38.9755C39.0273 38.9755 36.906 39.3219 34.8749 40.9712C31.0981 44.0389 31.5799 53.9574 31.8116 58.7241C31.849 59.4974 31.8813 60.1656 31.8878 60.6406C31.9289 63.8095 29.9313 66.992 29.5671 67.545L29.567 67.5451ZM38.3269 78.7856C37.1288 78.7856 35.3355 78.3604 33.5934 76.3342C31.5613 73.362 29.2546 67.6486 29.2317 67.5914C29.2095 67.5362 29.2161 67.4732 29.2493 67.4245C29.2731 67.3902 31.6046 63.9424 31.5618 60.6453C31.5557 60.1766 31.5234 59.5115 31.4859 58.7415C31.2513 53.9166 30.7636 43.8772 34.6756 40.7C36.7794 38.9916 38.9764 38.6328 40.4494 38.6328C42.8426 38.6328 44.8215 39.5512 45.1326 40.1837C45.7657 41.2724 46.3108 43.2169 46.6229 45.5079C46.8132 46.9036 47.1273 47.0549 48.4507 47.692L48.5338 47.7321C49.3532 48.1272 49.8833 48.7499 49.9876 49.4402C50.0623 49.9327 49.9064 50.3946 49.5494 50.7413C49.1617 51.1179 48.9052 51.2944 48.7358 51.4116C48.4547 51.6059 48.4494 51.6093 48.3624 52.3117C48.3445 52.457 48.337 52.5965 48.3302 52.7253C48.3009 53.266 48.253 53.8828 47.24 53.5412C47.0709 53.4842 46.8383 53.3674 46.6134 53.254C46.4173 53.1553 46.13 53.0108 46.0169 52.985C45.9579 53.0563 45.9286 53.1811 45.9384 53.3291C45.9647 53.7358 46.2905 54.351 47.1265 54.8574C47.1696 54.8834 47.2122 54.9068 47.2534 54.9296C47.7841 55.2219 48.0649 55.4926 47.6682 57.6537C47.4038 59.0932 46.1723 59.8858 44.2004 59.8858C43.6381 59.8858 43.0302 59.8216 42.3938 59.6955C42.165 59.65 41.9594 59.6271 41.7826 59.6271C40.8214 59.6271 40.6405 60.2534 40.3229 61.6699C40.1926 62.2497 40.0454 62.9069 39.7915 63.6317C38.8053 66.4469 38.8486 67.7243 39.9633 68.6947C41.3 69.858 42.3279 75.2349 42.1879 76.6101C42.0986 77.4859 40.438 78.7856 38.3267 78.7856H38.3269Z" fill="#292929"/>
<path d="M40.3638 99.7918C41.0076 97.3784 43.4525 87.1875 42.2185 75.7208C39.3889 78.3247 36.2053 77.704 33.0224 74.9766C35.0262 81.4243 34.0836 94.6905 31.6074 99.5264C34.9051 99.5918 37.7674 99.6916 40.3638 99.7918Z" fill="#006BFF"/>
<path d="M43.5791 48.6479C43.7516 49.228 44.1461 49.615 44.4601 49.5121C44.7746 49.4087 44.8896 48.8546 44.7175 48.2742C44.5455 47.6945 44.1506 47.3076 43.8371 47.4114C43.5227 47.5145 43.4068 48.0679 43.5791 48.6479Z" fill="#292929"/>
<path d="M44.1086 47.6857C44.0937 47.6857 44.078 47.6836 44.0628 47.6789C43.9765 47.6521 43.9272 47.5569 43.9526 47.4661L44.2475 46.4121C44.2729 46.3217 44.3635 46.2689 44.4498 46.2963C44.536 46.3227 44.5853 46.4183 44.5599 46.5087L44.265 47.5631C44.2442 47.6374 44.1794 47.6858 44.1086 47.6858V47.6857Z" fill="#292929"/>
<path d="M36.2642 82.6693C35.3543 75.6107 32.3535 70.9406 29.6994 66.614C29.2921 65.9502 28.9155 66.0447 28.7421 66.0811C27.4732 66.346 26.0568 66.9724 26.4197 67.7903C26.4971 67.9633 26.615 68.1411 26.7622 68.3389C26.2116 68.4557 25.5524 68.601 24.7696 68.7822C21.8216 69.4638 19.9977 70.6902 18.1702 72.6118C16.4837 74.385 8.39562 84.6701 5.11914 88.6342C5.47135 89.1625 5.84998 89.657 6.25979 90.1088C9.07482 93.2125 11.6279 95.2857 14.4167 96.6769C15.9947 94.9768 19.805 90.8091 22.4114 87.4425C22.3021 88.2451 21.9414 95.2019 20.9545 98.743C23.9326 99.2637 27.37 99.4478 31.6076 99.5317C32.6598 99.5525 33.6669 99.577 34.636 99.6038C35.3113 96.7448 37.0296 88.6052 36.2644 82.6692L36.2642 82.6693Z" fill="#011B6D"/>
<path d="M26.331 42.184C24.7837 42.7884 23.0595 44.2763 22.1309 50.6462C21.6819 53.7268 20.595 57.0341 20.7997 60.1755C20.9912 63.1158 23.4127 63.9176 25.881 64.4368C28.0555 64.8942 36.5072 67.0136 37.0402 63.1864C37.6619 58.7217 30.9703 56.4797 31.9302 52.3356C32.1254 51.4934 32.9298 50.4465 33.758 50.2515C34.8149 50.003 35.129 50.9529 35.9511 51.5358C36.9523 52.2459 37.5518 51.8308 38.1532 50.7652C38.7218 49.7581 38.5087 48.1446 38.4187 47.0138C38.3008 45.5321 38.1334 44.9968 39.3558 44.5727C41.0083 43.9998 42.4233 42.8224 40.8328 40.8356C42.9547 43.4857 44.0157 43.0674 45.7399 41.905C47.4641 40.7425 47.5527 39.673 46.8893 37.6739C46.2259 35.6745 44.1925 32.6058 40.6114 33.0707C37.0304 33.5357 37.3839 34.5586 33.0956 35.4885C28.8068 36.4184 26.0658 37.7668 26.331 42.184Z" fill="#292929"/>
<path d="M42.3358 45.6558C42.3176 45.6558 42.2993 45.6529 42.2811 45.6459C42.1964 45.6141 42.1521 45.5161 42.1824 45.4269C42.2981 45.086 42.952 43.3686 44.469 43.0386C44.557 43.0198 44.6433 43.0791 44.6616 43.1716C44.6797 43.2642 44.623 43.3548 44.5347 43.374C43.1888 43.6667 42.5944 45.2312 42.4893 45.542C42.4655 45.612 42.4027 45.6557 42.3358 45.6557V45.6558Z" fill="#292929"/>
<path d="M31.5557 99.5293L31.5859 99.1182C31.8411 95.6717 32.5194 86.5157 32.2705 84.4248C32.0101 82.236 32.5741 81.6874 33.4284 80.8571C33.535 80.7537 33.647 80.6443 33.7637 80.5265C33.3433 80.2444 32.2395 79.507 31.4041 78.9704C30.5317 78.4099 30.3397 77.6485 29.8265 75.6138C29.6734 75.0067 29.4997 74.3182 29.2694 73.4781C28.5692 70.9208 27.5719 69.6472 26.9118 68.8043C26.7499 68.5976 26.61 68.4192 26.4935 68.2478C26.4414 68.1708 26.458 68.0634 26.5312 68.0086C26.605 67.9535 26.7065 67.9712 26.7587 68.0484C26.8688 68.2102 27.0053 68.3846 27.1633 68.5864C27.8404 69.4512 28.8638 70.7581 29.5825 73.3831C29.8138 74.2271 29.9953 74.9471 30.1412 75.5261C30.63 77.4638 30.8131 78.1889 31.5741 78.6779C32.6246 79.3533 34.0969 80.3436 34.1119 80.3539C34.1532 80.3816 34.1806 80.4279 34.1859 80.4796C34.1911 80.5311 34.1741 80.5824 34.1394 80.6191C33.9667 80.8003 33.8028 80.96 33.6493 81.1091C32.8142 81.9208 32.3542 82.368 32.594 84.382C32.8465 86.508 32.1668 95.689 31.9108 99.145L31.882 99.5362L31.6071 99.5306L31.5556 99.5295L31.5557 99.5293Z" fill="white"/>
<path d="M54.4204 78.0164L53.1823 81.86C53.1823 81.86 50.235 76.2189 48.3485 73.7391C46.5855 71.4214 44.051 69.9705 42.043 69.1831C40.6879 66.825 38.7737 66.4844 38.7737 66.4844C38.7737 66.4844 38.6219 67.043 38.9025 67.7491C39.1827 68.455 42.2177 73.9868 41.5107 82.7903C40.9141 90.2166 39.1007 97.5989 38.5481 99.7265C40.7038 99.8043 42.6687 99.8868 44.5272 99.9579C44.7051 98.8519 46.2477 92.1658 47.1697 90.0437C49.9992 95.5609 52.6246 96.6868 56.4229 95.0087C59.1383 93.8094 61.3763 84.2164 61.6712 80.4346C61.7298 80.3722 54.4205 78.0165 54.4205 78.0165L54.4204 78.0164Z" fill="#011B6D"/>
<path d="M40.2019 99.7879C40.8836 97.4323 43.7768 87.4053 44.2405 85.2936C44.7784 82.8406 44.7611 82.5463 44.4106 81.8253C43.9695 80.9196 43.5908 80.1244 43.5908 80.1244C43.5534 80.0449 43.5795 79.9486 43.6512 79.9017C44.049 79.6434 45.044 78.8196 44.8749 78.1206C44.4987 76.5679 43.0651 71.423 42.017 69.4676L41.983 69.4049C41.9384 69.323 41.9658 69.2182 42.0437 69.1711C42.1219 69.1239 42.2212 69.153 42.2662 69.2349L42.3011 69.2997C43.3649 71.2848 44.8118 76.4719 45.1908 78.0364C45.4133 78.9546 44.3271 79.8326 43.9475 80.107C44.0736 80.3716 44.3695 80.9894 44.7004 81.6695C45.1103 82.5111 45.0944 82.9261 44.558 85.3706C44.0979 87.4673 41.2651 97.2909 40.539 99.8009L40.2022 99.788L40.2019 99.7879Z" fill="white"/>
<path d="M47.1691 90.2156C47.1466 90.2156 47.1235 90.2105 47.1017 90.2002C47.0198 90.1607 46.984 90.059 47.0211 89.973C49.6713 83.8727 48.6835 81.677 48.0934 80.365C47.9907 80.1368 47.9018 79.9395 47.8402 79.7451C47.8122 79.6558 47.8581 79.5585 47.9435 79.5283C48.0295 79.4985 48.1214 79.5475 48.1498 79.637C48.2048 79.8117 48.2895 80.0002 48.3879 80.2184C49.002 81.5842 50.0306 83.87 47.3173 90.1157C47.29 90.1783 47.231 90.2157 47.1691 90.2157V90.2156Z" fill="#292929"/>
<path d="M54.1406 84.3573C54.0796 84.3573 54.0214 84.3216 53.9933 84.2599C53.9869 84.2456 53.3362 82.8129 52.752 81.3385C52.7174 81.2511 52.7565 81.1508 52.8396 81.114C52.9227 81.0795 53.0182 81.1188 53.0528 81.2066C53.6338 82.6732 54.281 84.0979 54.2877 84.112C54.3265 84.1972 54.2919 84.2997 54.2107 84.3405C54.1879 84.3522 54.1642 84.3573 54.1407 84.3573H54.1406Z" fill="#292929"/>
<path d="M54.8916 76.5414C55.5547 74.3562 56.5275 68.4513 56.7484 66.2658C56.9694 64.0807 55.7316 61.0119 57.1905 59.0591C58.6495 57.1063 59.5781 56.1298 59.9759 55.1532C60.3738 54.1769 61.3023 54.0374 61.7884 55.0137C62.2748 55.9903 61.5233 57.7107 60.4181 58.9196C63.1148 57.1063 63.3358 57.757 64.1757 56.3624C65.016 54.9671 66.652 51.3871 67.713 51.4803C68.5969 50.2248 69.6139 50.9222 69.7908 52.6427C70.3212 52.5964 70.8076 53.8981 70.4542 55.8509C71.7359 56.6414 71.6033 59.5238 69.7908 61.7093C67.978 63.8948 64.5295 65.1965 63.7779 66.9635C63.0266 68.7303 61.7884 79.0991 61.7884 79.0991L54.8916 76.5416V76.5414Z" fill="white"/>
<path d="M55.0938 76.4383L61.6524 78.8704C61.8372 77.3466 62.9277 68.5476 63.6294 66.897C64.0521 65.9037 65.2683 65.0638 66.556 64.1747C67.68 63.3985 68.8419 62.596 69.6681 61.6002C70.7417 60.3057 71.3034 58.6171 71.099 57.2979C71.0039 56.6848 70.7527 56.2366 70.3718 56.002C70.3123 55.9652 70.2812 55.8933 70.2939 55.8221C70.5523 54.3955 70.3535 53.3577 70.042 52.9619C69.9896 52.8954 69.9085 52.8163 69.8181 52.8163C69.7351 52.8163 69.6376 52.7515 69.6286 52.6645C69.5272 51.6777 69.134 51.0146 68.6505 51.0146C68.3859 51.0146 68.1071 51.212 67.8438 51.5855C67.8102 51.633 67.7564 51.6605 67.6994 51.6543C67.6994 51.6543 67.6991 51.6543 67.6987 51.6543C66.9361 51.6543 65.7454 53.8498 64.9576 55.3025C64.7204 55.7401 64.4965 56.1534 64.3136 56.4573C63.8065 57.2988 63.5003 57.4407 62.8291 57.7518C62.3316 57.9821 61.6501 58.2977 60.5057 59.0673C60.4364 59.1135 60.3442 59.0981 60.292 59.0316C60.2399 58.9644 60.2435 58.8667 60.3009 58.8041C61.3018 57.709 62.1131 56.0376 61.6443 55.0966C61.4598 54.7263 61.2034 54.5224 60.9223 54.5224C60.6026 54.5224 60.3049 54.7844 60.1256 55.2241C59.8406 55.9238 59.3111 56.5992 58.5096 57.6216C58.1607 58.0664 57.7651 58.5708 57.3188 59.1684C56.4059 60.3903 56.6003 62.0971 56.788 63.748C56.8913 64.6557 56.989 65.5127 56.9104 66.2874C56.7016 68.3519 55.7649 74.1048 55.0938 76.4382V76.4383ZM61.7886 79.2737C61.7704 79.2737 61.7521 79.2703 61.7342 79.2641L54.8377 76.7066C54.7546 76.6758 54.7096 76.5812 54.7364 76.4928C55.4046 74.2912 56.3739 68.3526 56.5867 66.2512C56.661 65.5148 56.5658 64.6767 56.4648 63.7888C56.2689 62.0687 56.0663 60.2899 57.0627 58.9567C57.5114 58.356 57.9082 57.8499 58.2581 57.4038C59.0421 56.404 59.5598 55.7437 59.8264 55.0895C60.0582 54.5196 60.4681 54.1797 60.9223 54.1797C61.3247 54.1797 61.6933 54.4559 61.933 54.9376C62.3681 55.8107 61.9245 57.132 61.165 58.2456C61.861 57.8259 62.3459 57.6014 62.6984 57.438C63.3431 57.1392 63.5845 57.0275 64.0385 56.274C64.2176 55.9766 64.4395 55.5668 64.6748 55.133C65.7918 53.0733 66.7864 51.3631 67.6332 51.3116C68.0278 50.7849 68.4019 50.6719 68.6507 50.6719C69.2929 50.6719 69.7901 51.3797 69.9367 52.4886C70.0422 52.5157 70.1686 52.5853 70.2931 52.7432C70.6192 53.1576 70.8978 54.1952 70.6343 55.7716C71.0468 56.0711 71.3175 56.5768 71.4208 57.2427C71.64 58.6585 71.0484 60.4571 69.9139 61.8253C69.0583 62.8568 67.8772 63.6723 66.735 64.4611C65.4881 65.3218 64.3105 66.1349 63.9271 67.0368C63.194 68.7604 61.9627 79.0205 61.9504 79.124C61.9442 79.175 61.9164 79.2209 61.8744 79.2483C61.8484 79.2651 61.8187 79.2737 61.7887 79.2737H61.7886Z" fill="#292929"/>
<path d="M62.0096 62.1151C61.936 62.1151 61.8692 62.0623 61.8513 61.9835C61.6278 60.9964 60.7878 59.3865 60.3281 59.0641C60.2532 59.0113 60.233 58.9052 60.2829 58.8263C60.3328 58.7475 60.4337 58.7262 60.5087 58.779C61.0811 59.1803 61.9429 60.9079 62.1683 61.9041C62.1892 61.9963 62.1351 62.0884 62.0474 62.1103C62.035 62.1138 62.0224 62.1152 62.0096 62.1152V62.1151Z" fill="#292929"/>
<path d="M67.4035 61.1841C67.3436 61.1841 67.2862 61.1496 67.2576 61.0896C67.093 60.7431 65.1355 58.275 64.3894 58.0136C64.3044 57.9838 64.2581 57.8869 64.2864 57.7968C64.315 57.7074 64.4067 57.6586 64.4926 57.6885C65.3482 57.9885 67.3702 60.5606 67.549 60.9361C67.5891 61.0211 67.5566 61.124 67.4761 61.166C67.4526 61.1784 67.4279 61.1841 67.4035 61.1841Z" fill="#292929"/>
<path d="M67.0057 61.4197C66.944 61.4197 66.8851 61.3827 66.8578 61.32C66.8199 61.2343 66.8555 61.1322 66.9372 61.0928C67.449 60.8444 68.5751 59.3261 68.8792 57.5905C69.0349 56.701 69.2952 56.1482 69.6745 55.9013C70.0254 55.6724 70.4138 55.7508 70.6757 55.8293C70.7623 55.8554 70.8122 55.9503 70.7878 56.0411C70.7627 56.1318 70.6727 56.1836 70.5861 56.1589C70.2603 56.0605 70.0322 56.0712 69.8461 56.1925C69.5535 56.3833 69.3359 56.8747 69.1997 57.6528C68.8867 59.4394 67.7127 61.0937 67.0738 61.4039C67.0517 61.4146 67.0286 61.4197 67.0058 61.4197H67.0057Z" fill="#292929"/>
<path d="M66.4308 59.8834C66.3852 59.8834 66.3402 59.8635 66.308 59.8244C66.2487 59.7531 66.2559 59.6449 66.3239 59.5829C67.2877 58.7016 67.6826 57.4165 68.0394 55.495C68.3675 53.7262 69.0071 52.7418 69.9396 52.5693C70.0276 52.5519 70.1126 52.6145 70.1282 52.7081C70.1439 52.8014 70.0846 52.89 69.9959 52.9065C69.2098 53.0521 68.6592 53.945 68.3593 55.5603C67.9889 57.5552 67.5722 58.8954 66.5376 59.8414C66.5067 59.8696 66.4689 59.8833 66.4308 59.8833V59.8834Z" fill="#292929"/>
<path d="M65.4136 58.6752C65.3814 58.6752 65.3488 58.6653 65.3202 58.644C65.2465 58.5895 65.2289 58.4827 65.2807 58.4052C65.7603 57.6884 66.3628 55.639 66.8462 53.9921C67.2082 52.7606 67.5207 51.697 67.7468 51.2612C67.7898 51.178 67.8889 51.1475 67.9678 51.193C68.047 51.2381 68.0759 51.3424 68.0329 51.4254C67.8224 51.8311 67.4996 52.9299 67.1578 54.0932C66.6417 55.85 66.0565 57.8412 65.5473 58.6027C65.5153 58.6498 65.4652 58.6752 65.4136 58.6752Z" fill="#292929"/>
<path d="M22.0572 87.9818C22.0201 87.9818 21.9826 87.9685 21.952 87.941C21.8833 87.8798 21.8751 87.7718 21.9334 87.6995C22.927 86.4707 24.9254 84.2439 24.9457 84.2215C25.0073 84.153 25.1101 84.1497 25.1756 84.2148C25.2411 84.2796 25.244 84.3881 25.1821 84.457C25.1623 84.4793 23.1696 86.6993 22.1817 87.9215C22.1494 87.9616 22.1035 87.9818 22.0572 87.9818Z" fill="#292929"/>
<path d="M54.6036 75.9916C53.9519 77.2765 53.575 79.3605 53.7076 79.5466C53.8402 79.7326 58.6763 80.1463 61.9752 82.6305C62.7267 83.0023 62.9669 79.3397 62.8496 78.9158C62.5402 77.7997 55.0017 75.5265 54.6036 75.9916Z" fill="#292929"/>
<path d="M36.2053 82.5301C36.1671 82.5301 36.129 82.5163 36.098 82.488C36.0831 82.4745 34.5977 81.1183 33.907 80.6341C33.832 80.5818 33.8119 80.4752 33.8617 80.3968C33.9116 80.3178 34.0122 80.2966 34.0875 80.3491C34.7959 80.8452 36.2506 82.1731 36.3122 82.2296C36.38 82.2916 36.3871 82.3995 36.3282 82.4712C36.2959 82.5102 36.2506 82.5301 36.2054 82.5301H36.2053Z" fill="white"/>
<path d="M41.5746 81.8329C41.5329 81.8329 41.4912 81.8161 41.4593 81.7828C41.3957 81.7157 41.3957 81.6073 41.4593 81.5406C42.0819 80.8857 42.8775 80.3837 43.4037 80.0514C43.5348 79.9691 43.6465 79.8986 43.7319 79.8403C43.8075 79.7885 43.9084 79.8112 43.9573 79.8904C44.0062 79.97 43.9847 80.0758 43.9095 80.1275C43.8214 80.1875 43.7061 80.2601 43.5716 80.3451C43.0588 80.6689 42.2839 81.1579 41.69 81.783C41.6581 81.8162 41.6163 81.8331 41.5746 81.8331V81.8329Z" fill="white"/>
<path d="M36.8397 57.4777C36.6678 55.7873 35.4006 54.0546 33.8963 55.0654C32.5882 55.9441 32.19 58.3093 33.3874 59.4305C33.897 59.9078 34.722 60.1309 35.4115 59.989C36.5694 59.7502 36.9564 58.6236 36.8397 57.4777Z" fill="#006BFF"/>
<path d="M40.16 21.5147C38.9717 21.5147 37.7798 21.5695 36.6167 21.6778C18.4688 23.3678 7.11673 34.1024 2.87626 53.5835C1.01257 62.146 -0.58394 82.3099 6.37755 89.9857C13.8289 98.2012 19.5014 99.1157 31.6103 99.3556C35.7915 99.4388 39.3025 99.5779 42.3999 99.701C46.0012 99.8439 49.1111 99.9676 52.2842 99.9676C52.2842 99.9676 52.2845 99.9676 52.2849 99.9676C54.7995 99.9676 57.1043 99.8913 59.5385 99.7271L60.2907 99.6773C69.3409 99.0845 83.017 98.1885 84.4985 77.0718C85.6499 60.6548 81.4824 46.5699 72.4469 36.3404C64.2467 27.0568 52.1769 21.5148 40.1599 21.5148L40.16 21.5147ZM52.285 100.31C52.2846 100.31 52.2846 100.31 52.2843 100.31C49.105 100.31 45.9921 100.187 42.3876 100.043C39.2918 99.9206 35.7825 99.7811 31.6045 99.6982C19.3987 99.4563 13.6784 98.5318 6.14201 90.2217C-0.910928 82.4455 0.682277 62.1281 2.55899 53.5069C6.83441 33.8646 18.2836 23.0407 36.5882 21.3363C37.7605 21.2273 38.9624 21.1719 40.1601 21.1719C52.2661 21.1719 64.4251 26.755 72.6856 36.1068C79.0305 43.2902 86.287 56.2326 84.8235 77.0969C83.3211 98.5117 69.474 99.4189 60.3113 100.019L59.5594 100.069C57.1184 100.233 54.8064 100.31 52.285 100.31V100.31Z" fill="#292929"/>
<path d="M56.8127 29.7535C59.0204 29.1477 66.0772 27.734 69.774 26.9263C73.4703 26.118 77.503 25.5629 78.031 25.8154C78.5589 26.068 72.702 33.8428 69.9658 36.9225C69.0539 37.5787 67.8056 36.3671 67.8056 36.3671C65.2135 39.1944 62.2847 40.2545 61.8051 40.3555C61.3248 40.4562 61.0847 37.3265 61.0365 35.458C60.9886 33.5902 61.304 33.2263 59.8368 32.4796C55.2761 30.1567 56.8126 29.7535 56.8126 29.7535H56.8127Z" fill="#006BFF"/>
<path d="M61.8049 40.5273C61.7335 40.5273 61.6677 40.4773 61.6477 40.4012C61.6243 40.3097 61.6754 40.2156 61.7622 40.1909C62.003 40.0986 62.8791 38.6064 63.5187 37.5167C64.2061 36.3455 64.8554 35.2395 65.2425 34.8328C65.971 34.0662 72.6861 29.2454 75.5366 27.2166L61.5774 33.0431C61.494 33.0777 61.3993 33.0349 61.3656 32.9472C61.3328 32.8592 61.3735 32.7598 61.4569 32.7248L76.8187 26.313C76.8992 26.2789 76.9918 26.3185 77.0276 26.4022C77.0631 26.4861 77.0296 26.5844 76.9517 26.6256C76.4772 26.8901 66.2349 34.2737 65.4728 35.0751C65.1128 35.4537 64.4433 36.5941 63.7959 37.6967C62.6839 39.5913 62.1632 40.4308 61.8482 40.5212C61.8335 40.5253 61.8192 40.5273 61.8049 40.5273Z" fill="#292929"/>
<path d="M68.0933 36.7413C68.0602 36.7413 68.0265 36.7307 67.9976 36.7085L67.9272 36.6543C66.9429 35.8978 65.7178 34.9534 65.4305 35.1076C65.35 35.1494 65.2523 35.1156 65.212 35.031C65.1715 34.9463 65.2041 34.8435 65.2845 34.801C65.728 34.5683 66.6064 35.2142 68.1198 36.3779L68.1895 36.4317C68.2624 36.4879 68.2782 36.5952 68.2251 36.6712C68.1932 36.7171 68.1437 36.7414 68.0934 36.7414L68.0933 36.7413Z" fill="#292929"/>
<path d="M80.622 64.3701C78.776 64.548 77.7274 65.7541 77.9125 69.1862C78.0973 72.6189 77.358 76.1619 78.6514 77.4897C79.9449 78.8189 83.208 78.8196 86.226 78.8744C89.2436 78.9293 93.1519 78.8364 94.3091 78.8189C97.0338 78.7774 98.0035 78.2796 98.3733 76.0369C98.591 74.717 98.0686 67.2708 98.0501 66.4878C98.0036 64.5364 96.8029 64.287 94.1704 64.1625C91.6463 64.0429 82.3465 64.204 80.622 64.3702V64.3701Z" fill="#006BFF"/>
<path d="M88.0349 73.4583C88.0228 73.4583 88.0104 73.4579 87.9984 73.4579C86.6997 73.4374 85.6434 72.2881 84.8683 71.2889C83.4364 69.4413 80.2144 65.6539 79.4314 64.9498C79.363 64.8885 79.3548 64.7802 79.4135 64.7082C79.4714 64.6363 79.5744 64.6284 79.6429 64.6894C80.4362 65.4026 83.6816 69.2159 85.1211 71.072C85.8513 72.0137 86.8389 73.0968 88.0033 73.1153C88.8363 73.1208 89.707 72.5893 90.5931 71.5141C93.0326 68.5543 96.6527 64.8258 96.6888 64.7885C96.7536 64.7223 96.857 64.7237 96.9191 64.7912C96.9824 64.8587 96.9811 64.9673 96.9165 65.0334C96.8804 65.0708 93.2699 68.7893 90.8394 71.7381C89.8864 72.895 88.9683 73.4583 88.0348 73.4583H88.0349Z" fill="#292929"/>
<path d="M78.6515 77.662C78.5917 77.662 78.5342 77.6274 78.5056 77.567C78.4655 77.4824 78.4984 77.3797 78.5788 77.3376C79.0024 77.1155 81.1626 74.9714 82.7395 73.406C84.046 72.1089 84.7938 71.3695 84.971 71.2558C85.0479 71.2061 85.1478 71.2318 85.1948 71.3127C85.2417 71.3933 85.2176 71.4987 85.1408 71.5481C84.9843 71.6488 84.0027 72.6234 82.963 73.6554C80.826 75.7768 79.1568 77.4177 78.7242 77.6438C78.7007 77.6566 78.6759 77.662 78.6515 77.662Z" fill="#292929"/>
<path d="M97.0654 78.2159C97.0101 78.2159 96.9557 78.1857 96.925 78.1313C96.8211 77.9455 95.6077 76.5629 94.4341 75.2259C92.8849 73.4609 91.2832 71.6362 91.0407 71.2316C90.9928 71.1514 91.0156 71.0456 91.0916 70.9951C91.1684 70.9444 91.2684 70.9694 91.3164 71.0486C91.5428 71.4269 93.2061 73.3218 94.6736 74.9936C96.1684 76.6965 97.0904 77.7506 97.2061 77.9578C97.2517 78.0398 97.2256 78.1442 97.1479 78.1926C97.1221 78.2083 97.0937 78.2159 97.0654 78.2159Z" fill="#292929"/>
<path d="M155.556 21.0939C154.66 17.0961 146.405 11.9566 142.876 13.3844C139.346 14.812 143.853 16.468 143.853 16.468C138.423 15.4401 135.817 16.1254 135.273 17.5528C134.73 18.9807 137.011 19.5519 137.011 19.5519C133.319 19.666 129.192 22.693 129.789 24.8059C130.386 26.9191 132.83 26.148 132.83 26.148C129.354 29.0891 129.921 32.0801 133.548 31.7268C129.735 34.7428 129.192 40.2826 130.658 42.2813C132.124 44.2804 133.547 41.2547 133.547 41.2547C132.015 45.7079 134.296 48.6204 136.468 44.9085C135.979 49.9912 140.269 50.6764 141.627 48.1637C142.93 53.0181 146.025 52.2755 146.568 49.877C148.252 52.1042 151.564 51.3617 152.216 48.9631C154.062 51.2476 155.691 49.1629 155.528 47.3927C157.429 49.7341 160.416 50.0195 161.013 45.7652C163.728 47.8783 165.086 47.8211 164.352 42.7668C168.887 44.5086 171.276 39.1974 166.063 34.6289C169.538 35.5996 169.158 31.8303 164.189 29.5748C167.692 29.4891 168.126 26.9761 166.389 25.1202C164.651 23.2641 161.719 19.6662 155.555 21.0941L155.556 21.0939Z" fill="#292929"/>
<path d="M138.297 30.8504C137.766 34.1979 138.709 35.1906 139.652 37.5463C140.596 39.9021 139.277 42.3845 141.79 45.3262C144.133 48.0696 147.67 47.8993 147.67 47.8993L148.671 52.177L157.337 49.8209L155.451 41.2347C155.451 41.2347 157.219 40.2122 156.689 36.5541C156.158 32.8962 156.099 23.8454 147.67 25.209C139.24 26.5725 139.063 28.1843 138.297 30.8505V30.8504Z" fill="white"/>
<path d="M147.67 47.7278C147.744 47.7278 147.81 47.7812 147.828 47.8579L148.79 51.9674L157.143 49.6966L155.292 41.2731C155.276 41.1984 155.309 41.1213 155.372 41.0843C155.389 41.0751 157.033 40.0594 156.528 36.5794C156.473 36.2042 156.424 35.7718 156.37 35.3001C155.939 31.538 155.218 25.2415 149.3 25.2415C148.795 25.2415 148.255 25.2873 147.695 25.3781C139.651 26.6792 139.229 28.1673 138.529 30.6328L138.453 30.8997C138.039 33.5194 138.55 34.6529 139.258 36.2212C139.435 36.6121 139.617 37.0162 139.803 37.4798C140.166 38.3865 140.203 39.289 140.243 40.2446C140.308 41.802 140.374 43.4128 141.911 45.2117C143.958 47.6083 146.965 47.7296 147.547 47.7296C147.703 47.7296 147.665 47.728 147.67 47.728V47.7278ZM148.672 52.3481C148.642 52.3481 148.614 52.3398 148.588 52.3238C148.551 52.3005 148.524 52.2625 148.513 52.2179L147.542 48.072C146.927 48.0717 143.804 47.9398 141.668 45.4405C140.054 43.55 139.981 41.8017 139.918 40.2591C139.879 39.3353 139.842 38.4626 139.502 37.6125C139.32 37.156 139.139 36.7555 138.964 36.3679C138.258 34.804 137.701 33.569 138.136 30.822L138.216 30.5344C138.953 27.9395 139.398 26.3732 147.645 25.0393C148.222 24.9457 148.779 24.8984 149.3 24.8984C155.507 24.8984 156.249 31.3839 156.693 35.2586C156.747 35.7266 156.796 36.1553 156.85 36.5278C157.322 39.7803 156.027 41.0183 155.635 41.3123L157.496 49.7817C157.516 49.8721 157.464 49.963 157.378 49.9863L148.712 52.3424C148.699 52.3461 148.685 52.3478 148.672 52.3478L148.672 52.3481Z" fill="#292929"/>
<path d="M158.69 33.4318C158.396 31.5637 158.035 29.7966 157.117 28.1319C156.55 27.1058 156.039 26.0492 155.082 25.3654C152.393 23.4435 148.772 23.5586 145.712 24.2261C143.281 24.7565 140.576 25.6621 138.693 27.4241C138.067 28.0093 135.533 30.6666 137.174 31.4341C138.135 31.884 139.194 30.9298 139.919 30.2859C139.952 30.3829 140.004 30.4871 140.079 30.6063C140.568 31.3773 141.789 31.463 142.604 31.2917C144.722 30.949 146.758 29.4927 148.306 27.8651C147.98 28.3792 147.573 29.0644 147.736 29.7497C148.061 30.5206 148.795 30.6063 149.446 30.6063C150.831 30.5206 152.134 29.3213 153.112 28.3791C152.297 30.0067 151.401 31.6343 151.32 33.5189C151.238 34.3756 151.32 35.3178 151.645 36.0888C152.053 37.1167 152.949 37.1167 153.763 36.5172C153.356 37.8878 153.112 39.1727 153.682 40.5434C154.022 41.3602 155.094 42.7422 156.587 42.4563C157.78 42.2286 158.001 39.2861 158.433 38.2588C159.24 36.342 159.018 35.5187 158.69 33.4319L158.69 33.4318Z" fill="#292929"/>
<path d="M136.663 32.0485C135.934 32.0485 135.228 31.7758 135.032 30.9979C134.917 30.546 134.985 29.9985 135.087 29.6362C135.285 28.9311 135.894 27.9329 136.445 27.4113C136.511 27.3479 136.614 27.3535 136.675 27.424C136.735 27.4943 136.73 27.6029 136.663 27.6659C136.159 28.1436 135.58 29.0904 135.4 29.7335C135.31 30.0507 135.25 30.5264 135.347 30.9098C135.592 31.8764 136.89 31.7082 137.148 31.664C137.92 31.5332 138.493 31.347 138.95 31.0781C139.028 31.0324 139.128 31.0616 139.172 31.1442C139.216 31.2268 139.188 31.3313 139.109 31.3772C138.618 31.6665 138.011 31.8648 137.199 32.0023C137.024 32.0321 136.843 32.0485 136.663 32.0485Z" fill="white"/>
<path d="M145.261 42.1102C145.259 42.1102 145.256 42.1102 145.253 42.1098C144.181 42.0475 143.511 41.787 143.205 41.3131C142.824 40.7244 143.067 39.9562 143.302 39.2133C143.348 39.0684 143.394 38.9237 143.434 38.7822C143.795 37.5158 142.968 35.9872 142.047 35.1029C141.321 34.4049 140.394 34.2736 139.798 34.4528C139.46 34.5546 139.228 34.7551 139.161 35.0035C139.136 35.0942 139.048 35.1473 138.96 35.122C138.873 35.0959 138.823 35.0013 138.847 34.9102C138.945 34.5449 139.259 34.2582 139.709 34.1232C140.392 33.9175 141.448 34.0629 142.267 34.8499C143.294 35.8361 144.15 37.4648 143.746 38.8805C143.705 39.0255 143.658 39.1732 143.611 39.3216C143.401 39.9852 143.184 40.6719 143.474 41.1201C143.716 41.4947 144.32 41.7122 145.271 41.7676C145.361 41.7728 145.429 41.8537 145.424 41.9483C145.419 42.0394 145.347 42.1101 145.261 42.1101L145.261 42.1102Z" fill="#292929"/>
<path d="M144.763 34.5373C144.727 34.5373 144.691 34.525 144.661 34.5003C144.591 34.4413 144.579 34.3334 144.635 34.2594C145.204 33.5038 146.852 31.9407 149.853 33.7378C149.931 33.7844 149.958 33.889 149.914 33.9716C149.87 34.0535 149.77 34.0823 149.692 34.0357C147.01 32.4303 145.533 33.6201 144.89 34.4722C144.858 34.515 144.811 34.5374 144.763 34.5374L144.763 34.5373Z" fill="#292929"/>
<path d="M148.59 37.1854C148.863 37.7209 148.85 38.288 148.56 38.4515C148.27 38.6156 147.813 38.314 147.539 37.7781C147.266 37.2437 147.28 36.6765 147.569 36.5134C147.86 36.3496 148.316 36.6502 148.59 37.1854Z" fill="#292929"/>
<path d="M147.77 36.773C147.743 36.773 147.717 36.7666 147.693 36.7532L146.77 36.2364C146.691 36.1918 146.661 36.088 146.703 36.0047C146.746 35.9208 146.845 35.8903 146.924 35.9338L147.846 36.4506C147.925 36.4951 147.956 36.5986 147.913 36.6823C147.884 36.7401 147.828 36.773 147.77 36.773Z" fill="#292929"/>
<path d="M142.445 37.7444C142.718 38.2796 142.705 38.8468 142.414 39.0105C142.125 39.1743 141.667 38.8727 141.394 38.3368C141.12 37.8023 141.135 37.2351 141.424 37.0721C141.715 36.9083 142.172 37.2085 142.445 37.7444Z" fill="#292929"/>
<path d="M141.624 37.3279C141.598 37.3279 141.572 37.3214 141.547 37.308L140.625 36.7912C140.546 36.7468 140.516 36.6429 140.558 36.5592C140.6 36.4756 140.699 36.4448 140.779 36.4886L141.701 37.0054C141.78 37.0499 141.81 37.1534 141.768 37.2371C141.739 37.295 141.682 37.3279 141.624 37.3279Z" fill="#292929"/>
<path d="M144.627 43.0122C145.148 44.0776 145.77 44.6816 146.356 44.6816C147.196 44.6816 147.862 43.4734 148.089 41.5717C146.047 42.9385 145.364 43.067 144.627 43.0122ZM146.356 45.0244C145.579 45.0244 144.815 44.2654 144.206 42.8869C144.181 42.8311 144.187 42.7656 144.221 42.7152C144.255 42.6652 144.311 42.6381 144.37 42.644C144.537 42.6614 144.709 42.6796 144.878 42.6796C145.507 42.6796 146.252 42.4196 148.199 41.0901C148.252 41.0542 148.319 41.0535 148.372 41.0871C148.426 41.1209 148.456 41.1841 148.45 41.2495C148.247 43.5782 147.444 45.0245 146.356 45.0245V45.0244Z" fill="#292929"/>
<path d="M145.901 44.8942C145.887 44.8942 145.872 44.8925 145.858 44.8884C145.771 44.8634 145.72 44.7692 145.744 44.6777C146.031 43.5705 147.2 42.7434 147.97 42.791C148.06 42.7971 148.128 42.8783 148.123 42.973C148.117 43.0672 148.047 43.1392 147.95 43.1333C147.295 43.0891 146.3 43.8367 146.058 44.7681C146.039 44.8441 145.973 44.8942 145.901 44.8942H145.901Z" fill="#292929"/>
<path d="M126.316 74.0131C127.863 72.4327 135.246 62.1572 138.12 58.4836C140.993 54.8103 144.309 54.7174 148.819 54.6708C147.709 49.9915 148.003 49.888 148.225 49.9342C148.445 49.9808 152.658 50.9475 156.859 47.8783C157.972 47.5645 157.926 52.2533 158.988 52.8574C160.049 53.4622 167.122 51.9275 170.615 55.6011C172.763 57.8593 174.509 62.0156 175.535 64.8824C175.332 65.356 175.12 65.8241 174.899 66.2861C170.817 74.8203 158.223 77.0753 145.5 76.6027C145.179 75.1607 142.981 72.9341 142.32 70.1078C140.352 72.8112 138.795 75.0113 138.072 76.0378C133.91 75.5682 129.916 74.8713 126.405 74.0801C126.375 74.0578 126.344 74.0356 126.315 74.013L126.316 74.0131Z" fill="#7951AF"/>
<path d="M152.202 56.0845C150.426 56.0845 149.188 55.3289 148.701 54.7938C148.639 54.7252 148.641 54.6169 148.706 54.5515C148.771 54.4861 148.874 54.4888 148.937 54.557C149.85 55.5613 153.598 57.3656 158.658 52.6411C158.725 52.5781 158.828 52.5842 158.888 52.6555C158.948 52.7261 158.942 52.8344 158.874 52.8974C156.258 55.3401 153.965 56.0844 152.202 56.0844L152.202 56.0845Z" fill="#292929"/>
<path d="M151.265 56.0389C151.195 56.0389 151.131 55.9914 151.109 55.9173C151.051 55.7134 149.661 50.9128 149.515 50.2327C149.495 50.1404 149.55 50.0487 149.638 50.0277C149.726 50.0068 149.812 50.0647 149.833 50.1568C149.977 50.8247 151.407 55.7679 151.421 55.8175C151.447 55.908 151.399 56.0039 151.313 56.0314C151.297 56.0364 151.281 56.0389 151.265 56.0389H151.265Z" fill="#292929"/>
<path d="M153.181 56.0066C153.112 56.0066 153.048 55.9598 153.025 55.8864L151.316 50.152C151.29 50.062 151.337 49.9656 151.423 49.9372C151.509 49.9098 151.6 49.9595 151.627 50.0496L153.337 55.7839C153.363 55.8743 153.316 55.9703 153.23 55.9987C153.214 56.0039 153.198 56.0066 153.181 56.0066H153.181Z" fill="#292929"/>
<path d="M155.185 55.3877C155.117 55.3877 155.053 55.3418 155.031 55.2699L153.321 49.7833C153.293 49.6936 153.34 49.5966 153.425 49.5671C153.509 49.5377 153.603 49.587 153.631 49.6768L155.34 55.1631C155.369 55.2531 155.322 55.3497 155.236 55.3792C155.219 55.385 155.202 55.3878 155.185 55.3878L155.185 55.3877Z" fill="#292929"/>
<path d="M157.013 54.3946C156.943 54.3946 156.878 54.3464 156.857 54.2716L155.413 49.1264C155.387 49.0356 155.436 48.9403 155.522 48.9136C155.608 48.8862 155.699 48.9382 155.725 49.0293L157.169 54.1747C157.195 54.2654 157.145 54.3607 157.059 54.3874C157.044 54.3922 157.029 54.3946 157.013 54.3946Z" fill="#292929"/>
<path d="M147.716 48.1028C147.699 48.1028 147.682 48.1025 147.665 48.1021C147.575 48.1001 147.504 48.0213 147.506 47.9266C147.508 47.832 147.574 47.7591 147.673 47.7595C148.828 47.8019 151.93 46.7359 153.909 44.165C153.966 44.0914 154.068 44.0804 154.138 44.1396C154.208 44.1992 154.219 44.3072 154.163 44.3805C152.141 47.0059 148.958 48.1027 147.716 48.1027V48.1028Z" fill="#292929"/>
<path d="M142.939 72.0023C142.876 72.0023 142.817 71.9639 142.789 71.8999C141.711 69.3197 141.627 66.746 141.627 66.019C141.627 65.924 141.7 65.8477 141.79 65.8477C141.879 65.8477 141.952 65.924 141.952 66.019C141.952 66.5247 142.007 69.1782 143.088 71.7619C143.124 71.8486 143.087 71.9496 143.005 71.9881C142.983 71.9976 142.961 72.0024 142.939 72.0024V72.0023Z" fill="#292929"/>
<path d="M166.168 73.8581C165.695 72.1708 164.87 69.2501 164.447 67.8842C164.419 67.7945 164.466 67.6978 164.551 67.6684C164.639 67.6396 164.729 67.6886 164.757 67.7784C165.179 69.1391 165.997 72.036 166.472 73.7297C166.371 73.7728 166.27 73.816 166.168 73.8581Z" fill="#292929"/>
<path d="M155.998 42.7564C155.493 42.7564 154.91 42.5803 154.285 42.236C154.205 42.1921 154.175 42.0886 154.216 42.0046C154.258 41.9204 154.358 41.8888 154.436 41.9323C155.18 42.3421 155.847 42.4953 156.362 42.374C157.573 42.0842 158.077 39.8511 158.077 38.72C158.077 38.6466 158.121 38.5811 158.187 38.5575C158.253 38.5342 158.326 38.5575 158.369 38.6154C158.923 39.3734 159.575 39.7266 160.421 39.7266C161.246 39.6684 162.044 38.7079 162.146 37.9519C162.159 37.8584 162.243 37.792 162.33 37.8067C162.419 37.8201 162.481 37.9068 162.469 38.0006C162.347 38.8998 161.43 39.999 160.432 40.069C160.431 40.069 160.431 40.069 160.43 40.069C159.615 40.069 158.945 39.7709 158.385 39.1595C158.273 40.5621 157.645 42.4189 156.433 42.7081C156.296 42.7403 156.151 42.7563 155.998 42.7563V42.7564Z" fill="white"/>
<path d="M143.415 0.362165C137.872 0.362165 131.608 1.12769 124.799 2.63703C110.405 5.82858 95.7917 11.9353 96.5492 33.0326C97.3188 54.4698 104.84 67.2319 119.543 72.0493C126.292 74.2608 137.904 76.4926 148.631 76.4929C148.633 76.4929 148.634 76.4929 148.635 76.4929C158.307 76.4929 170.689 74.7091 174.754 66.2112C178.846 57.6562 179.553 47.8021 179.425 41.0418C179.279 33.2832 177.917 25.4066 175.87 20.486C173.581 14.9823 167.5 0.362262 143.415 0.362262L143.415 0.362165ZM148.635 76.8356C148.633 76.8356 148.633 76.8356 148.631 76.8356C137.132 76.8353 125.723 74.4333 119.446 72.3766C104.595 67.511 96.9988 54.6456 96.2234 33.0457C95.8634 23.007 99.1199 15.253 105.904 9.99903C111.519 5.64974 118.573 3.66744 124.732 2.30202C131.563 0.787467 137.849 0.0195312 143.415 0.0195312C153.451 0.0195312 161.486 2.51105 167.296 7.42397C172.077 11.4666 174.549 16.4547 176.169 20.3486C178.231 25.3079 179.604 33.2345 179.751 41.035C179.879 47.8339 179.167 57.7473 175.045 66.3651C170.906 75.0182 158.399 76.8356 148.635 76.8356Z" fill="#292929"/>
<path d="M110.794 17.7656H98.0224C95.8022 17.7656 94.1057 19.7739 94.2412 22.2016L94.5856 28.3728C94.7107 30.6219 96.5024 32.3859 98.5798 32.3527L107.821 32.2065C108.303 33.7146 108.657 35.1817 109.581 35.1101C110.242 35.0419 110.525 33.5706 110.714 32.1513C112.652 32.0249 114.248 30.2876 114.321 28.1456L114.529 22.1046C114.611 19.729 112.943 17.7656 110.794 17.7656H110.794Z" fill="white"/>
<path d="M107.821 32.0384C107.891 32.0384 107.953 32.085 107.976 32.1553C108.024 32.3057 108.071 32.456 108.117 32.6045C108.519 33.8922 108.873 34.9993 109.569 34.9427C110.188 34.8787 110.453 32.8824 110.553 32.1306C110.564 32.05 110.627 31.9884 110.704 31.9836C112.572 31.8616 114.089 30.1747 114.158 28.1428L114.366 22.1018C114.406 20.96 114.014 19.8536 113.293 19.0669C112.626 18.3404 111.739 17.9403 110.795 17.9403H98.0227C97.0342 17.9403 96.1157 18.3573 95.4364 19.1146C94.7163 19.9181 94.34 21.041 94.4042 22.195L94.7486 28.3663C94.8659 30.4719 96.5586 32.1852 98.5222 32.1852L98.5776 32.1848L107.819 32.0385C107.82 32.0385 107.82 32.0385 107.821 32.0385L107.821 32.0384ZM109.517 35.2875C108.612 35.2875 108.239 34.0934 107.808 32.7114C107.774 32.6025 107.739 32.4928 107.704 32.3828L98.5221 32.5278C96.3528 32.5278 94.5526 30.7086 94.4233 28.3865L94.0789 22.2153C94.0095 20.9673 94.4177 19.7512 95.1994 18.8795C95.9406 18.0527 96.9432 17.5977 98.0226 17.5977H110.795C111.828 17.5977 112.799 18.0349 113.527 18.8292C114.31 19.6824 114.734 20.88 114.692 22.1142L114.484 28.1553C114.411 30.3129 112.829 32.1125 110.857 32.3144C110.65 33.8279 110.347 35.2067 109.597 35.2842C109.567 35.2866 109.542 35.2876 109.517 35.2876L109.517 35.2875Z" fill="#292929"/>
<path d="M100.483 25.2507C100.483 25.9953 99.922 26.5989 99.2307 26.5989C98.539 26.5989 97.9783 25.9953 97.9783 25.2507C97.9783 24.5057 98.539 23.9023 99.2307 23.9023C99.922 23.9023 100.483 24.5057 100.483 25.2507ZM104.18 26.5989C103.489 26.5989 102.928 25.9953 102.928 25.2507C102.928 24.5057 103.489 23.9023 104.18 23.9023C105.826 23.9023 105.826 26.5989 104.18 26.5989ZM110.383 25.2507C110.383 25.9953 109.822 26.5989 109.131 26.5989C108.439 26.5989 107.878 25.9953 107.878 25.2507C107.878 24.5057 108.439 23.9023 109.131 23.9023C109.822 23.9023 110.383 24.5057 110.383 25.2507Z" fill="#006BFF"/>
<path d="M151.872 133.815H139.19C139.1 133.815 139.027 133.739 139.027 133.644C139.027 133.549 139.1 133.473 139.19 133.473H151.872C151.962 133.473 152.034 133.549 152.034 133.644C152.034 133.739 151.962 133.815 151.872 133.815Z" fill="#292929"/>
<path d="M114.394 85.2692C110.636 83.3633 109.929 79.0853 115.411 77.458C111.564 72.483 115.455 69.6003 118.063 69.0421C120.672 68.4842 125.845 69.8792 130.84 74.3892C135.836 78.8992 138.003 79.1319 139.506 82.6657C141.009 86.1995 140.302 88.9428 138.798 92.5228C137.295 96.1032 137.118 97.2189 140.036 100.102C142.954 102.985 145.341 105.868 143.308 111.308C141.274 116.748 116.958 114.748 115.808 111.028C114.659 107.309 117.4 93.6851 117.4 93.6851L114.394 85.2692H114.394Z" fill="#292929"/>
<path d="M111.609 107.54C111.034 104.889 111.701 98.8043 116.737 95.7758C120.41 93.5671 122.352 96.6595 122.352 96.6595L122.927 106.842C122.927 106.842 112.846 107.586 111.609 107.54Z" fill="#292929"/>
<path d="M83.3129 92.245C82.8711 91.5939 82.2091 90.7033 81.59 91.1683C80.9714 91.6333 81.9566 95.4086 84.7279 94.9416C84.0203 93.8259 83.3129 92.245 83.3129 92.245Z" fill="white"/>
<path d="M81.9526 91.2059C81.8595 91.2059 81.7718 91.2377 81.6848 91.3032C81.5636 91.394 81.5069 91.8837 81.7148 92.5663C82.0442 93.6487 82.887 94.8056 84.2632 94.8056H84.2636C84.3242 94.8056 84.386 94.8032 84.4483 94.7991C83.7925 93.7098 83.1721 92.3283 83.1656 92.3135C82.95 92.0007 82.4104 91.206 81.9526 91.206V91.2059ZM84.2636 95.1481H84.2632C82.7101 95.1481 81.7523 93.8136 81.4043 92.6708C81.2238 92.0783 81.1397 91.2916 81.4955 91.0244C81.6376 90.9174 81.7917 90.8633 81.9526 90.8633C82.5023 90.8633 82.9949 91.4774 83.4455 92.1407C83.4677 92.1832 84.171 93.7502 84.8635 94.8422C84.8944 94.8905 84.8996 94.9522 84.8771 95.0058C84.8549 95.0592 84.8083 95.0973 84.7537 95.1065C84.5882 95.1342 84.4233 95.1482 84.2636 95.1482V95.1481Z" fill="#292929"/>
<path d="M91.1382 92.6637C89.6352 92.1522 88.6624 90.897 89.1492 89.8739C89.6352 88.8514 91.2269 90.1993 92.3321 91.1294C93.4376 92.0593 94.4988 92.2455 94.4988 92.2455C94.4988 92.2455 92.8625 93.1288 91.1383 92.6638L91.1382 92.6637Z" fill="white"/>
<path d="M89.7061 89.6786C89.5136 89.6786 89.3829 89.7649 89.2949 89.9499C89.1509 90.2522 89.1483 90.5821 89.287 90.9303C89.5497 91.5888 90.2782 92.1905 91.1885 92.5003C91.4983 92.5832 91.8385 92.6271 92.1904 92.6271C92.9299 92.6271 93.5872 92.4341 93.9941 92.28C93.568 92.1315 92.9092 91.8334 92.2305 91.2626C91.4237 90.5835 90.3476 89.6785 89.7061 89.6785V89.6786ZM92.1904 92.9698C91.8112 92.9698 91.444 92.9226 91.098 92.8293C90.0901 92.4867 89.2851 91.8106 88.9867 91.0629C88.8121 90.6247 88.8179 90.1871 89.0033 89.7965C89.1467 89.4949 89.3898 89.3359 89.7061 89.3359C90.462 89.3359 91.5437 90.2461 92.413 90.9772C93.4898 91.8829 94.5155 92.0741 94.5258 92.0758C94.5946 92.0881 94.6486 92.1457 94.6597 92.2187C94.6702 92.2916 94.6353 92.3632 94.5731 92.3969C94.5298 92.4205 93.4972 92.9698 92.1904 92.9698Z" fill="#292929"/>
<path d="M92.7153 106.937C92.5978 104.208 92.3029 98.7531 91.8904 97.0172C91.4773 95.2813 88.883 95.7765 88.7065 95.7151C88.5299 95.6532 85.3024 96.9394 83.7108 93.5454C82.1188 90.1507 83.4012 88.8952 84.2855 89.2208C84.595 88.1051 85.4793 88.4306 85.9654 88.9884C86.4078 88.0118 87.6896 89.0354 87.9991 90.2905C88.3087 91.5461 88.6181 92.6617 91.0937 92.3362C93.5699 92.0106 96.6203 91.2667 97.814 95.0328C99.0078 98.7994 99.9807 104.658 99.9807 104.658C99.9807 104.658 99.5093 108.378 92.7153 106.937Z" fill="white"/>
<path d="M92.8725 106.798C93.8518 106.999 94.7518 107.101 95.5491 107.101C99.2562 107.101 99.7694 104.913 99.8156 104.662C99.7393 104.21 98.7932 98.666 97.66 95.0908C96.8553 92.5521 95.1978 92.2265 93.8441 92.2265C93.1282 92.2265 92.3871 92.3314 91.6702 92.4328C91.4825 92.4596 91.2969 92.4856 91.1144 92.5095C90.8192 92.5487 90.5441 92.5682 90.2966 92.5682C88.3921 92.5682 88.0999 91.3826 87.8419 90.3371C87.625 89.4568 86.9377 88.7743 86.4914 88.7743C86.3257 88.7743 86.2017 88.8696 86.1129 89.0656C86.0898 89.117 86.0435 89.1529 85.9901 89.1612C85.9357 89.1702 85.8826 89.1499 85.8457 89.1078C85.6004 88.8261 85.2892 88.6513 85.0335 88.6513C84.7555 88.6513 84.5567 88.8604 84.4424 89.2722C84.4298 89.3174 84.4002 89.3551 84.3603 89.3766C84.3206 89.3982 84.274 89.4009 84.2323 89.3859C83.9127 89.2691 83.5546 89.4229 83.3467 89.7748C83.1415 90.122 82.7809 91.1766 83.8572 93.4732C84.5617 94.9746 85.6861 95.7356 87.2001 95.7356C87.7266 95.7356 88.1698 95.6427 88.4344 95.5872C88.5598 95.5608 88.6354 95.5447 88.6891 95.5447C88.7064 95.5447 88.742 95.5498 88.7586 95.5557C88.8192 95.5527 88.886 95.5492 88.9694 95.5444C89.1134 95.5365 89.3037 95.5263 89.5183 95.5263C90.9682 95.5263 91.8196 96.0153 92.049 96.9792C92.492 98.8439 92.785 104.798 92.8727 106.798H92.8725ZM95.5491 107.443C94.6964 107.443 93.7324 107.33 92.6835 107.108C92.6102 107.092 92.5564 107.026 92.5528 106.948C92.4733 105.103 92.1788 98.9399 91.7327 97.0624C91.5441 96.2706 90.7993 95.869 89.5181 95.869C89.3099 95.869 89.1256 95.879 88.9861 95.8868C88.8245 95.8954 88.7352 95.8991 88.6805 95.8881C88.6453 95.8909 88.5831 95.9056 88.498 95.923C88.2214 95.9813 87.7587 96.0782 87.2 96.0782C85.5748 96.0782 84.3179 95.2298 83.5651 93.6241C82.4574 91.2623 82.7792 90.0852 83.0696 89.5942C83.3257 89.1611 83.7568 88.9415 84.1797 89.0189C84.4041 88.4052 84.8039 88.3086 85.0333 88.3086C85.3281 88.3086 85.6543 88.4594 85.9348 88.7201C86.0766 88.5327 86.2684 88.4315 86.4913 88.4315C87.1398 88.4315 87.9184 89.2817 88.1573 90.2507C88.4186 91.3102 88.6444 92.2254 90.2965 92.2254C90.5305 92.2254 90.792 92.2069 91.0739 92.1696C91.2554 92.1459 91.4401 92.1198 91.6267 92.0936C92.354 91.9905 93.1059 91.8839 93.8439 91.8839C95.1928 91.8839 97.0886 92.2053 97.969 94.9821C99.153 98.7174 100.132 104.573 100.141 104.632C100.144 104.649 100.144 104.666 100.142 104.684C100.139 104.712 99.7433 107.443 95.5488 107.443H95.5491Z" fill="#292929"/>
<path d="M84.9704 95.3628C84.9355 95.3628 84.9007 95.3512 84.8711 95.3271C83.8699 94.5137 83.2058 93.2979 82.897 91.7138C82.8787 91.6209 82.9354 91.5305 83.0237 91.5113C83.1131 91.4925 83.1981 91.5521 83.216 91.645C83.5088 93.1461 84.1328 94.294 85.0701 95.0561C85.1415 95.114 85.1545 95.2213 85.0995 95.2963C85.0676 95.3402 85.0193 95.3628 84.9704 95.3628Z" fill="#292929"/>
<path d="M89.1488 94.7391C89.1465 94.7391 89.144 94.7391 89.1416 94.7391C88.231 94.6973 87.4767 94.2878 86.9 93.5213C85.7968 92.0554 85.6718 89.6935 85.8053 88.9558C85.8219 88.8632 85.9064 88.8012 85.9959 88.8197C86.0842 88.8371 86.1422 88.9269 86.1252 89.0201C86.0041 89.6896 86.1321 91.9488 87.1555 93.3084C87.6709 93.9934 88.3437 94.3597 89.1556 94.3964C89.2456 94.4009 89.3153 94.4807 89.3114 94.575C89.3075 94.6672 89.2354 94.7391 89.1488 94.7391Z" fill="#292929"/>
<path d="M87.425 95.9963C87.4205 95.9963 87.4159 95.996 87.4114 95.9957C86.5603 95.921 85.8501 95.5039 85.3004 94.7556C83.9997 92.9848 84.0073 89.9064 84.1253 89.1932C84.1408 89.0997 84.2246 89.036 84.3138 89.0538C84.4025 89.0699 84.4618 89.1586 84.4465 89.2518C84.3337 89.9324 84.3243 92.8659 85.5584 94.5462C86.0498 95.2151 86.6822 95.5882 87.4384 95.6544C87.528 95.662 87.5948 95.7451 87.5873 95.8394C87.58 95.9288 87.5088 95.9963 87.425 95.9963Z" fill="#292929"/>
<path d="M118.063 110.008C119.522 110.705 123.766 112.286 131.459 110.24C131.194 115.82 130.663 127.584 130.663 127.584C130.663 127.584 124.253 131.396 119.964 129.815C118.77 127.676 118.063 110.008 118.063 110.008H118.063Z" fill="#006BFF"/>
<path d="M119.376 105.589C120.658 105.403 122.042 104.89 121.909 102.658C121.777 100.426 121.423 97.4965 121.423 97.4965C118.107 97.4503 114.835 95.6365 113.333 92.0565C111.829 88.4765 113.819 86.6165 114.924 82.8966C116.03 79.1772 118.107 76.1084 122.75 76.4339C127.392 76.759 129.867 79.084 129.867 79.084C129.072 83.4546 128.276 89.6388 130 90.0108C131.724 90.3827 132.167 87.1747 132.167 87.1747C134.775 85.826 137.507 87.467 136.455 89.8711C135.173 92.8004 132.122 91.3126 132.122 91.3126C131.504 92.9864 128.895 94.8461 128.895 94.8461C129.293 98.287 129.689 103.979 132.165 104.304C131.148 109.744 130.619 111.725 130.619 111.725C130.619 111.725 121.733 114.003 118.505 110.655C118.638 109.493 119.376 105.589 119.376 105.589V105.589Z" fill="white"/>
<path d="M118.677 110.591C119.823 111.732 121.797 112.31 124.546 112.31C127.303 112.31 129.962 111.707 130.488 111.581C130.602 111.126 131.11 109.041 131.972 104.442C129.727 103.924 129.213 99.2344 128.836 95.7873C128.801 95.4677 128.767 95.1589 128.733 94.8666C128.726 94.8025 128.753 94.7401 128.804 94.7038C128.829 94.686 131.377 92.8545 131.971 91.2499C131.987 91.2061 132.02 91.171 132.062 91.1532C132.103 91.1355 132.15 91.1372 132.191 91.1567C132.198 91.1603 132.946 91.5185 133.83 91.5185C134.974 91.5185 135.808 90.9401 136.307 89.7991C136.61 89.1079 136.597 88.4581 136.268 87.9199C135.864 87.2562 135.044 86.86 134.074 86.86C133.491 86.86 132.884 87.0081 132.314 87.2901C132.229 87.8028 131.753 90.2119 130.272 90.2119C130.173 90.2119 130.07 90.2005 129.967 90.1783C128.515 89.8648 128.421 86.1545 129.69 79.1506C129.259 78.7847 126.845 76.8922 122.739 76.6043C118.882 76.3347 116.449 78.3402 115.08 82.9475C114.763 84.0129 114.367 84.9445 114.018 85.7662C113.133 87.8485 112.434 89.4926 113.482 91.9867C114.843 95.23 117.887 97.2753 121.426 97.3247C121.507 97.3257 121.575 97.3895 121.585 97.4745C121.588 97.5036 121.941 100.435 122.072 102.646C122.211 104.991 120.714 105.548 119.514 105.741C119.393 106.386 118.816 109.48 118.677 110.591H118.677ZM124.546 112.652C121.662 112.652 119.591 112.021 118.391 110.777C118.355 110.739 118.338 110.687 118.344 110.635C118.475 109.479 119.186 105.715 119.217 105.555C119.23 105.483 119.285 105.429 119.354 105.419C120.607 105.237 121.871 104.768 121.747 102.668C121.633 100.75 121.352 98.2855 121.279 97.6643C117.672 97.5609 114.579 95.4491 113.184 92.1253C112.078 89.4916 112.802 87.7863 113.72 85.6265C114.083 84.7736 114.457 83.8916 114.768 82.8452C116.17 78.1292 118.777 75.9829 122.76 76.2624C127.405 76.5879 129.873 78.8594 129.976 78.9556C130.018 78.9961 130.038 79.0567 130.027 79.1157C128.833 85.6744 128.835 89.5841 130.033 89.8425C130.114 89.8602 130.195 89.8692 130.272 89.8692C131.615 89.8692 132.002 87.1769 132.005 87.1495C132.013 87.0933 132.046 87.0454 132.094 87.0207C132.731 86.6914 133.416 86.5173 134.074 86.5173C135.155 86.5173 136.078 86.9723 136.543 87.7348C136.928 88.3674 136.949 89.1513 136.603 89.9421C135.909 91.5282 134.711 91.861 133.829 91.861C133.11 91.861 132.488 91.6479 132.209 91.5352C131.552 93.0414 129.512 94.6012 129.068 94.9278C129.098 95.19 129.129 95.4647 129.159 95.7482C129.534 99.1685 130.046 103.853 132.185 104.134C132.229 104.139 132.27 104.165 132.296 104.203C132.323 104.242 132.333 104.29 132.324 104.337C131.318 109.722 130.781 111.751 130.776 111.77C130.76 111.83 130.715 111.876 130.657 111.891C130.628 111.898 127.65 112.652 124.546 112.652H124.546Z" fill="#292929"/>
<path d="M118.328 89.994C118.301 89.994 118.273 89.9866 118.248 89.9716C117.315 89.4127 116.826 88.8648 116.753 88.2971C116.662 87.592 117.206 87.019 117.731 86.4645C117.834 86.3563 117.936 86.2483 118.033 86.1404C118.893 85.1768 118.802 83.4207 118.353 82.1964C118.161 81.6719 117.836 81.3611 117.388 81.273C116.796 81.1589 116.158 81.4666 115.855 81.8165C115.795 81.8867 115.692 81.8918 115.625 81.8281C115.559 81.7647 115.554 81.6562 115.614 81.5862C115.985 81.1573 116.733 80.7982 117.448 80.9363C117.837 81.0127 118.364 81.272 118.657 82.0736C119.158 83.438 119.233 85.2976 118.27 86.3753C118.172 86.4853 118.067 86.5956 117.962 86.7066C117.492 87.2021 117.007 87.7144 117.076 88.2513C117.134 88.6998 117.582 89.1782 118.409 89.674C118.487 89.7205 118.515 89.8255 118.47 89.9074C118.44 89.9628 118.385 89.9941 118.328 89.9941L118.328 89.994Z" fill="#292929"/>
<path d="M126.316 84.1986C126.263 84.1986 126.212 84.1718 126.181 84.1225C124.462 81.4262 122.635 81.7976 121.698 82.2606C121.618 82.3006 121.52 82.264 121.482 82.1779C121.444 82.0923 121.479 81.9902 121.56 81.9501C122.39 81.5414 124.528 80.915 126.451 83.932C126.501 84.0105 126.481 84.117 126.406 84.1695C126.379 84.1893 126.347 84.1986 126.316 84.1986H126.316Z" fill="#292929"/>
<path d="M123.691 86.6402C123.519 87.2199 123.124 87.6071 122.81 87.5044C122.496 87.4009 122.381 86.8468 122.553 86.2667C122.725 85.6867 123.119 85.2998 123.433 85.4036C123.748 85.5067 123.863 86.0598 123.691 86.6402Z" fill="#292929"/>
<path d="M123.516 85.7831C123.445 85.7831 123.38 85.7352 123.36 85.6604L123.065 84.6065C123.039 84.5152 123.089 84.4204 123.175 84.3937C123.262 84.3672 123.352 84.4184 123.377 84.5095L123.672 85.5635C123.698 85.6542 123.648 85.7495 123.562 85.7763C123.546 85.781 123.531 85.783 123.516 85.783V85.7831Z" fill="#292929"/>
<path d="M117.251 85.3707C117.079 85.9504 116.684 86.3373 116.37 86.2346C116.056 86.1315 115.941 85.577 116.113 84.9973C116.285 84.4168 116.68 84.0303 116.994 84.134C117.307 84.2371 117.424 84.7902 117.251 85.3707Z" fill="#292929"/>
<path d="M117.076 84.5103C117.006 84.5103 116.94 84.4624 116.92 84.3876L116.625 83.3333C116.599 83.242 116.649 83.1472 116.735 83.1205C116.821 83.0934 116.912 83.1452 116.937 83.2362L117.232 84.291C117.258 84.3813 117.208 84.4766 117.122 84.5034C117.106 84.5082 117.091 84.5102 117.076 84.5102V84.5103Z" fill="#292929"/>
<path d="M117.202 90.9956C117.199 91.8763 117.35 92.5068 117.644 92.8302C118.264 93.5105 119.644 92.8152 121.119 91.1793C119.541 91.5045 117.955 91.4095 117.202 90.9956ZM118.264 93.4374C117.92 93.4374 117.633 93.313 117.409 93.067C117.013 92.6322 116.836 91.8259 116.884 90.6719C116.887 90.6053 116.926 90.5464 116.984 90.521C117.043 90.4954 117.11 90.5077 117.157 90.5526C117.39 90.7773 118.075 91.0391 119.238 91.0391C119.963 91.0391 120.761 90.9322 121.547 90.7298C121.617 90.7119 121.689 90.7435 121.725 90.8072C121.762 90.8714 121.755 90.9528 121.708 91.009C120.419 92.5523 119.163 93.4374 118.264 93.4374H118.264Z" fill="#292929"/>
<path d="M117.577 93.1298C117.55 93.1298 117.521 93.1222 117.496 93.1067C117.418 93.0599 117.391 92.955 117.436 92.8731C117.819 92.172 119.375 91.7348 120.304 92.0657C120.389 92.0962 120.435 92.1935 120.406 92.283C120.378 92.3727 120.284 92.4203 120.2 92.3905C119.359 92.0904 118.002 92.5239 117.718 93.0437C117.688 93.0988 117.633 93.1297 117.577 93.1297V93.1298Z" fill="#292929"/>
<path d="M121.354 97.6815C121.258 97.6805 121.172 97.6109 121.172 97.5095C121.173 97.415 121.245 97.3389 121.335 97.3389C121.343 97.3382 121.348 97.3389 121.354 97.3389C123.005 97.3389 125.666 96.3377 127.448 95.3443C127.528 95.2998 127.626 95.3317 127.668 95.4152C127.71 95.4992 127.68 95.6026 127.601 95.6469C125.783 96.6602 123.058 97.6816 121.354 97.6816L121.354 97.6815Z" fill="#292929"/>
<path d="M92.5977 106.144C93.349 106.423 97.0187 106.423 99.9811 104.656C100.467 107.493 102.28 115.955 102.28 115.955C104.8 113.072 108.292 109.678 109.884 108.237C111.476 106.795 113.907 105.4 116.295 105.493C118.682 105.586 119.92 105.447 119.92 105.447C119.92 105.447 118.019 108.981 118.992 118.791C119.964 128.602 120.274 129.904 120.274 129.904L117.002 129.579C117.002 129.579 117.665 127.393 115.676 124.883C113.686 122.371 113.111 120.791 112.846 118.931C110.724 121.209 105.065 127.533 100.335 127.579C95.604 127.625 93.9238 123.162 93.2607 117.582C92.5976 112.003 92.5977 106.144 92.5977 106.144H92.5977Z" fill="#011B6D"/>
<path d="M129.029 127.52C127.702 127.938 121.998 129.719 119.389 129.533C116.781 129.347 114.084 127.999 111.962 128.557C109.84 129.115 106.2 131.928 106.458 133.044C106.657 133.904 107.629 133.439 107.629 133.439C107.983 134.229 108.69 133.811 108.69 133.811C109.044 134.602 110.68 134.137 111.653 133.253C112.625 132.37 113.819 131.905 115.322 132.463C116.825 133.021 119.168 133.811 121.909 133.951C124.651 134.09 131.106 133.773 131.106 133.773C131.106 133.773 132.079 129.751 129.029 127.52Z" fill="white"/>
<path d="M108.69 133.639C108.707 133.639 108.724 133.642 108.74 133.648C108.783 133.662 108.819 133.694 108.838 133.737C108.951 133.991 109.245 134.044 109.472 134.044C110.097 134.044 110.949 133.665 111.546 133.123C112.723 132.053 113.985 131.784 115.376 132.3C117.042 132.918 119.29 133.645 121.917 133.779C122.378 133.802 122.976 133.814 123.696 133.814C126.44 133.814 130.238 133.642 130.973 133.607C131.098 132.931 131.554 129.635 128.999 127.707C126.428 128.515 121.703 129.87 119.378 129.703C118.342 129.629 117.295 129.375 116.282 129.129C115.147 128.853 114.075 128.593 113.087 128.593C112.687 128.593 112.332 128.635 112.001 128.722C109.867 129.283 106.394 132.043 106.616 133.002C106.677 133.268 106.827 133.392 107.087 133.392C107.327 133.392 107.56 133.283 107.562 133.282C107.643 133.244 107.739 133.281 107.776 133.365C107.893 133.623 108.055 133.749 108.273 133.749C108.455 133.749 108.61 133.661 108.611 133.66C108.636 133.646 108.663 133.639 108.69 133.639V133.639ZM109.472 134.386C109.009 134.386 108.759 134.213 108.625 134.026C108.535 134.059 108.411 134.092 108.273 134.092C108.057 134.092 107.766 134.011 107.554 133.651C107.438 133.69 107.267 133.735 107.087 133.735C106.676 133.735 106.397 133.504 106.299 133.083C105.991 131.751 109.885 128.925 111.922 128.39C112.28 128.296 112.66 128.25 113.087 128.25C114.113 128.25 115.202 128.515 116.355 128.795C117.356 129.038 118.39 129.29 119.4 129.362C121.696 129.528 126.452 128.153 128.982 127.355C129.029 127.34 129.081 127.349 129.121 127.378C132.229 129.651 131.274 133.773 131.263 133.814C131.246 133.888 131.185 133.94 131.113 133.943C131.07 133.946 126.739 134.156 123.697 134.156C123.696 134.156 123.697 134.156 123.696 134.156C122.971 134.156 122.367 134.144 121.901 134.121C119.232 133.985 116.954 133.249 115.268 132.623C113.989 132.149 112.847 132.394 111.759 133.382C111.108 133.973 110.168 134.386 109.472 134.386L109.472 134.386Z" fill="#292929"/>
<path d="M136.588 125.948L136.897 122.042L137.914 125.669L136.588 125.948ZM149.055 124.228C147.11 118.741 145.43 112.79 143.838 110.093C142.247 107.396 140.346 104.885 136.809 104.513C134.245 104.327 131.945 104.234 131.945 104.234C131.105 106.559 128.409 117.811 129.823 127.25C129.204 127.25 128.762 127.622 128.762 127.622C130.177 128.831 130.973 131.016 130.619 133.946C136.765 134.457 143.263 133.434 145.386 132.876C147.508 132.318 151.001 129.715 149.055 124.228V124.228Z" fill="#011B6D"/>
<path d="M90.2241 92.5363C90.1388 92.5363 90.0671 92.4664 90.0616 92.3757C90.0561 92.2814 90.1245 92.2002 90.214 92.194C90.5177 92.1743 90.8832 92.1379 91.2817 92.0984C92.6175 91.9655 94.2805 91.8013 95.2742 92.0707C95.3615 92.0944 95.4136 92.1879 95.3915 92.2794C95.3687 92.3709 95.2805 92.426 95.1928 92.4028C94.2527 92.1472 92.6224 92.3095 91.3119 92.4394C90.9099 92.4792 90.5407 92.5161 90.2345 92.5361C90.2309 92.5364 90.2272 92.5364 90.224 92.5364L90.2241 92.5363Z" fill="#292929"/>
<path d="M112.978 119.891C112.902 119.891 112.835 119.834 112.819 119.753C112.524 118.197 112.854 116.202 113.313 114.916C113.344 114.828 113.439 114.781 113.523 114.816C113.607 114.849 113.65 114.948 113.618 115.037C113.288 115.963 112.815 117.984 113.138 119.686C113.156 119.779 113.099 119.869 113.011 119.887C113 119.889 112.989 119.891 112.978 119.891Z" fill="#292929"/>
<path d="M128.861 127.673C128.789 127.673 128.723 127.623 128.703 127.546C128.68 127.455 128.732 127.361 128.819 127.337C130.249 126.939 139.207 125.09 142.366 124.805C142.454 124.797 142.534 124.867 142.542 124.961C142.549 125.056 142.483 125.139 142.394 125.147C139.248 125.43 130.327 127.271 128.902 127.668C128.888 127.672 128.874 127.673 128.861 127.673V127.673Z" fill="#292929"/>
<path d="M137.118 122.822C137.049 122.822 136.985 122.775 136.963 122.702C136.643 121.651 135.857 118.333 135.479 116.739L135.369 116.275C135.347 116.184 135.4 116.091 135.487 116.068C135.573 116.045 135.663 116.1 135.685 116.192L135.795 116.656C136.172 118.247 136.957 121.557 137.274 122.598C137.301 122.688 137.253 122.785 137.168 122.814C137.151 122.819 137.135 122.822 137.118 122.822Z" fill="#292929"/>
<path d="M108.691 133.98C108.686 133.98 108.68 133.98 108.676 133.98C108.586 133.971 108.52 133.888 108.528 133.794C108.582 133.171 110.963 131.082 113.111 130.437C113.198 130.409 113.288 130.464 113.312 130.554C113.337 130.645 113.287 130.74 113.201 130.766C111.039 131.415 108.887 133.422 108.853 133.825C108.845 133.914 108.774 133.98 108.691 133.98H108.691Z" fill="#292929"/>
<path d="M107.629 133.607C107.539 133.607 107.466 133.531 107.466 133.436C107.466 132.542 109.25 130.657 112.046 129.738C112.134 129.71 112.223 129.761 112.25 129.851C112.277 129.941 112.229 130.037 112.143 130.066C109.273 131.009 107.792 132.856 107.792 133.436C107.792 133.531 107.72 133.607 107.629 133.607L107.629 133.607Z" fill="#292929"/>
<path d="M119.167 133.306H105.205L99.5869 116.049C99.0965 114.544 97.458 113.312 95.9456 113.312H72.1031C70.5914 113.312 69.7547 114.544 70.2444 116.049L76.0322 133.826C76.6652 135.552 76.7395 136.973 78.3849 136.973H119.167C120.129 136.973 120.91 136.152 120.91 135.139C120.91 134.127 120.129 133.306 119.167 133.306L119.167 133.306Z" fill="#006BFF"/>
<path d="M103.974 133.796H76.2442C76.1542 133.796 76.0813 133.719 76.0813 133.624C76.0813 133.53 76.1542 133.453 76.2442 133.453H103.974C104.064 133.453 104.137 133.53 104.137 133.624C104.137 133.719 104.064 133.796 103.974 133.796Z" fill="#292929"/>
<path d="M85.861 122.28C85.4507 122.28 85.1113 122.451 84.8802 122.775C84.5453 123.243 84.4765 123.959 84.6913 124.74C85.078 126.149 86.263 127.295 87.3323 127.295C87.7422 127.295 88.081 127.124 88.3124 126.8C88.6473 126.331 88.7161 125.615 88.5014 124.835C88.1156 123.426 86.9309 122.28 85.861 122.28ZM87.3323 127.638C86.1278 127.638 84.8023 126.38 84.3781 124.835C84.1348 123.95 84.2227 123.125 84.6195 122.569C84.9108 122.162 85.3517 121.938 85.8609 121.938C87.066 121.938 88.3911 123.195 88.8144 124.741C89.0578 125.624 88.9699 126.45 88.5726 127.006C88.2814 127.413 87.8413 127.638 87.3323 127.638Z" fill="#292929"/>
</svg>
