<svg width="14" height="16" viewBox="0 0 14 16" fill="none" xmlns="http://www.w3.org/2000/svg">
<path d="M5.85905 1.74786C5.9711 1.47092 6.16329 1.23375 6.41101 1.06676C6.65872 0.899762 6.95066 0.810547 7.2494 0.810547C7.54815 0.810547 7.84009 0.899762 8.0878 1.06676C8.33551 1.23375 8.52771 1.47092 8.63976 1.74786C9.74871 2.05284 10.7269 2.71342 11.424 3.62816C12.1212 4.5429 12.4988 5.6612 12.4989 6.81132V10.3337L13.8727 12.3945C13.9481 12.5074 13.9913 12.6387 13.9979 12.7743C14.0045 12.9099 13.9742 13.0448 13.9101 13.1645C13.8461 13.2842 13.7507 13.3843 13.6342 13.454C13.5178 13.5238 13.3845 13.5606 13.2488 13.5606H9.84788C9.75759 14.1854 9.44522 14.7567 8.968 15.1699C8.49078 15.5831 7.88066 15.8105 7.2494 15.8105C6.61815 15.8105 6.00803 15.5831 5.53081 15.1699C5.05359 14.7567 4.74122 14.1854 4.65093 13.5606H1.25003C1.11427 13.5606 0.981039 13.5238 0.864567 13.454C0.748095 13.3843 0.652748 13.2842 0.588697 13.1645C0.524647 13.0448 0.494296 12.9099 0.500883 12.7743C0.50747 12.6387 0.550748 12.5074 0.626099 12.3945L1.99995 10.3337V6.81132C1.99995 4.39358 3.63478 2.35679 5.85905 1.74786ZM6.18901 13.5606C6.26647 13.7801 6.41008 13.9701 6.60006 14.1045C6.79005 14.239 7.01705 14.3111 7.24978 14.3111C7.48251 14.3111 7.70951 14.239 7.89949 14.1045C8.08948 13.9701 8.23309 13.7801 8.31054 13.5606H6.18826H6.18901ZM7.2494 3.06172C6.25495 3.06172 5.30122 3.45676 4.59803 4.15995C3.89484 4.86314 3.4998 5.81687 3.4998 6.81132V10.5609C3.49983 10.7091 3.45599 10.8539 3.37381 10.9771L2.65164 12.0608H11.8464L11.1242 10.9771C11.0423 10.8538 10.9988 10.709 10.999 10.5609V6.81132C10.999 5.81687 10.604 4.86314 9.90077 4.15995C9.19759 3.45676 8.24386 3.06172 7.2494 3.06172Z" fill="#999999"/>
</svg>
