<svg width="20" height="16" viewBox="0 0 20 16" fill="none" xmlns="http://www.w3.org/2000/svg">
<path d="M14.5625 11.123C13.9062 11.123 13.3516 10.8965 12.8984 10.4434C12.4453 9.99023 12.2188 9.43555 12.2188 8.7793C12.2188 8.12305 12.4453 7.56836 12.8984 7.11523C13.3516 6.66211 13.9062 6.43555 14.5625 6.43555C15.2188 6.43555 15.7734 6.66211 16.2266 7.11523C16.6797 7.56836 16.9062 8.12305 16.9062 8.7793C16.9062 9.43555 16.6797 9.99023 16.2266 10.4434C15.7734 10.8965 15.2188 11.123 14.5625 11.123ZM9.875 15.8105V14.498C9.875 14.123 9.97281 13.7752 10.1684 13.4546C10.3641 13.134 10.6412 12.9037 11 12.7637C11.5625 12.5293 12.1447 12.3534 12.7466 12.2359C13.3484 12.1184 13.9537 12.0599 14.5625 12.0605C15.1719 12.0605 15.7775 12.1193 16.3794 12.2368C16.9812 12.3543 17.5631 12.5299 18.125 12.7637C18.4844 12.9043 18.7619 13.1349 18.9575 13.4555C19.1531 13.7762 19.2506 14.1237 19.25 14.498V15.8105H9.875ZM8 8.31055C6.96875 8.31055 6.08594 7.94336 5.35156 7.20898C4.61719 6.47461 4.25 5.5918 4.25 4.56055C4.25 3.5293 4.61719 2.64648 5.35156 1.91211C6.08594 1.17773 6.96875 0.810547 8 0.810547C9.03125 0.810547 9.91406 1.17773 10.6484 1.91211C11.3828 2.64648 11.75 3.5293 11.75 4.56055C11.75 5.5918 11.3828 6.47461 10.6484 7.20898C9.91406 7.94336 9.03125 8.31055 8 8.31055ZM0.5 15.8105V13.1855C0.5 12.6543 0.632812 12.1659 0.898437 11.7202C1.16406 11.2746 1.53125 10.9349 2 10.7012C2.9375 10.2324 3.91 9.87305 4.9175 9.62305C5.925 9.37305 6.9525 9.24805 8 9.24805C8.54688 9.24805 9.09375 9.29492 9.64062 9.38867C10.1875 9.48242 10.7344 9.5918 11.2812 9.7168L10.4844 10.5137L9.6875 11.3105C9.40625 11.2324 9.125 11.1815 8.84375 11.1577C8.5625 11.134 8.28125 11.1224 8 11.123C7.09375 11.123 6.20688 11.2324 5.33938 11.4512C4.47188 11.6699 3.64 11.9824 2.84375 12.3887C2.6875 12.4668 2.57031 12.5762 2.49219 12.7168C2.41406 12.8574 2.375 13.0137 2.375 13.1855V13.9355H8V15.8105H0.5ZM8 6.43555C8.51562 6.43555 8.95719 6.2518 9.32469 5.8843C9.69219 5.5168 9.87562 5.07555 9.875 4.56055C9.875 4.04492 9.69125 3.60336 9.32375 3.23586C8.95625 2.86836 8.515 2.68492 8 2.68555C7.48438 2.68555 7.04281 2.8693 6.67531 3.2368C6.30781 3.6043 6.12437 4.04555 6.125 4.56055C6.125 5.07617 6.30875 5.51773 6.67625 5.88523C7.04375 6.25273 7.485 6.43617 8 6.43555Z" fill="#999999"/>
</svg>
