<svg width="20" height="20" viewBox="0 0 20 20" fill="none" xmlns="http://www.w3.org/2000/svg">
<g clip-path="url(#clip0_2222_2899)">
<path d="M5.71428 10.3107V7.49281C5.72265 6.93891 5.84023 6.39211 6.06028 5.88374C6.28034 5.37536 6.59854 4.91541 6.99667 4.53022C7.39479 4.14504 7.86501 3.8422 8.38037 3.63905C8.89574 3.43591 9.44612 3.33645 9.99999 3.34638C10.5539 3.33645 11.1042 3.43591 11.6196 3.63905C12.135 3.8422 12.6052 4.14504 13.0033 4.53022C13.4014 4.91541 13.7196 5.37536 13.9397 5.88374C14.1598 6.39211 14.2773 6.93891 14.2857 7.49281V10.3107M12.1428 15.9357C12.7112 15.9357 13.2562 15.7099 13.6581 15.308C14.0599 14.9062 14.2857 14.3611 14.2857 13.7928V11.3821M12.1428 15.9357C12.1428 16.2909 12.0017 16.6315 11.7506 16.8827C11.4994 17.1338 11.1588 17.275 10.8036 17.275H9.19642C8.84122 17.275 8.50057 17.1338 8.2494 16.8827C7.99824 16.6315 7.85713 16.2909 7.85713 15.9357C7.85713 15.5805 7.99824 15.2398 8.2494 14.9886C8.50057 14.7375 8.84122 14.5964 9.19642 14.5964H10.8036C11.1588 14.5964 11.4994 14.7375 11.7506 14.9886C12.0017 15.2398 12.1428 15.5805 12.1428 15.9357ZM4.10713 8.70352H5.17856C5.32064 8.70352 5.4569 8.75996 5.55737 8.86043C5.65784 8.9609 5.71428 9.09716 5.71428 9.23924V12.4535C5.71428 12.5956 5.65784 12.7319 5.55737 12.8323C5.4569 12.9328 5.32064 12.9892 5.17856 12.9892H4.10713C3.82297 12.9892 3.55045 12.8764 3.34952 12.6754C3.14859 12.4745 3.03571 12.202 3.03571 11.9178V9.77495C3.03571 9.49079 3.14859 9.21827 3.34952 9.01734C3.55045 8.8164 3.82297 8.70352 4.10713 8.70352ZM15.8928 12.9892H14.8214C14.6793 12.9892 14.5431 12.9328 14.4426 12.8323C14.3421 12.7319 14.2857 12.5956 14.2857 12.4535V9.23924C14.2857 9.09716 14.3421 8.9609 14.4426 8.86043C14.5431 8.75996 14.6793 8.70352 14.8214 8.70352H15.8928C16.177 8.70352 16.4495 8.8164 16.6505 9.01734C16.8514 9.21827 16.9643 9.49079 16.9643 9.77495V11.9178C16.9643 12.202 16.8514 12.4745 16.6505 12.6754C16.4495 12.8764 16.177 12.9892 15.8928 12.9892Z" stroke="#999999" stroke-width="1.5" stroke-linecap="round" stroke-linejoin="round"/>
</g>
<defs>
<clipPath id="clip0_2222_2899">
<rect width="15" height="15" fill="white" transform="translate(2.5 2.81055)"/>
</clipPath>
</defs>
</svg>
