<svg width="17" height="17" viewBox="0 0 17 17" fill="none" xmlns="http://www.w3.org/2000/svg">
<path d="M2.06495 8.04786L15.324 2.01788M15.324 2.01788L12.8451 1.08398M15.324 2.01788L14.4016 4.49674M15.912 16.084H13.0296V8.01327C13.0296 7.86038 13.0903 7.71375 13.1984 7.60564C13.3066 7.49753 13.4532 7.43679 13.6061 7.43679H15.3355C15.4884 7.43679 15.635 7.49753 15.7431 7.60564C15.8513 7.71375 15.912 7.86038 15.912 8.01327V16.084ZM10.1472 16.084H7.2648V9.74271C7.2648 9.58982 7.32553 9.44319 7.43364 9.33508C7.54175 9.22696 7.68838 9.16623 7.84128 9.16623H9.57072C9.72361 9.16623 9.87024 9.22696 9.97835 9.33508C10.0865 9.44319 10.1472 9.58982 10.1472 9.74271V16.084ZM4.3824 16.084H1.5V11.4721C1.5 11.3193 1.56074 11.1726 1.66885 11.0645C1.77696 10.9564 1.92359 10.8957 2.07648 10.8957H3.80592C3.95881 10.8957 4.10544 10.9564 4.21355 11.0645C4.32166 11.1726 4.3824 11.3193 4.3824 11.4721V16.084Z" stroke="#999999" stroke-width="1.5" stroke-linecap="round" stroke-linejoin="round"/>
</svg>
