<svg width="33" height="32" viewBox="0 0 33 32" fill="none" xmlns="http://www.w3.org/2000/svg">
<rect x="0.95874" width="32" height="32" rx="16" fill="#F0F3FF"/>
<path d="M17.041 8H13.4855C11.0309 8 9.04102 9.98985 9.04102 12.4444V19.5556C9.04102 22.0101 11.0309 24 13.4855 24H20.5966C23.0511 24 25.041 22.0101 25.041 19.5556V12.4444C25.041 9.98985 23.0511 8 20.5966 8H17.041Z" stroke="#011B6D" stroke-width="2" stroke-linecap="round" stroke-linejoin="round"/>
<path d="M17.041 12.4453C19.0047 12.4453 20.5966 14.0372 20.5966 16.0009C20.5966 17.9645 19.0047 19.5564 17.041 19.5564C15.0773 19.5564 13.4855 17.9645 13.4855 16.0009C13.4855 14.0372 15.0773 12.4453 17.041 12.4453Z" stroke="#011B6D" stroke-width="2" stroke-linecap="round" stroke-linejoin="round"/>
<path d="M21.4854 12.8893C22.2218 12.8893 22.8188 12.2924 22.8188 11.556C22.8188 10.8196 22.2218 10.2227 21.4854 10.2227C20.7491 10.2227 20.1521 10.8196 20.1521 11.556C20.1521 12.2924 20.7491 12.8893 21.4854 12.8893Z" fill="#011B6D"/>
</svg>
