<svg width="251" height="250" viewBox="0 0 251 250" fill="none" xmlns="http://www.w3.org/2000/svg">
<g id="international-crowdfunding">
<path id="Vector" d="M175.644 128.693L175.641 128.644L175.644 128.594C175.644 127.259 175.578 125.937 175.483 124.625C175.472 124.49 175.463 124.355 175.452 124.22C173.223 96.575 150.099 74.8308 121.879 74.8308C93.6619 74.8308 70.5382 96.5733 68.3077 124.217C68.2973 124.353 68.2873 124.492 68.2768 124.628C68.1814 125.939 68.1152 127.258 68.1152 128.594L68.1181 128.642L68.1152 128.692C68.1152 130.029 68.1814 131.352 68.2768 132.664C68.2873 132.797 68.296 132.931 68.3077 133.065C70.5352 160.711 93.6601 182.456 121.879 182.456C150.097 182.456 173.223 160.713 175.452 133.068C175.463 132.933 175.472 132.797 175.483 132.661C175.578 131.349 175.644 130.029 175.644 128.692V128.693Z" fill="#268CCB"/>
<path id="Vector_2" d="M75.2731 111.073C78.6877 111.168 76.7467 112.811 76.8822 115.517C77.0554 118.977 79.8544 118.398 81.7279 120.668C82.3278 121.394 82.3423 122.293 82.8784 123.06C83.659 124.178 84.8698 124.593 85.9993 125.269C87.9024 126.406 89.3819 128.811 91.3878 129.546C96.498 131.422 91.1159 123.394 91.3878 121.763C91.5716 120.655 92.4062 120.642 91.9581 119.565C91.5449 118.573 90.5503 118.35 89.7214 118.405C89.1279 118.446 88.399 119.715 87.6613 119.169C86.6755 118.439 88.2832 117.51 88.4344 116.989C89.0104 115.001 86.1214 113.609 85.0653 115.28C84.6037 116.009 85.3647 118.001 83.9956 117.557C83.0814 117.261 82.3716 114.141 82.4599 113.304C82.8378 109.765 85.428 109.103 88.5624 109.076C90.7474 109.057 91.8682 109.429 92.3373 111.791C92.7855 114.053 91.7804 114.798 93.7656 116.065C95.9786 117.474 97.4772 116.486 96.3797 113.811C95.8286 112.468 94.1475 110.684 94.7851 109.072C95.0264 108.459 95.9826 108.029 96.3797 107.523C97.1232 106.577 96.4 106.692 97.5376 105.948C98.6247 105.238 99.7136 105.441 100.153 103.741C100.531 102.276 99.9693 102.217 101.074 101.118C103.292 98.9099 104.97 101.655 107.009 100.566C106.58 99.8636 106.161 99.0684 105.939 98.2575C106.427 97.6548 111.447 98.0472 108.536 95.6406C110.339 94.5681 110.004 97.6241 111.5 97.3142C113.517 96.8955 110.105 95.0675 110.033 94.728C109.736 93.3131 111.976 93.2997 112.791 93.8421C113.967 94.6211 113.496 96.9323 115.37 96.5928C115.582 98.2443 117.646 97.6712 117.647 96.3812C117.65 95.175 116.208 95.4395 116.188 93.9891C116.168 92.4359 117.4 92.5139 116.509 91.0811C115.916 90.1305 114.579 90.6992 114.817 89.0477C114.081 88.9919 113.42 90.2744 113.169 89.5721C112.519 87.7515 111.724 83.9754 109.262 86.6465C108.245 85.8339 107.832 84.3998 106.47 84.4206C104.672 84.4469 104.893 86.5278 103.864 87.7415C103.4 88.2893 102.597 88.6112 102.135 89.1942C101.624 89.841 102.288 90.6491 101.074 90.8694C99.0495 91.2368 99.6606 88.5378 99.9279 87.5795C96.9011 87.2462 97.9607 84.6642 100.329 84.6014C101.218 84.5763 102.523 85.2611 103.497 84.5676C104.382 83.9387 104.081 82.6029 105.326 82.6088C105.616 85.8546 107.926 83.0291 109.419 82.7879C109.289 83.1582 109.424 83.8358 109.291 84.209C114.106 84.9479 109.341 78.3048 112.61 77.097C114.741 76.3094 115.122 78.2066 115.039 79.8656C114.947 81.7578 115.045 82.5762 116.185 83.8679C117.395 85.2404 118.563 86.7365 119.728 84.2369C119.944 83.7708 119.816 82.3722 120.082 82.0652C120.548 81.5304 121.994 81.6507 122.659 81.1584C124.957 79.4612 123.564 76.5638 121.534 74.8403C115.016 74.8811 108.772 76.0832 103 78.249C102.686 78.6222 102.432 79.0088 102.344 79.4202C101.719 79.5377 101.063 79.5231 100.561 79.2336C89.9611 83.8178 81.1392 91.7157 75.3805 101.621C75.3834 101.929 75.3997 102.216 75.4351 102.465L75.5851 102.886C75.82 103.534 76.3723 105.131 76.324 106.271C76.249 107.979 74.9796 109.455 75.2736 111.073L75.2731 111.073ZM175.644 128.594C175.644 127.259 175.578 125.937 175.483 124.625C175.472 124.49 175.464 124.355 175.452 124.22C174.964 118.175 173.477 112.41 171.157 107.094L171.151 107.084C170.832 106.352 170.494 105.629 170.143 104.914L170.055 104.737C169.729 104.08 169.389 103.431 169.038 102.787L168.879 102.501C168.544 101.898 168.197 101.304 167.84 100.717L167.621 100.359C167.274 99.7983 166.916 99.246 166.55 98.6979L166.286 98.3027C165.921 97.7708 165.547 97.2464 165.165 96.7274C165.066 96.5954 164.971 96.4599 164.871 96.3279C164.483 95.8106 164.083 95.3037 163.676 94.8009L163.379 94.4306L163.156 94.1694C161.795 94.1132 160.711 94.7792 160.063 96.335C159.637 97.355 159.76 100.654 158.345 100.939C156.829 101.244 155.584 92.8292 152.568 97.4841C152.169 98.0997 152.387 98.9256 152.065 99.5121C151.614 100.338 151.26 100.319 150.643 100.645C151.583 98.8082 149.01 94.5705 151.655 94.6952C152.258 93.3993 151.313 92.03 151.689 90.6767C152.419 88.0434 152.98 90.4034 153.559 91.5863C153.897 92.2752 155.309 94.913 156.539 94.0004C157.437 93.3348 156.323 90.4946 156.368 89.5995C157.465 89.789 157.767 91.3218 158.935 91.5951C159.79 91.7963 160.442 91.823 160.981 91.7271L160.843 91.5806C159.967 90.6591 159.065 89.7642 158.127 88.9079L158.114 88.8945C157.141 88.007 156.133 87.1548 155.098 86.3376L155.031 86.2847C154.022 85.4912 152.982 84.7389 151.916 84.0192L151.643 83.8355C149.493 82.4027 147.235 81.1199 144.883 80.0031L144.669 79.9002C143.508 79.3566 142.326 78.8544 141.122 78.3912L140.805 78.2738C138.37 77.357 135.852 76.6118 133.264 76.055L133.069 76.0109C133.155 76.3637 133.187 76.7927 133.079 77.4378C132.891 78.5586 132.322 78.3575 133.081 79.4609C133.684 80.3414 135.315 80.525 136.065 81.2919C136.55 81.7884 136.668 82.3836 137.17 82.9026C137.803 83.5607 138.767 83.7444 139.266 84.5996C139.484 84.9744 139.791 85.3005 139.95 85.6812C138.809 85.9115 137.07 84.1251 136.416 85.1523C135.704 86.2731 137.659 87.4799 137.927 88.2833C138.257 89.2737 137.289 90.9252 139.034 91.0532C140.657 91.1723 140.081 89.3063 139.992 88.313C141.826 88.088 142.042 89.6208 142.803 90.6258C143.822 91.97 145.253 91.6559 146.292 92.6871C148.434 94.8164 145.939 94.2549 144.999 94.3065C144.116 94.3548 143.694 94.077 142.984 94.9134C142.073 95.9843 142.633 95.3982 143.087 96.4224C143.475 97.2996 144.408 100.057 144.986 100.576C145.406 100.951 148.601 101.466 149.607 101.383C148.737 102.162 148.302 103.043 147.409 104.113C145.657 106.213 146.549 105.602 146.859 107.973C147.127 110.02 145.475 110.661 144.939 112.388C144.321 114.38 145.852 116.713 146.096 118.503C146.324 120.179 147.157 120.417 147.834 121.722C148.359 122.733 148.305 123.785 149.047 124.91C150.11 126.524 152.794 129.407 155.037 129.138C156.608 128.948 155.972 127.592 156.931 126.912C157.939 126.196 159.438 127.344 159.346 125.297C159.941 125.317 161.444 126.403 161.927 126.212C162.821 125.855 162.462 124.23 162.509 123.457C164.873 123.058 164.459 126.293 163.924 127.476C163.662 128.054 162.891 128.903 162.854 129.511C162.787 130.616 163.497 130.308 163.984 131.342C164.847 133.174 163.926 139.194 162.904 140.813C161.949 142.325 159.539 142.935 159.9 145.179C160.121 146.57 161.844 147.161 162.174 148.591C162.578 150.338 161.652 152.051 162.44 153.847C163.323 155.857 164.018 157.725 164.797 159.89C164.897 160.165 165.012 160.381 165.12 160.619C168.466 156.093 171.121 151.027 172.923 145.571C172.913 145.359 172.893 145.15 172.899 144.938L172.9 144.864C172.97 142.979 173.693 142.267 174.275 140.62L174.342 140.4C174.873 138.011 175.25 135.565 175.452 133.068C175.463 132.933 175.472 132.798 175.482 132.661C175.578 131.357 175.642 130.044 175.642 128.715V128.684L175.641 128.644L175.644 128.594H175.644Z" fill="#FFCE72"/>
<path id="Vector_3" d="M131.778 140.021C130.895 139.654 129.662 140.352 128.801 139.858C127.464 139.094 128.193 138.477 126.572 138.149C125.557 137.942 124.618 138.438 123.632 138.292C122.6 138.137 121.528 136.775 120.24 136.861C118.248 135.249 118.192 133.231 116.843 131.152C115.387 128.907 114.493 129.632 112.434 129.684C110.401 129.735 109.034 127.747 107.019 127.287C106.261 127.114 105.644 127.198 104.93 127.238C103.982 127.289 103.76 127.395 102.552 127.155C101.937 127.032 100.935 127.138 100.37 126.966C100.313 126.948 99.7266 127.028 99.5295 126.979C99.1771 126.892 99.4179 126.036 98.8447 125.987C98.1292 125.927 94.4118 127.874 94.134 128.397C93.4729 129.646 94.7704 130.163 94.8996 131.157C95.0496 132.304 94.603 132.432 94.0078 133.231C91.9227 136.035 89.6778 140.421 88.8942 143.799C88.4535 145.697 89.0163 146.171 89.7864 147.733C90.6915 149.566 90.5578 151.566 91.4128 153.401C92.4162 155.56 93.7566 155.247 95.5609 156.458C97.1758 157.542 97.2903 158.947 97.5211 160.744C97.7002 162.132 97.9014 163.465 97.9206 164.884C97.9311 165.63 97.3579 165.922 97.662 166.668C98.0839 167.701 99.5458 168.194 100.31 168.949C101.062 169.695 101.618 170.621 102.413 171.37C104.37 173.216 106.603 174.818 107.45 177.504C107.814 178.661 107.629 179.55 107.444 180.482C109.159 180.959 110.908 181.352 112.688 181.659C112.957 181.704 113.136 178.344 113.254 178.003C113.715 176.652 114.476 176.422 115.458 175.389C116.523 174.268 116.392 173.476 116.789 171.978C117.778 168.243 119.652 167.92 122.76 166.318C125.315 165.002 127.397 163.618 126.649 160.749C125.81 157.526 127.348 155.96 129.351 153.529C131.429 151.009 132.764 147.86 133.215 144.612C133.508 142.507 133.245 140.632 131.778 140.021L131.778 140.021Z" fill="#FFCE72"/>
<path id="Vector_4" d="M121.88 63.6183L140.25 81.2111L128.339 63.6183H121.88Z" fill="#2C2A43"/>
<path id="Vector_5" d="M194.08 122.145L173.221 129.828L194.08 129.386V122.145Z" fill="#2C2A43"/>
<path id="Vector_6" d="M82.9654 120.351L54.9736 144.394V136.141L82.9654 120.351Z" fill="#2C2A43"/>
<path id="Vector_7" d="M116.341 164.312L140.117 186.382H149.221L116.341 164.312Z" fill="#2C2A43"/>
<path id="Vector_8" d="M148.728 85.787C148.728 88.3139 146.68 90.3624 144.152 90.3624C141.625 90.3624 139.577 88.314 139.577 85.787C139.577 83.2595 141.625 81.2111 144.152 81.2111C146.679 81.2111 148.728 83.2595 148.728 85.787ZM92.1162 117.569C92.1162 120.096 90.0678 122.145 87.5403 122.145C85.0146 122.145 82.9648 120.097 82.9648 117.569C82.9648 115.042 85.0146 112.994 87.5403 112.994C90.0676 112.994 92.1162 115.042 92.1162 117.569ZM117.417 158.399C117.417 160.926 115.369 162.974 112.842 162.974C110.314 162.974 108.266 160.926 108.266 158.399C108.266 155.871 110.314 153.823 112.842 153.823C115.369 153.823 117.417 155.871 117.417 158.399ZM172.593 131.924C172.593 134.451 170.544 136.499 168.018 136.499C165.491 136.499 163.442 134.451 163.442 131.924C163.442 129.396 165.491 127.348 168.018 127.348C170.544 127.348 172.593 129.396 172.593 131.924Z" fill="#F1666E"/>
<path id="Vector_9" d="M105.867 63.6183H141.126V43.9701H105.867V63.6183Z" fill="#268CCB"/>
<path id="Vector_10" d="M114.07 57.1974V58.7711H112.704V57.1871C111.737 57.0534 110.801 56.6535 110.113 56.0879L110.842 54.6155C111.583 55.2531 112.703 55.7072 113.453 55.7072C114.01 55.7072 114.36 55.5002 114.36 55.1195C114.36 53.897 110.564 54.6363 110.564 52.0868C110.564 50.9435 111.387 50.1528 112.703 49.9371V48.4251H114.07V49.9266C114.914 50.019 115.716 50.3073 116.323 50.6981L115.613 52.1895C114.853 51.7577 113.887 51.4181 113.29 51.4181C112.837 51.4181 112.539 51.581 112.539 51.9104C112.539 53.1033 116.333 52.4261 116.333 55.0179C116.333 56.2829 115.368 57.0222 114.07 57.1971V57.1974Z" fill="#FEFEFE"/>
<path id="Vector_11" d="M120.801 49.9679V57.1766H118.92V51.5094H117.532V49.9679H120.801Z" fill="#FEFEFE"/>
<path id="Vector_12" d="M125.075 53.5662C125.075 55.2123 125.373 55.9029 126.103 55.9029C126.823 55.9029 127.122 55.2123 127.122 53.5662C127.122 51.9105 126.823 51.2316 126.103 51.2316C125.373 51.2316 125.075 51.9105 125.075 53.5662ZM128.921 53.5662C128.921 55.9215 127.913 57.2265 126.103 57.2265C124.273 57.2265 123.276 55.9215 123.276 53.5662C123.276 51.2108 124.273 49.9163 126.103 49.9163C127.913 49.9163 128.921 51.2108 128.921 53.5662ZM131.415 53.5662C131.415 55.2123 131.713 55.9029 132.443 55.9029C133.163 55.9029 133.462 55.2123 133.462 53.5662C133.462 51.9105 133.163 51.2316 132.443 51.2316C131.713 51.2316 131.415 51.9105 131.415 53.5662ZM135.26 53.5662C135.26 55.9215 134.254 57.2265 132.443 57.2265C130.613 57.2265 129.616 55.9215 129.616 53.5662C129.616 51.2108 130.613 49.9163 132.443 49.9163C134.254 49.9163 135.26 51.2108 135.26 53.5662Z" fill="#FEFEFE"/>
<path id="Vector_13" d="M193.564 134.436H228.824V114.788H193.564V134.436Z" fill="#F1666E"/>
<path id="Vector_14" d="M204.46 128.665V130.237H203.093V128.654C202.126 128.519 201.19 128.12 200.501 127.554L201.231 126.082C201.972 126.719 203.093 127.173 203.842 127.173C204.399 127.173 204.749 126.967 204.749 126.587C204.749 125.363 200.954 126.102 200.954 123.553C200.954 122.41 201.776 121.62 203.093 121.403V119.891H204.46V121.393C205.303 121.485 206.105 121.773 206.712 122.164L206.002 123.655C205.243 123.223 204.276 122.883 203.679 122.883C203.227 122.883 202.928 123.047 202.928 123.378C202.928 124.57 206.723 123.892 206.723 126.484C206.723 127.749 205.757 128.49 204.46 128.665V128.665ZM210.152 124.036C211.849 124.036 212.949 124.929 212.949 126.216C212.949 127.739 211.789 128.725 210.008 128.725C209.043 128.725 207.932 128.366 207.15 127.821L207.901 126.359C208.467 126.957 209.124 127.266 209.782 127.266C210.513 127.266 210.925 126.935 210.925 126.349C210.925 125.804 210.513 125.495 209.794 125.495C209.413 125.495 208.23 125.505 207.778 125.538V121.424H212.621V122.947H209.505V124.046C209.66 124.036 210.008 124.036 210.152 124.036H210.152ZM215.464 125.032C215.464 126.678 215.762 127.369 216.492 127.369C217.213 127.369 217.511 126.678 217.511 125.032C217.511 123.378 217.213 122.697 216.492 122.697C215.762 122.697 215.464 123.378 215.464 125.032ZM219.311 125.032C219.311 127.388 218.303 128.694 216.492 128.694C214.661 128.694 213.665 127.388 213.665 125.032C213.665 122.677 214.661 121.382 216.492 121.382C218.303 121.382 219.311 122.677 219.311 125.032Z" fill="#FEFEFE"/>
<path id="Vector_15" d="M131.591 206.03H166.85V186.382H131.591V206.03Z" fill="#B0DDD3"/>
<path id="Vector_16" d="M140.334 199.653V201.225H138.965V199.643C137.999 199.507 137.063 199.108 136.375 198.542L137.104 197.071C137.844 197.708 138.965 198.162 139.716 198.162C140.271 198.162 140.621 197.956 140.621 197.575C140.621 196.351 136.826 197.092 136.826 194.541C136.826 193.399 137.649 192.609 138.965 192.393V190.881H140.334V192.381C141.177 192.474 141.979 192.761 142.584 193.154L141.875 194.644C141.115 194.213 140.148 193.872 139.552 193.872C139.099 193.872 138.801 194.037 138.801 194.366C138.801 195.559 142.595 194.882 142.595 197.472C142.595 198.737 141.629 199.478 140.334 199.653ZM146.631 194.51C146.631 194.121 146.334 193.893 145.81 193.893C145.224 193.893 144.483 194.243 143.814 194.809L143.106 193.42C144.031 192.741 145.039 192.331 146.087 192.331C147.548 192.331 148.606 193.092 148.606 194.233C148.606 195.014 148.01 195.825 147.209 196.639L145.728 198.12H148.812V199.632H143.321L143.311 198.386L145.933 195.693C146.334 195.282 146.631 194.818 146.631 194.51ZM151.336 196.021C151.336 197.668 151.636 198.357 152.365 198.357C153.085 198.357 153.383 197.668 153.383 196.021C153.383 194.366 153.085 193.687 152.365 193.687C151.636 193.687 151.336 194.366 151.336 196.021ZM155.183 196.021C155.183 198.376 154.175 199.682 152.365 199.682C150.534 199.682 149.538 198.376 149.538 196.021C149.538 193.666 150.534 192.371 152.365 192.371C154.175 192.371 155.183 193.666 155.183 196.021ZM157.677 196.021C157.677 197.668 157.975 198.357 158.705 198.357C159.425 198.357 159.723 197.668 159.723 196.021C159.723 194.366 159.425 193.687 158.705 193.687C157.975 193.687 157.677 194.366 157.677 196.021ZM161.522 196.021C161.522 198.376 160.515 199.682 158.705 199.682C156.874 199.682 155.878 198.376 155.878 196.021C155.878 193.666 156.874 192.371 158.705 192.371C160.515 192.371 161.522 193.666 161.522 196.021Z" fill="#FEFEFE"/>
<path id="Vector_17" d="M21.4209 150.727H56.6781V131.08H21.4209V150.727Z" fill="#3FC0C6"/>
<path id="Vector_18" d="M30.1636 144.35V145.924H28.7957V144.34C27.8285 144.206 26.8927 143.806 26.2051 143.241L26.9339 141.768C27.6745 142.406 28.7957 142.86 29.5463 142.86C30.1019 142.86 30.4514 142.653 30.4514 142.272C30.4514 141.05 26.6578 141.789 26.6578 139.238C26.6578 138.096 27.4792 137.306 28.7957 137.09V135.578H30.1636V137.079C31.007 137.171 31.8092 137.46 32.4145 137.851L31.7065 139.341C30.9455 138.911 29.9783 138.569 29.3819 138.569C28.9309 138.569 28.6309 138.734 28.6309 139.063C28.6309 140.256 32.4266 139.579 32.4266 142.169C32.4266 143.436 31.4594 144.175 30.1637 144.35H30.1636ZM38.5505 142.056C38.5505 143.444 37.4089 144.412 35.6195 144.412C34.5703 144.412 33.4798 144.062 32.7805 143.529L33.5431 142.077C34.1071 142.663 34.786 142.97 35.4752 142.97C36.2671 142.97 36.7094 142.643 36.7094 142.077C36.7094 141.501 36.2671 141.203 35.4649 141.203H34.2512V140.195L35.9381 138.58H33.1612L33.1508 137.132H38.1907V138.221L36.2468 140.032L36.6067 140.081C37.7483 140.256 38.5505 140.957 38.5505 142.056V142.056ZM42.1946 139.721C43.8919 139.721 44.9924 140.617 44.9924 141.902C44.9924 143.426 43.8316 144.412 42.0511 144.412C41.0855 144.412 39.9748 144.052 39.193 143.507L39.944 142.046C40.5097 142.642 41.1677 142.951 41.8246 142.951C42.5564 142.951 42.9679 142.622 42.9679 142.036C42.9679 141.491 42.5564 141.181 41.8366 141.181C41.4559 141.181 40.273 141.192 39.8203 141.223V137.11H44.6635V138.633H41.5484V139.733C41.7029 139.721 42.0512 139.721 42.1948 139.721H42.1946ZM47.5064 140.719C47.5064 142.365 47.8046 143.056 48.5353 143.056C49.255 143.056 49.5532 142.365 49.5532 140.719C49.5532 139.063 49.255 138.384 48.5353 138.384C47.8048 138.384 47.5064 139.063 47.5064 140.719ZM51.3533 140.719C51.3533 143.075 50.3453 144.379 48.5353 144.379C46.7042 144.379 45.7079 143.075 45.7079 140.719C45.7079 138.364 46.7042 137.068 48.5353 137.068C50.3455 137.068 51.3533 138.364 51.3533 140.719Z" fill="#FEFEFE"/>
<path id="Vector_19" d="M74.2275 114.729C73.9415 114.475 73.502 114.5 73.2492 114.789C72.9951 115.077 73.023 115.514 73.3109 115.768C74.9994 117.259 76.7654 118.767 78.6035 120.289C78.7329 120.395 78.89 120.448 79.0458 120.448C79.2441 120.448 79.4427 120.361 79.5794 120.195C79.8246 119.901 79.7835 119.463 79.4882 119.218C77.6618 117.707 75.9057 116.209 74.2275 114.729ZM88.8729 83.2874C89.1566 83.2874 89.424 83.1107 89.5251 82.8288C89.6559 82.469 89.4693 82.0707 89.1095 81.9413C86.829 81.1157 84.6086 80.3648 82.5089 79.7051C82.1444 79.5876 81.7538 79.7946 81.6392 80.1591C81.5243 80.5253 81.7271 80.9142 82.0932 81.0304C84.1737 81.6814 86.3763 82.4267 88.6362 83.2451L88.8728 83.2875L88.8729 83.2874ZM64.2461 105.177C63.9816 104.895 63.5409 104.889 63.2648 105.152C62.9882 105.415 62.9765 105.854 63.2397 106.132C64.7738 107.745 66.434 109.403 68.1738 111.062C68.3075 111.189 68.4807 111.252 68.6528 111.252C68.8352 111.252 69.0185 111.181 69.1556 111.038C69.4184 110.76 69.4097 110.321 69.1319 110.057C67.4072 108.414 65.7627 106.771 64.2461 105.177ZM95.9979 131.805C95.6852 131.587 95.2515 131.661 95.0295 131.972C94.8092 132.285 94.8842 132.717 95.1957 132.939C97.0617 134.256 98.9706 135.575 100.919 136.889C101.038 136.97 101.173 137.009 101.305 137.009C101.529 137.009 101.748 136.9 101.881 136.702C102.096 136.386 102.012 135.954 101.695 135.741C99.7553 134.429 97.8539 133.117 95.9979 131.805V131.805ZM84.882 123.554C84.578 123.316 84.1443 123.375 83.9078 123.674C83.6729 123.976 83.7258 124.412 84.0285 124.647C85.8183 126.045 87.6635 127.449 89.5635 128.858C89.6885 128.951 89.8322 128.997 89.9751 128.997C90.188 128.997 90.3983 128.898 90.5333 128.716C90.7611 128.407 90.6978 127.974 90.3891 127.744C88.5011 126.343 86.663 124.944 84.882 123.554V123.554ZM68.7261 77.7344C70.8188 78.0738 73.0829 78.5487 75.4562 79.1468L75.6264 79.1684C75.9363 79.1684 76.22 78.9584 76.2978 78.644C76.392 78.2724 76.167 77.8947 75.7955 77.8022C73.3826 77.1936 71.0784 76.7117 68.948 76.3647C68.5719 76.3018 68.2149 76.5604 68.1516 76.9378C68.0913 77.3169 68.3486 77.6725 68.726 77.7342L68.7261 77.7344ZM200.207 161.608C200.329 161.849 200.573 161.988 200.827 161.988L201.14 161.915C201.481 161.74 201.618 161.324 201.446 160.982C200.512 159.134 199.259 157.123 197.724 155.009C197.5 154.696 197.066 154.628 196.756 154.852C196.445 155.078 196.377 155.511 196.601 155.821C198.093 157.878 199.306 159.824 200.207 161.607L200.207 161.608ZM51.1013 83.6798C51.1013 83.1875 51.1484 82.7142 51.2391 82.2765C51.317 81.9017 51.0762 81.5343 50.7014 81.4565C50.3165 81.3786 49.958 81.6196 49.88 81.9942C49.77 82.5249 49.7142 83.0934 49.7142 83.6799C49.7142 85.2902 50.1329 87.1299 50.9588 89.1458C51.0687 89.4149 51.3273 89.5764 51.6006 89.5764L51.8622 89.5248C52.2179 89.3795 52.3883 88.9737 52.2429 88.6197C51.4848 86.7713 51.1013 85.1093 51.1013 83.6799V83.6798ZM61.9437 75.6965L61.5263 75.6936C58.8815 75.6936 56.6406 76.026 54.8642 76.6752C54.5043 76.8072 54.3194 77.2071 54.4514 77.5669C54.5543 77.8477 54.8204 78.0226 55.1024 78.0226L55.3419 77.9797C56.9642 77.3833 59.0447 77.0822 61.5263 77.0822L61.9274 77.0851H61.9349C62.3139 77.0851 62.6243 76.7794 62.6285 76.4004C62.6343 76.0168 62.3273 75.7023 61.9437 75.6965ZM55.518 94.5617C55.3023 94.2414 54.8703 94.1564 54.5543 94.3722C54.2369 94.5855 54.1515 95.0162 54.3647 95.3336C55.5488 97.0997 56.9684 98.9819 58.5878 100.926C58.7244 101.09 58.9226 101.177 59.1209 101.177C59.2767 101.177 59.4353 101.124 59.5649 101.015C59.8584 100.77 59.8985 100.334 59.6544 100.038C58.0658 98.1309 56.6747 96.2888 55.518 94.5618V94.5617ZM175.839 172.396C173.747 171.829 171.524 171.159 169.233 170.405C168.869 170.285 168.476 170.484 168.357 170.846C168.237 171.21 168.435 171.602 168.799 171.723C171.114 172.484 173.361 173.16 175.477 173.733L175.659 173.76C175.964 173.76 176.245 173.557 176.329 173.247C176.429 172.877 176.21 172.496 175.839 172.396V172.396ZM113.331 143.249C111.346 142.026 109.393 140.79 107.474 139.552C107.153 139.348 106.724 139.438 106.516 139.76C106.307 140.081 106.401 140.509 106.723 140.718C108.648 141.962 110.609 143.201 112.602 144.432L112.965 144.535C113.198 144.535 113.424 144.419 113.555 144.204C113.758 143.88 113.655 143.451 113.331 143.249V143.249ZM189.329 174.892C187.285 174.753 185.004 174.441 182.544 173.968C182.174 173.896 181.803 174.138 181.731 174.516C181.658 174.892 181.905 175.257 182.281 175.329C184.796 175.815 187.136 176.134 189.234 176.278L189.283 176.279C189.644 176.279 189.95 175.998 189.974 175.633C189.999 175.249 189.712 174.919 189.329 174.892ZM203.56 167.832C203.54 167.451 203.224 167.193 202.83 167.177C202.447 167.196 202.154 167.523 202.175 167.907C202.183 168.067 202.188 168.224 202.188 168.38C202.188 169.569 201.919 170.615 201.389 171.486C200.447 173.038 198.652 174.087 196.058 174.605C195.682 174.681 195.437 175.045 195.512 175.421C195.578 175.75 195.866 175.98 196.191 175.98L196.328 175.967C199.32 175.368 201.421 174.105 202.574 172.208C203.238 171.113 203.575 169.826 203.575 168.38C203.575 168.201 203.571 168.016 203.56 167.832L203.56 167.832ZM188.601 144.434C188.332 144.159 187.892 144.158 187.621 144.425C187.346 144.693 187.343 145.133 187.612 145.405C189.299 147.123 190.878 148.823 192.304 150.458C192.44 150.617 192.634 150.698 192.827 150.698C192.988 150.698 193.151 150.64 193.282 150.527C193.571 150.275 193.601 149.837 193.349 149.549C191.905 147.89 190.308 146.169 188.601 144.434H188.601ZM183.129 140.779C183.314 140.779 183.499 140.704 183.637 140.556C183.897 140.275 183.881 139.838 183.601 139.576C181.967 138.057 180.223 136.495 178.415 134.929C178.126 134.679 177.688 134.709 177.435 135C177.185 135.29 177.218 135.728 177.507 135.979C179.303 137.532 181.035 139.084 182.656 140.593C182.789 140.716 182.96 140.78 183.129 140.78L183.129 140.779ZM125.253 150.291C123.265 149.173 121.265 148.018 119.258 146.831C118.928 146.638 118.503 146.745 118.307 147.076C118.112 147.405 118.222 147.831 118.551 148.025C120.567 149.217 122.576 150.375 124.571 151.5L124.911 151.59C125.153 151.59 125.389 151.464 125.516 151.237C125.704 150.904 125.587 150.48 125.253 150.291ZM162.716 168.104C160.622 167.319 158.459 166.464 156.285 165.565C155.934 165.412 155.527 165.584 155.38 165.938C155.233 166.292 155.402 166.699 155.756 166.845C157.942 167.75 160.121 168.611 162.23 169.401L162.472 169.449C162.753 169.449 163.019 169.275 163.122 168.998C163.257 168.637 163.075 168.238 162.716 168.104V168.104ZM137.453 156.84C135.427 155.808 133.38 154.742 131.319 153.631C130.979 153.452 130.56 153.579 130.38 153.914C130.198 154.251 130.326 154.672 130.662 154.853C132.734 155.967 134.789 157.043 136.823 158.077L137.138 158.154C137.39 158.154 137.634 158.014 137.756 157.774C137.929 157.432 137.795 157.015 137.453 156.84ZM149.934 162.823C147.874 161.899 145.78 160.928 143.657 159.911C143.309 159.742 142.898 159.89 142.731 160.235C142.565 160.582 142.712 160.997 143.057 161.161C145.191 162.184 147.297 163.16 149.367 164.09L149.65 164.15C149.914 164.15 150.168 163.998 150.282 163.74C150.44 163.39 150.284 162.98 149.934 162.823ZM80.7869 177.72C78.5727 178.429 76.4126 179.066 74.363 179.612C74.0031 179.708 73.79 180.076 73.8852 180.436C73.9631 180.727 74.2205 180.923 74.5055 180.936L74.7083 180.914C76.7801 180.36 78.9635 179.718 81.1985 179.001C81.5513 178.888 81.7466 178.51 81.6333 178.156C81.5205 177.8 81.1415 177.611 80.787 177.72H80.7869ZM67.8507 181.129C65.4908 181.59 63.2736 181.911 61.2635 182.087C60.8931 182.119 60.62 182.444 60.6507 182.815C60.6798 183.156 60.9576 183.415 61.2914 183.429L61.3797 183.428C63.4364 183.249 65.7011 182.921 68.1093 182.449C68.475 182.379 68.7132 182.025 68.6412 181.662C68.5691 181.295 68.2134 181.055 67.8507 181.129V181.129ZM105.706 167.79C103.637 168.752 101.595 169.673 99.5846 170.549C99.2451 170.697 99.0881 171.094 99.2381 171.435C99.3438 171.677 99.5759 171.827 99.8258 171.839L100.124 171.783C102.143 170.902 104.195 169.977 106.275 169.009C106.611 168.853 106.758 168.45 106.599 168.116C106.444 167.778 106.044 167.629 105.706 167.79ZM93.3944 173.141C91.2593 173.999 89.1684 174.801 87.1304 175.543C86.7804 175.671 86.6013 176.056 86.7276 176.406C86.8247 176.67 87.0671 176.838 87.3303 176.85L87.5919 176.808C89.6429 176.062 91.7471 175.254 93.8955 174.39C94.2408 174.252 94.4084 173.859 94.2699 173.514C94.1304 173.171 93.741 173.003 93.3944 173.141ZM165.091 92.4521L165.304 92.427C167.564 91.7849 169.746 91.2308 171.789 90.7856C172.153 90.7064 172.383 90.3461 172.304 89.9834C172.225 89.6189 171.866 89.3957 171.502 89.469C169.431 89.9231 167.223 90.4815 164.937 91.1309C164.58 91.2326 164.371 91.6058 164.474 91.961C164.555 92.2476 164.809 92.4387 165.091 92.4521H165.091ZM117.745 161.831C115.733 162.883 113.735 163.9 111.759 164.877C111.427 165.043 111.29 165.446 111.455 165.779C111.566 166.006 111.791 166.142 112.028 166.154L112.357 166.083C114.34 165.101 116.346 164.081 118.369 163.024C118.699 162.851 118.825 162.445 118.653 162.116C118.481 161.785 118.077 161.658 117.745 161.831H117.745ZM66.7103 147.318C66.462 147.042 66.0375 147.023 65.7597 147.268C64.0304 148.826 62.3714 150.383 60.8315 151.897C60.567 152.158 60.5624 152.584 60.824 152.849C60.9473 152.975 61.1088 153.043 61.2738 153.05C61.4529 153.059 61.6367 152.995 61.775 152.856C63.3015 151.356 64.9455 149.812 66.6603 148.269C66.9369 148.021 66.959 147.595 66.7103 147.318V147.318ZM48.9633 167.434C48.6356 167.258 48.227 167.378 48.0495 167.703C46.7459 170.11 45.9554 172.302 45.7011 174.225C45.6528 174.593 45.9114 174.932 46.2801 174.979L46.3388 174.985C46.6841 175.001 46.9898 174.75 47.0352 174.4C47.2677 172.642 48.0083 170.605 49.2336 168.345C49.4114 168.018 49.2894 167.609 48.9633 167.434V167.434ZM54.6834 182.072C52.0949 181.76 50.1255 181.034 48.8297 179.912C48.5507 179.665 48.1241 179.699 47.8805 179.979C47.6381 180.259 47.6672 180.685 47.9496 180.927C49.4511 182.231 51.6624 183.065 54.5235 183.408L54.5747 183.414C54.9216 183.428 55.2303 183.173 55.2716 182.821C55.317 182.451 55.0524 182.116 54.6834 182.072V182.072ZM56.1395 156.779C54.5205 158.572 53.0585 160.328 51.7947 161.996C51.5715 162.292 51.6303 162.714 51.9255 162.938L52.2999 163.074C52.5144 163.085 52.7294 162.992 52.8689 162.808C54.1089 161.171 55.5446 159.446 57.1386 157.682C57.3873 157.405 57.3653 156.979 57.0903 156.731C56.817 156.481 56.3882 156.503 56.1395 156.779V156.779ZM152.222 141C150.41 142.259 148.556 143.516 146.662 144.769C146.352 144.975 146.267 145.392 146.471 145.702C146.595 145.888 146.796 145.994 147.003 146.003C147.141 146.009 147.281 145.974 147.404 145.891C149.307 144.63 151.17 143.368 152.989 142.106C153.295 141.892 153.371 141.473 153.158 141.167C152.946 140.866 152.528 140.79 152.222 141L152.222 141ZM185.017 87.9495C183.002 87.8687 180.706 87.9879 178.192 88.301C177.823 88.3464 177.561 88.6842 177.607 89.0532C177.65 89.384 177.923 89.6276 178.245 89.6421L178.359 89.6363C180.8 89.3322 183.022 89.2176 184.963 89.2956C185.334 89.309 185.648 89.0207 185.662 88.6493C185.678 88.2789 185.362 87.9599 185.017 87.9495H185.017ZM183.092 115.276C181.636 116.827 180.047 118.426 178.374 120.024C178.105 120.282 178.095 120.706 178.352 120.977C178.477 121.107 178.641 121.177 178.809 121.184C178.985 121.193 179.166 121.13 179.304 120.998C180.995 119.383 182.601 117.768 184.074 116.198C184.328 115.926 184.314 115.5 184.043 115.246C183.775 114.995 183.348 115.007 183.092 115.276ZM192.28 104.627C191.966 104.436 191.551 104.53 191.354 104.847C190.309 106.541 189.009 108.359 187.488 110.25C187.255 110.538 187.301 110.964 187.591 111.195C187.708 111.289 187.844 111.339 187.981 111.345C188.188 111.354 188.396 111.269 188.537 111.094C190.092 109.16 191.426 107.295 192.5 105.554C192.696 105.237 192.597 104.823 192.28 104.627L192.28 104.627ZM195.013 92.2638C194.318 91.0779 193.244 90.1184 191.822 89.4149C191.491 89.2487 191.084 89.387 190.919 89.7201C190.755 90.0525 190.891 90.4565 191.225 90.621C192.408 91.2057 193.291 91.9889 193.851 92.9456C194.405 93.8889 194.656 95.0249 194.597 96.3177C194.562 97.1229 194.405 98.0063 194.133 98.9421C194.029 99.2975 194.234 99.6723 194.591 99.7752L194.75 99.8031C195.053 99.8165 195.336 99.6224 195.426 99.3183C195.727 98.2808 195.902 97.2908 195.942 96.3782C196.012 94.8204 195.699 93.4364 195.013 92.2638H195.013ZM141.019 148.419C139.146 149.602 137.242 150.779 135.302 151.948C134.985 152.141 134.882 152.555 135.074 152.873C135.195 153.074 135.404 153.188 135.621 153.199L135.999 153.102C137.944 151.926 139.859 150.745 141.738 149.556C142.052 149.359 142.146 148.943 141.948 148.629C141.748 148.315 141.335 148.218 141.019 148.419H141.019ZM173.429 124.554C171.812 125.977 170.091 127.437 168.313 128.894C168.027 129.129 167.984 129.553 168.219 129.843C168.345 129.996 168.526 130.079 168.71 130.088C168.87 130.094 169.033 130.044 169.167 129.935C170.956 128.468 172.689 126.998 174.318 125.566C174.598 125.319 174.624 124.894 174.379 124.617C174.132 124.333 173.709 124.306 173.429 124.555V124.554ZM129.517 155.362C127.557 156.492 125.606 157.59 123.665 158.656C123.338 158.835 123.22 159.245 123.397 159.57C123.515 159.784 123.731 159.909 123.959 159.92L124.311 159.836C126.261 158.765 128.223 157.661 130.19 156.527C130.512 156.342 130.622 155.93 130.437 155.609C130.25 155.287 129.839 155.173 129.517 155.362L129.517 155.362ZM163.06 133.073C161.326 134.411 159.535 135.757 157.689 137.106C157.39 137.325 157.325 137.747 157.544 138.045C157.669 138.217 157.862 138.312 158.058 138.323C158.205 138.329 158.356 138.286 158.484 138.192C160.339 136.836 162.14 135.484 163.883 134.139C164.177 133.913 164.231 133.488 164.005 133.196C163.774 132.901 163.354 132.845 163.06 133.073H163.06Z" fill="#2C2A43"/>
</g>
</svg>
