<svg width="141" height="40" viewBox="0 0 141 40" fill="none" xmlns="http://www.w3.org/2000/svg">
<g clip-path="url(#clip0_1145_7243)">
<path d="M40.4783 14.5642L31.0625 20.0005L20.5229 13.9143L9.9853 19.9987L0.569824 14.5642L5.83862 5.43736L15.2543 10.8716V0H25.7922V10.8737L35.2097 5.43736L40.4783 14.5642Z" fill="#7951AF"/>
<path d="M40.4783 25.4358L35.2097 34.5626L25.794 29.1281V40H15.2562V29.1263L5.83862 34.5626L0.569824 25.4358L9.9853 19.9992L20.5255 26.0857L31.0625 20.0013L40.4783 25.4358Z" fill="#006BFF"/>
<path d="M31.0636 20.0005L20.5255 26.0846L9.98535 19.9987L20.5237 13.9143L31.0636 20.0005Z" fill="#0022AF"/>
<path d="M58.7622 10.9126H51.0181V5.52864H72.4708V10.9126H64.7675V34.5188H58.7622V10.9126Z" fill="#0022AF"/>
<path d="M82.4924 17.9915C81.3326 17.9915 80.3244 18.3022 79.4688 18.9235C78.6131 19.5449 78.0747 20.4082 77.8537 21.5116H86.6339C86.6891 20.2975 86.3167 19.4067 85.5161 18.8405C84.7148 18.2747 83.7076 17.9915 82.4929 17.9915H82.4924ZM82.4924 13.5606C86.054 13.5606 88.6149 14.6373 90.1747 16.7908C91.7343 18.9445 92.128 21.7603 91.3552 25.2392H77.8128C78.0052 27.9998 79.7728 29.5044 83.1137 29.7534C84.2732 29.8084 85.1567 29.7951 85.7635 29.7124C87.6408 29.4912 89.2282 29.0911 90.5272 28.5107L91.1895 32.7349C88.6766 33.9224 86.0952 34.5157 83.4451 34.5157C80.049 34.5709 77.2951 33.6324 75.1826 31.6999C73.0709 29.7674 72.0142 27.1308 72.0142 23.7898C72.0697 20.5041 73.1119 17.978 75.1417 16.2104C77.1704 14.4436 79.6203 13.5603 82.4924 13.5603V13.5606Z" fill="#0022AF"/>
<path d="M101.749 5.49052V21.9271H103.157C105.284 21.9271 106.774 21.2733 107.631 19.9624C108.487 18.6502 108.915 16.8481 108.915 14.5575H114.381C114.438 16.8759 114.119 18.8569 113.428 20.4997C112.739 22.1426 111.467 23.448 109.617 24.4135L115.334 33.9387V34.5188H109.495L104.731 26.2353C104.235 26.401 103.682 26.4848 103.076 26.4848H101.749V34.5188H95.9941V5.49052H101.749Z" fill="#0022AF"/>
<path d="M132.355 14.1581H138.153V28.1144C138.153 29.1367 138.256 29.8068 138.464 30.1229C138.671 30.4414 139.188 30.5726 140.017 30.5163L140.058 34.1194C139.257 34.3129 138.477 34.4369 137.718 34.4931C136.958 34.5473 136.185 34.5131 135.398 34.3891C134.612 34.2654 133.977 33.9338 133.493 33.3954C133.01 32.857 132.769 32.1317 132.769 31.2207C132.244 32.2977 131.395 33.099 130.222 33.6231C129.048 34.1472 127.771 34.4102 126.391 34.4102C121.449 34.4102 118.978 31.4694 118.978 25.5883V14.1581H124.817V25.5883C124.762 26.9412 125.058 27.9904 125.708 28.7358C126.356 29.4819 127.205 29.8542 128.254 29.8542C129.442 29.882 130.422 29.4886 131.195 28.6738C131.968 27.86 132.355 26.7898 132.355 25.4643V14.1581Z" fill="#0022AF"/>
</g>
<defs>
<clipPath id="clip0_1145_7243">
<rect width="139.488" height="40" fill="white" transform="translate(0.569824)"/>
</clipPath>
</defs>
</svg>
