<svg width="32" height="32" viewBox="0 0 32 32" fill="none" xmlns="http://www.w3.org/2000/svg">
<rect width="32" height="32" rx="16" fill="#F0F3FF"/>
<path d="M11.4165 17.666H12.7082C12.8193 17.666 12.9271 17.6416 13.0315 17.5927C13.1359 17.5438 13.2226 17.4849 13.2915 17.416L17.9582 12.791C18.0415 12.7077 18.0832 12.6035 18.0832 12.4785C18.0832 12.3535 18.0415 12.2494 17.9582 12.166L16.4998 10.7077C16.4165 10.6244 16.3123 10.5827 16.1873 10.5827C16.0623 10.5827 15.9582 10.6244 15.8748 10.7077L11.2498 15.3744C11.1804 15.4438 11.1215 15.5307 11.0732 15.6352C11.0248 15.7396 11.0004 15.8471 10.9998 15.9577V17.2494C10.9998 17.3605 11.0415 17.4577 11.1248 17.541C11.2082 17.6244 11.3054 17.666 11.4165 17.666ZM14.7498 17.666H20.1665C20.4026 17.666 20.6007 17.586 20.7607 17.426C20.9207 17.266 21.0004 17.0682 20.9998 16.8327C20.9998 16.5966 20.9198 16.3985 20.7598 16.2385C20.5998 16.0785 20.4021 15.9988 20.1665 15.9994H16.4165L14.7498 17.666ZM10.9998 20.9994L9.08317 22.916C8.81928 23.1799 8.51706 23.2391 8.17651 23.0935C7.83595 22.948 7.66595 22.6874 7.66651 22.3119V9.33268C7.66651 8.87435 7.82984 8.48185 8.15651 8.15518C8.48317 7.82852 8.87539 7.66546 9.33317 7.66602H22.6665C23.1248 7.66602 23.5173 7.82935 23.844 8.15602C24.1707 8.48268 24.3337 8.87491 24.3332 9.33268V19.3327C24.3332 19.791 24.1698 20.1835 23.8432 20.5102C23.5165 20.8369 23.1243 20.9999 22.6665 20.9994H10.9998ZM9.33317 19.3327H22.6665V9.33268H9.33317V19.3327Z" fill="#011B6D"/>
</svg>
