<svg width="61" height="60" viewBox="0 0 61 60" fill="none" xmlns="http://www.w3.org/2000/svg">
<path d="M30.7602 47.8949C40.5786 47.8949 48.538 39.9355 48.538 30.1171C48.538 20.2987 40.5786 12.3394 30.7602 12.3394C20.9418 12.3394 12.9824 20.2987 12.9824 30.1171C12.9824 39.9355 20.9418 47.8949 30.7602 47.8949Z" fill="#011B6D" stroke="#D1D1D1" stroke-width="0.944444"/>
<path fill-rule="evenodd" clip-rule="evenodd" d="M33.5364 23.1981L35.783 25.4512H23.1279V26.7058H35.783L33.5373 28.9581L34.422 29.8428L38.1867 26.0781L34.422 22.3134L33.5373 23.1981H33.5364ZM23.127 33.6075L26.8917 37.3722L27.7764 36.4875L25.5307 34.2352H38.1867V32.9806H25.5307L27.7764 30.7275L26.8917 29.8428L23.127 33.6075Z" fill="white"/>
</svg>
