<svg width="265" height="200" viewBox="0 0 265 200" fill="none" xmlns="http://www.w3.org/2000/svg">
<g clip-path="url(#clip0_680_5223)">
<path d="M155.411 16.0342C130.008 42.3152 116.721 44.215 84.5361 58.7535C58.223 70.6395 32.1679 93.7429 23.2798 122.53C-0.135061 198.366 103.938 207.849 153.079 195.468C187.677 186.752 201.518 166.678 210.279 133.376C213.686 120.423 214.68 106.414 220.293 94.0882C226.323 80.8455 238.67 74.3982 244.817 62.7707C274.611 6.4145 189.272 -18.9965 155.411 16.0342H155.411Z" fill="#4079BC"/>
<path d="M112.766 200C79.5538 199.999 42.9004 191.555 27.4368 168.671H167.586C172.108 173.744 177.545 177.982 183.639 181.125C175.746 187.509 165.819 192.258 153.08 195.468C141.799 198.31 127.629 200 112.766 199.999V200ZM230.151 80.2758C223.654 77.6113 216.538 76.1415 209.081 76.1415C204.421 76.1415 199.896 76.7147 195.57 77.7954V68.3121L195.57 39.8602H126.027C135.243 34.5646 144.133 27.7023 155.411 16.0342C166.038 5.0399 181.732 0 197.35 0C224.299 0 251.014 15.0182 251.023 40.3579C251.026 47.1238 249.125 54.6221 244.817 62.7707C241.217 69.5809 235.49 74.6134 230.151 80.2758Z" fill="#E1EDF9"/>
<path d="M0.00012207 26.3583C0.00012207 24.0519 1.88721 22.1641 4.19438 22.1641H191.376C193.683 22.1641 195.57 24.0519 195.57 26.3583V39.8588H0.00012207L0.00012207 26.3583Z" fill="#2D3D43"/>
<path d="M33.9106 28.2108C32.3663 28.2108 31.1105 29.4674 31.1105 31.0111C31.1105 32.5546 32.3663 33.8112 33.9106 33.8112C35.4542 33.8112 36.7101 32.5546 36.7101 31.0111C36.7101 29.4674 35.4542 28.2108 33.9106 28.2108ZM33.9106 34.554C31.9567 34.554 30.3677 32.9642 30.3677 31.0111C30.3677 29.058 31.9567 27.4688 33.9106 27.4688C35.8637 27.4688 37.4529 29.058 37.4529 31.0111C37.4529 32.9642 35.8637 34.554 33.9106 34.554Z" fill="#EAEAE9"/>
<path d="M22.674 28.2108C21.1298 28.2108 19.8737 29.4674 19.8737 31.0111C19.8737 32.5546 21.1298 33.8112 22.674 33.8112C24.2177 33.8112 25.4735 32.5546 25.4735 31.0111C25.4735 29.4674 24.2177 28.2108 22.674 28.2108ZM22.674 34.554C20.7201 34.554 19.1311 32.9642 19.1311 31.0111C19.1311 29.058 20.7201 27.4688 22.674 27.4688C24.6271 27.4688 26.2163 29.058 26.2163 31.0111C26.2163 32.9642 24.6271 34.554 22.674 34.554Z" fill="#EAEAE9"/>
<path d="M11.4373 28.2108C9.89282 28.2108 8.63697 29.4674 8.63697 31.0111C8.63697 32.5546 9.89282 33.8112 11.4373 33.8112C12.9807 33.8112 14.2368 32.5546 14.2368 31.0111C14.2368 29.4674 12.9807 28.2108 11.4373 28.2108ZM11.4373 34.554C9.48337 34.554 7.89417 32.9642 7.89417 31.0111C7.89417 29.058 9.48337 27.4688 11.4373 27.4688C13.3904 27.4688 14.9794 29.058 14.9794 31.0111C14.9794 32.9642 13.3904 34.554 11.4373 34.554Z" fill="#EAEAE9"/>
<path d="M191.376 168.671H4.19438C1.88721 168.671 0.00012207 166.783 0.00012207 164.476V39.8594H195.57V164.476C195.57 166.783 193.683 168.671 191.376 168.671Z" fill="#4079BC"/>
<path d="M1.18762 43.4492H194.382V153.888H1.18762V43.4492Z" fill="white"/>
<path d="M86.7892 67.8321H13.2006C11.7945 67.8321 10.6555 66.6925 10.6555 65.2872V55.459C10.6555 54.0536 11.7945 52.9141 13.2006 52.9141H86.7892C88.1947 52.9141 89.3343 54.0536 89.3343 55.459V65.2872C89.3343 66.6925 88.1947 67.8321 86.7892 67.8321Z" fill="#4079BC"/>
<path d="M182.369 52.9141H108.78C107.375 52.9141 106.235 54.0536 106.235 55.4597V65.2872C106.235 66.6925 107.375 67.8321 108.78 67.8321H182.369C183.775 67.8321 184.915 66.6925 184.915 65.2872V55.4597C184.915 54.0536 183.775 52.9141 182.369 52.9141ZM182.369 53.5819C183.404 53.5819 184.247 54.4243 184.247 55.4597V65.2872C184.247 66.3218 183.404 67.1642 182.369 67.1642H108.78C107.746 67.1642 106.903 66.3218 106.903 65.2872V55.4597C106.903 54.4243 107.746 53.5819 108.78 53.5819H182.369Z" fill="#4079BC"/>
<path d="M23.7338 73.8438C16.5103 73.8438 10.6549 79.6999 10.6549 86.9229C10.6549 94.1464 16.5103 100.002 23.7338 100.002C30.9576 100.002 36.8129 94.1464 36.8129 86.9229C36.8129 79.6999 30.9576 73.8438 23.7338 73.8438ZM23.7338 74.5118C30.5775 74.5118 36.1451 80.0793 36.1451 86.9229C36.1451 93.7664 30.5775 99.3339 23.7338 99.3339C16.8903 99.3339 11.3228 93.7664 11.3228 86.9229C11.3228 80.0793 16.8903 74.5118 23.7338 74.5118Z" fill="#4079BC"/>
<path d="M23.7339 97.7147C19.6306 97.7147 16.0649 95.4269 14.244 92.0623C16.9614 90.2474 20.2231 89.1875 23.7339 89.1875C27.2448 89.1875 30.5059 90.2475 33.224 92.0623C31.4032 95.4269 27.8375 97.7147 23.7339 97.7147Z" fill="#A1C2E6"/>
<path d="M23.7339 88.0385C21.0787 88.0385 18.926 85.8856 18.926 83.2299C18.926 80.5746 21.0789 78.4219 23.7339 78.4219C26.39 78.4219 28.5419 80.5748 28.5419 83.2299C28.5419 85.8858 26.3898 88.0385 23.7339 88.0385Z" fill="#A1C2E6"/>
<path d="M157.926 93.6457H50.884C47.1707 93.6457 44.1608 90.6357 44.1608 86.9224C44.1608 83.2092 47.1707 80.1992 50.884 80.1992H170.578C165.727 84.028 161.457 88.5623 157.926 93.6457Z" fill="#A1C2E6"/>
<path d="M23.7338 109.469C16.5103 109.469 10.6549 115.324 10.6549 122.548C10.6549 129.771 16.5103 135.627 23.7338 135.627C30.9576 135.627 36.8129 129.771 36.8129 122.548C36.8129 115.324 30.9576 109.469 23.7338 109.469ZM23.7338 110.137C30.5775 110.137 36.1451 115.704 36.1451 122.548C36.1451 129.391 30.5775 134.959 23.7338 134.959C16.8903 134.959 11.3228 129.391 11.3228 122.548C11.3228 115.704 16.8903 110.137 23.7338 110.137Z" fill="#4079BC"/>
<path d="M23.7339 133.344C19.6306 133.344 16.0649 131.056 14.244 127.691C16.9614 125.876 20.2231 124.816 23.7339 124.816C27.2448 124.816 30.5059 125.876 33.224 127.691C31.4032 131.056 27.8375 133.344 23.7339 133.344Z" fill="#A1C2E6"/>
<path d="M23.7339 123.664C21.0787 123.664 18.926 121.511 18.926 118.855C18.926 116.2 21.0789 114.047 23.7339 114.047C26.39 114.047 28.5419 116.2 28.5419 118.855C28.5419 121.511 26.3898 123.664 23.7339 123.664Z" fill="#A1C2E6"/>
<path d="M146.835 129.275H50.884C47.1707 129.275 44.1608 126.265 44.1608 122.551C44.1608 118.838 47.1707 115.828 50.884 115.828H148.254C147.325 120.099 146.835 124.534 146.835 129.08C146.835 129.145 146.835 129.21 146.835 129.275Z" fill="#A1C2E6"/>
<path d="M195.57 77.7958V68.3125C195.57 68.3125 195.57 68.3125 195.57 68.3125V77.7958H195.57Z" fill="#CAD2DE"/>
<path d="M167.585 168.67H136.448C135.987 166.779 135.746 164.809 135.746 162.778C135.746 159.675 136.325 156.672 137.39 153.887H158.114C160.482 159.321 163.694 164.305 167.585 168.67V168.67ZM194.382 78.1066V68.5884C194.777 68.4929 195.173 68.4007 195.57 68.3125L195.57 77.7958C195.173 77.8946 194.775 77.999 194.382 78.1066Z" fill="#3A74B8"/>
<path d="M158.113 153.888H137.39C139.403 148.625 143.155 144.142 148.03 141.251C147.248 137.313 146.847 133.304 146.835 129.274H153.565C153.53 130.083 153.513 130.895 153.513 131.712C153.513 139.596 155.153 147.095 158.114 153.888H158.113ZM155.816 115.828H148.254C150.014 107.74 153.351 100.234 157.926 93.6491H168.595C162.747 99.8665 158.316 107.432 155.816 115.828ZM183.252 82.4985C182.019 81.091 180.209 80.2027 178.192 80.2027H170.578C177.484 74.7513 185.569 70.7308 194.382 68.5898V78.108C190.484 79.1747 186.758 80.6544 183.252 82.4987V82.4985Z" fill="#DEE0E0"/>
<path d="M168.595 93.6457H157.926C161.457 88.5625 165.727 84.028 170.578 80.1992H178.191C180.209 80.1992 182.019 81.0876 183.251 82.495C177.759 85.3833 172.809 89.1647 168.594 93.6455L168.595 93.6457Z" fill="#90B0DC"/>
<path d="M153.564 129.275H146.835C146.835 129.21 146.835 129.145 146.835 129.08C146.835 124.534 147.325 120.099 148.254 115.828H155.816C154.538 120.116 153.766 124.621 153.564 129.275Z" fill="#90B0DC"/>
<path d="M264.649 131.709C264.649 162.399 239.771 187.278 209.081 187.278C178.391 187.278 153.512 162.399 153.512 131.709C153.512 101.02 178.391 76.1406 209.081 76.1406C239.771 76.1406 264.649 101.02 264.649 131.709Z" fill="#4079BC"/>
<path d="M259.999 131.637C259.999 159.614 237.319 182.294 209.342 182.294C181.365 182.294 158.685 159.614 158.685 131.637C158.685 103.66 181.365 80.9805 209.342 80.9805C237.319 80.9805 259.999 103.66 259.999 131.637Z" fill="white"/>
<path d="M181.824 124.035C181.811 123.986 181.803 123.917 181.799 123.842L181.858 123.995C181.904 124.154 181.854 124.164 181.824 124.035H181.824ZM192.253 97.6484L189.019 101.789C189.019 101.789 186.18 103.944 185.106 105.785C183.849 107.03 182.697 108.303 181.562 109.643C180.284 111.164 179.07 112.755 177.93 114.459C176.816 116.188 175.727 117.972 174.909 120.199C174.515 121.326 174.135 122.547 174.101 124.2C174.094 125.025 174.198 125.994 174.607 127.038C175.007 128.082 175.8 129.142 176.726 129.843L177.435 130.38L178.498 130.581C180.637 130.986 182.765 131.186 184.858 131.205L185.7 131.135L184.851 122.684C184.134 122.711 182.6 122.824 181.896 122.809C181.92 122.678 181.948 122.545 181.981 122.411C182.321 120.99 182.968 119.34 183.723 117.741C184.47 116.122 185.332 114.498 186.228 112.876C187.014 111.45 187.859 110.013 188.684 108.611L192.682 106.088L195.032 101.924L192.253 97.6486L192.253 97.6484Z" fill="#8E4A4A"/>
<path d="M215.015 106.601C215.117 106.088 214.954 106.053 214.823 106.055C214.721 106.057 214.398 106.305 214.323 106.615C213.703 107.578 212.936 108.41 211.923 109.142C211.791 109.236 211.663 109.333 211.523 109.424C210.237 110.266 208.89 110.67 207.585 110.721C207.611 110.861 207.637 111.002 207.658 111.142C207.71 111.471 207.746 111.798 207.769 112.122C207.918 114.253 207.363 116.232 204.965 117.364C204.955 117.497 204.638 117.635 204.531 117.73C203.861 118.326 202.931 119.636 202.941 120.768C202.948 121.641 203.757 122.325 204.716 123.153L206.067 124.057L207.896 123.883C213.516 122.234 216.135 117.1 216.014 116.72C214.56 114.343 214.58 110.197 215.015 106.6V106.601Z" fill="#8E4A4A"/>
<path d="M227.162 118.769C227.162 118.769 226.785 118.701 226.142 118.598C224.811 118.385 218.85 117.037 215.973 116.777L215.97 116.782C215.293 118.199 213.114 121.674 207.495 123.324L206.104 123.653L204.796 122.957C203.837 122.13 203.345 121.268 203.338 120.396C203.328 119.263 204.124 118.313 204.794 117.718L204.909 117.563C204.897 117.402 204.897 117.297 204.912 117.281C204.493 117.334 199.167 118.144 198.714 118.216C191.779 119.316 183.973 122.309 183.973 122.309L184.028 122.788L185.359 134.389C185.359 134.389 188.036 134.09 191.538 133.472C190.578 141.984 190.396 154.314 193.313 170.166C196.387 170.108 204.716 169.943 204.717 169.952C212.904 169.799 221.495 169.637 224.527 169.58C224.609 168.248 224.464 165.482 224.318 161.701L224.14 155.866C224.032 150.709 224.055 144.524 224.517 137.879C224.59 136.833 224.675 135.775 224.771 134.708L224.775 134.712C228.823 139.092 232.878 143.274 232.878 143.274L234.791 141.43C237.244 140.244 239.175 138.13 240.859 135.58L243.109 133.413C243.109 133.413 232.638 119.69 227.162 118.769Z" fill="#4079BC"/>
<path d="M224.517 137.88L222.978 135.25C222.268 134.036 221.822 132.687 221.676 131.312C222.658 132.411 223.714 133.568 224.771 134.71C224.676 135.763 224.591 136.808 224.519 137.84C224.518 137.853 224.517 137.867 224.517 137.88H224.517Z" fill="#2B68B0"/>
<path d="M224.518 137.883L224.517 137.881C224.517 137.868 224.518 137.854 224.519 137.841C224.591 136.809 224.676 135.764 224.771 134.711L224.774 134.715C224.678 135.78 224.59 136.839 224.518 137.883Z" fill="#AAAFAF"/>
<path d="M224.519 137.841C224.591 136.809 224.676 135.764 224.77 134.711H224.771C224.676 135.764 224.591 136.809 224.519 137.841Z" fill="#2B68B0"/>
<path d="M207.585 110.719C207.611 110.859 207.637 110.999 207.659 111.14C207.637 110.999 207.611 110.859 207.585 110.719H207.585Z" fill="#8E4A4A"/>
<path d="M211.923 109.141C211.791 109.236 211.663 109.332 211.523 109.423C210.237 110.265 208.89 110.669 207.585 110.721C207.611 110.861 207.637 111.001 207.659 111.141C207.71 111.47 207.746 111.797 207.769 112.121L207.776 112.178C209.212 111.944 211.083 110.624 211.923 109.141V109.141Z" fill="#8E4A4A"/>
<path d="M219.421 117.792C219.302 117.251 218.888 116.795 218.315 116.659L216.926 116.328C216.562 116.241 216.202 116.403 216.015 116.718L215.97 116.781C215.293 118.198 213.114 121.673 207.495 123.323L207.058 123.427V123.426L206.104 123.653L204.796 122.957C203.837 122.129 203.345 121.267 203.338 120.395C203.328 119.262 204.124 118.313 204.794 117.717L204.986 117.469C205.046 117.316 205.034 117.239 204.926 117.171C203.456 116.109 200.149 117.747 200.019 118.031C199.878 118.167 199.738 118.317 199.6 118.482C198.928 119.293 198.36 120.458 198.532 122.023C198.913 125.497 201.793 127.141 201.916 127.209L202.012 127.233L202.117 127.203C202.178 127.164 202.214 127.095 202.208 127.023C202.202 126.923 202.079 124.607 204.681 123.342L205.852 123.964C200.825 144.581 204.235 169.287 204.329 169.956C204.576 169.952 204.717 169.95 204.717 169.951L204.723 169.927C204.687 169.677 201.179 144.752 206.242 124.024L207.469 123.733C208.891 125.47 208.217 128.049 208.21 128.076C208.19 128.148 208.213 128.226 208.271 128.276L208.4 128.324L208.478 128.307C208.746 128.19 215.063 125.419 217.272 122.782C218.584 121.216 219.166 119.557 219.423 118.442C219.474 118.221 219.468 118 219.421 117.791V117.792Z" fill="white"/>
<path d="M207.776 112.178L207.769 112.121C207.746 111.797 207.71 111.47 207.659 111.141C207.637 111.001 207.611 110.861 207.585 110.72C208.891 110.669 210.237 110.265 211.523 109.423C211.663 109.332 211.792 109.235 211.923 109.141C211.084 110.624 209.212 111.944 207.776 112.178V112.178Z" fill="#743E3E"/>
<path d="M202.203 93.5541C202.875 92.3544 203.69 91.2692 204.655 90.3979C204.198 90.0541 203.813 89.6665 203.522 89.2305C202.47 89.7242 201.476 91.1221 200.961 94.2455C200.827 95.0538 200.827 95.7945 200.906 96.4827C201.108 95.8947 201.338 95.3145 201.596 94.7506L202.203 93.5543V93.5541Z" fill="#2D3D43"/>
<path d="M214.618 101.757C217.633 98.2682 215.716 93.8248 213.952 92.8249C214.278 88.161 207.57 87.5512 204.655 90.4001C203.69 91.2713 202.875 92.3566 202.203 93.5563L201.596 94.7526C201.338 95.3165 201.108 95.8969 200.905 96.4847C200.13 98.7338 199.76 101.09 199.77 103.05C199.792 107.52 203.478 110.882 207.585 110.721C208.89 110.67 210.237 110.266 211.523 109.424C211.663 109.333 211.791 109.236 211.923 109.142C212.936 108.41 213.703 107.578 214.323 106.615C215.825 104.215 215.433 103.006 214.618 101.757Z" fill="#8E4A4A"/>
<path d="M201.23 94.3546C201.135 94.4741 201.154 94.6478 201.273 94.7434C201.325 94.7855 201.389 94.8054 201.451 94.8041L201.596 94.7527L201.661 94.7015C202.44 93.7308 203.443 93.7809 203.487 93.7837C203.635 93.793 203.77 93.678 203.781 93.5264C203.791 93.375 203.677 93.2433 203.525 93.232C203.489 93.2291 202.887 93.2031 202.203 93.5574C201.88 93.7243 201.54 93.9689 201.23 94.3548L201.23 94.3546Z" fill="#2D3D43"/>
<path d="M208.455 102.362L208.259 102.359C208.246 102.372 206.963 103.591 204.938 103.188C204.863 103.173 204.79 103.221 204.776 103.296C204.761 103.371 204.809 103.444 204.884 103.458C205.228 103.527 205.55 103.552 205.851 103.547C207.447 103.517 208.405 102.603 208.452 102.558L208.455 102.362H208.455Z" fill="#2D3D43"/>
<path d="M204.853 97.5898C204.853 97.5898 203.18 100.026 201.723 101.072C202.362 101.992 203.833 101.923 203.833 101.923L204.853 97.5898Z" fill="#742D2E"/>
<path d="M202.505 97.7535C202.807 97.8142 203.14 97.4909 203.247 97.0327C203.356 96.574 203.198 96.1537 202.897 96.093C202.595 96.0336 202.263 96.3561 202.155 96.8149C202.046 97.2731 202.203 97.6934 202.505 97.7535Z" fill="#2D3D43"/>
<path d="M207.724 98.7927C208.027 98.8529 208.359 98.5296 208.466 98.0713C208.574 97.6131 208.418 97.1923 208.116 97.1322C207.814 97.0722 207.482 97.3953 207.373 97.8535C207.265 98.3125 207.423 98.7328 207.724 98.7927Z" fill="#2D3D43"/>
<path d="M214.563 92.8049C214.379 92.8157 214.174 92.8217 213.953 92.8223C213.632 93.563 213.359 94.513 213.16 95.7254C212.718 98.398 213.623 100.415 214.619 101.755C215.989 104.081 217.742 104.016 219.262 102.244C221.709 99.8948 224.065 95.2124 219.199 91.5352C218.435 92.1892 216.998 92.6627 214.563 92.8049H214.563Z" fill="#2D3D43"/>
<path d="M217.966 100.869C216.862 100.417 215.612 100.948 214.618 101.755C214.052 102.214 213.568 102.762 213.242 103.271C212.297 104.747 212.632 106.466 214.323 106.612C214.417 106.621 214.512 106.627 214.614 106.625C214.745 106.623 214.88 106.611 215.015 106.598C216.212 106.483 217.541 105.947 218.537 104.927C219.295 104.154 219.539 103.11 219.262 102.244C219.074 101.658 218.654 101.151 217.966 100.869V100.869Z" fill="#8E4A4A"/>
<path d="M204.655 90.3983C207.098 92.2378 211.546 92.8332 213.952 92.8224C214.174 92.8218 214.379 92.8157 214.563 92.8049C216.998 92.6628 218.434 92.1892 219.199 91.5352C222.022 89.1178 215.586 84.2109 215.586 84.2109C215.586 84.2109 216.304 85.9717 214.807 86.4579C213.31 86.9431 202.761 83.02 202.941 87.4726C202.967 88.1314 203.178 88.7139 203.522 89.2302C203.812 89.6662 204.198 90.0538 204.655 90.3983H204.655Z" fill="#2D3D43"/>
<path d="M193.313 170.169C193.313 170.169 193.133 171.726 192.852 174.353C197.949 176.076 203.402 177.024 209.081 177.024C214.436 177.024 219.593 176.187 224.438 174.647C224.51 171.477 224.554 169.582 224.554 169.582L204.716 169.954L204.33 169.961L193.313 170.169V170.169Z" fill="#2D3D43"/>
<path d="M237.154 144.321L237.141 144.222C237.14 144.06 237.197 144.003 237.197 144.097C237.2 144.147 237.184 144.226 237.154 144.321H237.154ZM244.961 143.27C244.907 142.711 244.772 142.14 244.575 141.604C244.472 141.34 244.365 141.07 244.234 140.83L244.036 140.466L243.929 140.284C242.98 138.638 241.945 137.083 240.859 135.582L234.791 141.432C235.599 142.43 236.377 143.439 237.099 144.465C236.999 144.729 236.827 145.075 236.586 145.431C235.794 146.605 234.587 147.91 233.279 149.111C230.795 151.425 227.911 153.63 225.066 155.742L224.14 155.868L220.411 156.374L216.746 158.849L219.155 163.756L222.186 162.204C222.186 162.204 223.202 162.086 224.318 161.703C225.346 161.351 226.458 160.772 226.943 159.845C228.752 159.137 230.445 158.345 232.151 157.467C233.942 156.538 235.696 155.513 237.423 154.339C238.285 153.745 239.133 153.108 239.976 152.404C240.82 151.701 241.652 150.924 242.452 149.981C243.24 149.023 244.061 147.933 244.629 146.262C244.904 145.431 245.074 144.393 244.96 143.27L244.961 143.27Z" fill="#8E4A4A"/>
<path d="M179.1 160.063C179.1 170.189 170.891 178.398 160.764 178.398C150.637 178.398 142.428 170.189 142.428 160.063C142.428 149.936 150.637 141.727 160.764 141.727C170.891 141.727 179.1 149.936 179.1 160.063Z" fill="#2D3D43"/>
<path d="M170.845 158.346H162.481V149.982C162.481 149.038 161.709 148.266 160.764 148.266C159.82 148.266 159.048 149.038 159.048 149.982V158.346H150.684C149.74 158.346 148.967 159.119 148.967 160.063C148.967 161.007 149.74 161.78 150.684 161.78H159.048V170.144C159.048 171.088 159.82 171.86 160.764 171.86C161.709 171.86 162.481 171.088 162.481 170.144V161.78H170.845C171.789 161.78 172.561 161.007 172.561 160.063C172.561 159.119 171.789 158.346 170.845 158.346Z" fill="white"/>
<path d="M208.726 95.3201C208.778 95.3275 209.752 95.4791 210.245 96.5593C210.293 96.6623 210.395 96.723 210.502 96.7204L210.611 96.6955C210.75 96.6321 210.812 96.4676 210.748 96.3288C210.12 94.9549 208.849 94.7784 208.796 94.7718C208.646 94.7524 208.506 94.8593 208.486 95.0109C208.468 95.1617 208.574 95.3002 208.726 95.3201Z" fill="#2D3D43"/>
</g>
<defs>
<clipPath id="clip0_680_5223">
<rect width="264.649" height="200" fill="white"/>
</clipPath>
</defs>
</svg>
