<svg width="25" height="24" viewBox="0 0 25 24" fill="none" xmlns="http://www.w3.org/2000/svg">
<g id="emojione-v1:ringing-bell" clip-path="url(#clip0_1332_732)">
<g id="Group">
<path id="Vector" d="M14.9941 18.4838C19.8092 16.5028 23.3781 14.0839 22.9655 13.0808C22.5528 12.0778 18.3149 12.8705 13.4998 14.8514C8.68467 16.8323 5.11577 19.2513 5.52842 20.2543C5.94107 21.2574 10.179 20.4647 14.9941 18.4838Z" fill="#BD851D"/>
<path id="Vector_2" d="M14.4122 17.052C16.7667 16.0839 18.435 14.7145 18.1385 13.9933C17.842 13.2721 15.6929 13.4723 13.3384 14.4404C10.9839 15.4085 9.31558 16.7779 9.6121 17.4991C9.90863 18.2203 12.0577 18.0201 14.4122 17.052Z" fill="#844F15"/>
</g>
<path id="Vector_3" d="M11.6294 18.03L11.2923 15.7687C11.2327 15.3697 10.7155 15.1144 10.1347 15.2014C9.55378 15.2884 9.13266 15.6821 9.19228 16.0822L9.53016 18.3435C8.42278 18.8104 7.71703 19.6957 7.85128 20.5901C8.02341 21.7444 9.51441 22.4764 11.1843 22.2262C12.8508 21.9772 14.0635 20.8417 13.8925 19.6879C13.7583 18.7927 12.8245 18.1534 11.6275 18.03" fill="#FBB041"/>
<path id="Vector_4" d="M9.04153 20.4112C8.90803 19.5161 9.61528 18.6307 10.72 18.1646L10.3822 15.9034C10.3458 15.6559 10.4954 15.4102 10.7485 15.2392C10.5494 15.1806 10.3396 15.1673 10.1347 15.2002C9.55378 15.2872 9.13266 15.681 9.19228 16.0811L9.53016 18.3424C8.42278 18.8092 7.71703 19.6946 7.85128 20.589C8.02341 21.7432 9.51441 22.4752 11.1843 22.2251C11.3834 22.1948 11.5803 22.1515 11.7738 22.0954C10.3612 22.1111 9.19341 21.4234 9.04153 20.4112Z" fill="#E09734"/>
<path id="Vector_5" d="M13.4899 19.7749C13.5312 20.0546 13.4922 20.3243 13.3932 20.5538C13.368 20.61 13.3395 20.6651 13.3069 20.7158C13.1884 20.8894 12.8659 21.1913 12.8127 20.9449C12.7906 20.8387 12.7619 20.734 12.7268 20.6314C12.7089 20.5811 12.6898 20.5314 12.6694 20.4821C12.4399 19.7846 11.937 19.8859 11.529 19.617C11.3269 19.4951 11.4702 19.2199 11.5785 19.089C11.6145 19.0391 11.6524 18.9945 11.691 18.9536C11.8474 18.7894 12.024 18.6881 12.2217 18.6709C12.2799 18.6625 12.3387 18.6592 12.3975 18.6608C12.9255 18.6825 13.3954 19.1456 13.4899 19.7749Z" fill="#F9C178"/>
<path id="Vector_6" d="M10.6225 2.55336C10.8936 3.21186 10.3398 4.06461 9.38651 4.45574C8.43101 4.84949 7.43914 4.63274 7.16801 3.97386C6.89689 3.31536 7.45001 2.46261 8.40589 2.07036C9.35801 1.67849 10.3514 1.89449 10.6225 2.55336Z" fill="#FBB041"/>
<path id="Vector_7" d="M10.0815 2.43038C10.1325 2.55375 10.1217 2.69213 10.062 2.82488C10.0464 2.85854 10.0285 2.89112 10.0084 2.92238C9.93004 3.033 9.70579 3.25388 9.64841 3.14925C9.61223 3.07929 9.56471 3.01581 9.50779 2.96138C9.28541 2.68388 8.90966 2.85075 8.58304 2.81925C8.42104 2.80988 8.51066 2.64413 8.58379 2.556C8.60816 2.52375 8.63329 2.49375 8.66179 2.46488C8.76654 2.34867 8.89756 2.25918 9.04391 2.20388C9.08801 2.18655 9.13279 2.17103 9.17816 2.15738C9.57941 2.043 9.96754 2.1525 10.0815 2.43038Z" fill="#F9C178"/>
<path id="Vector_8" d="M8.50995 3.09863C8.36708 2.75213 8.42333 2.35838 8.62995 1.99051C8.55404 2.01413 8.47911 2.04077 8.40533 2.07038C7.44983 2.46338 6.89783 3.31538 7.16745 3.97388C7.43858 4.63238 8.43045 4.84913 9.38595 4.45576C9.73658 4.31213 10.0336 4.10513 10.2552 3.86888C9.45045 3.95513 8.74395 3.67051 8.50995 3.09863Z" fill="#E09734"/>
<g id="Group_2">
<path id="Vector_9" fill-rule="evenodd" clip-rule="evenodd" d="M19.3211 11.2687C17.8391 10.5521 16.8056 9.44849 16.0073 8.11912C15.2535 6.86024 14.646 5.53049 14.061 4.19474C13.7066 3.38849 13.1141 3.09149 12.1913 3.15712C11.5576 3.20384 10.9299 3.31172 10.317 3.47924C9.9649 3.60637 9.61502 3.73837 9.26102 3.87299C8.88227 4.03949 8.51102 4.20562 8.14052 4.37849C7.95115 4.46737 7.76177 4.55699 7.5739 4.64737C7.09517 4.93085 6.64141 5.25451 6.21752 5.61487C5.51552 6.21674 5.3029 6.84449 5.61865 7.66762C6.14252 9.02774 6.64652 10.3991 6.99602 11.8264C7.36465 13.3339 7.40552 14.8451 6.8569 16.3969C6.5749 17.1945 6.2344 17.9726 5.9014 18.7537C5.68765 19.2536 5.48327 19.755 5.5219 20.2909C5.59315 20.3317 5.64377 20.3107 5.67977 20.238C6.14102 19.3155 6.98815 18.7136 7.82815 18.1215C9.2749 17.1015 10.8506 16.2881 12.4601 15.5347C12.8295 15.3611 13.2034 15.1969 13.5806 15.0304C13.9658 14.8822 14.3479 14.7371 14.7326 14.6006C16.4081 14.0021 18.0986 13.4719 19.8446 13.1797C20.8575 13.0091 21.8835 12.8419 22.8596 13.1719C22.9373 13.1989 22.9871 13.1786 23.0081 13.0999C22.6598 12.6922 22.1599 12.4792 21.6578 12.2741C20.871 11.9527 20.082 11.6385 19.3208 11.2706" fill="#FBB041"/>
<path id="Vector_10" fill-rule="evenodd" clip-rule="evenodd" d="M21.654 12.2663C20.8672 11.9456 20.0782 11.6306 19.317 11.2635C17.835 10.5469 16.8015 9.44288 16.0023 8.11313C15.2486 6.85425 14.6411 5.5245 14.0565 4.1895C13.7021 3.3825 13.1096 3.08625 12.1863 3.15225C11.5529 3.19836 10.9254 3.30599 10.3128 3.47363C9.96109 3.60113 9.61121 3.73313 9.25684 3.86813C9.04571 3.96075 8.83646 4.0575 8.62646 4.15163C8.76071 4.10138 8.89609 4.04963 9.03222 4.00013C9.64759 3.83438 10.2697 3.72413 10.9065 3.678C11.829 3.61275 12.4215 3.90975 12.7758 4.71713C13.3616 6.0525 13.9683 7.38188 14.7217 8.64C15.5208 9.97125 16.5543 11.0738 18.0363 11.7904C18.7976 12.1583 19.587 12.4725 20.3733 12.7931C20.547 12.8636 20.7183 12.9394 20.8848 13.0196C21.5501 12.9476 22.2138 12.9484 22.8558 13.1651C22.9327 13.1906 22.983 13.1708 23.0043 13.0928C22.656 12.6833 22.1561 12.4706 21.654 12.2663Z" fill="#F9C178"/>
<path id="Vector_11" fill-rule="evenodd" clip-rule="evenodd" d="M8.54374 17.2286C8.87712 16.4467 9.21724 15.6682 9.49924 14.8714C10.0479 13.3196 10.007 11.808 9.63762 10.3009C9.28887 8.87549 8.78411 7.50487 8.26099 6.14212C7.94524 5.31937 8.15824 4.69124 8.86062 4.08862C8.90374 4.05074 8.94949 4.01549 8.99411 3.97949C8.70649 4.10849 8.41887 4.23337 8.13612 4.36687C7.94599 4.45574 7.75662 4.54537 7.56874 4.63537C7.09022 4.91852 6.63671 5.24194 6.21311 5.60212C5.51037 6.20399 5.29774 6.83287 5.61424 7.65487C6.13774 9.01612 6.64211 10.3882 6.99124 11.8136C7.36061 13.3211 7.40149 14.8324 6.85211 16.3834C6.57011 17.1814 6.23037 17.9591 5.89737 18.7417C5.68361 19.2409 5.47924 19.7422 5.51786 20.2774C5.58911 20.319 5.63862 20.2972 5.67499 20.2249C6.13699 19.3027 6.98336 18.7012 7.82336 18.1084C7.99211 17.9906 8.16349 17.874 8.33562 17.76C8.39749 17.5815 8.46837 17.4037 8.54374 17.2275" fill="#E09734"/>
</g>
<g id="Group_3">
<path id="Vector_12" d="M23.8138 10.3324C23.6833 10.143 23.5539 9.95362 23.4249 9.768C23.405 9.738 23.3975 9.7125 23.3833 9.6855C23.366 9.65625 23.3469 9.62662 23.3345 9.59362C23.3143 9.54417 23.3015 9.49197 23.2967 9.43875C23.2959 9.42862 23.2903 9.41925 23.2888 9.40725C23.144 7.50225 22.0989 5.59687 20.4077 4.25775C19.499 3.53812 19.3037 3.78487 18.6317 2.80875C18.3575 2.40975 18.5319 2.07075 18.8627 2.1975C21.896 3.354 24.4674 7.0875 24.4655 10.3331C24.4659 10.6875 24.0868 10.7299 23.8138 10.3324Z" fill="#27AAE1"/>
<path id="Vector_13" d="M21.9537 10.6669L21.6346 10.2041C21.6181 10.179 21.6117 10.161 21.599 10.1366C21.5859 10.1122 21.5694 10.0871 21.5585 10.0605C21.5429 10.0199 21.5328 9.97739 21.5285 9.93412C21.5277 9.9255 21.5236 9.91687 21.5221 9.90825C21.4044 8.34037 20.543 6.77212 19.1506 5.66925C18.404 5.079 18.2435 5.27962 17.6911 4.47787C17.4646 4.14862 17.6075 3.86962 17.8805 3.9735C20.3772 4.92675 22.4919 7.99687 22.4911 10.6695C22.4915 10.9616 22.1799 10.9946 21.9537 10.6669ZM3.49549 17.8841L3.35936 17.2129C3.35224 17.1776 3.33911 17.154 3.32936 17.1251C3.32074 17.0929 3.31211 17.0584 3.29711 17.0261C3.27517 16.9775 3.24638 16.9323 3.21161 16.8919C3.20524 16.884 3.20149 16.8735 3.19511 16.8645C1.92461 15.4372 1.27924 13.3624 1.48999 11.217C1.60324 10.0635 1.91674 10.0939 1.68086 8.9325C1.58336 8.45775 1.21961 8.34787 1.08049 8.67412C-0.194138 11.6602 0.705487 16.1021 3.04361 18.3555C3.29899 18.6022 3.59111 18.3585 3.49549 17.8852" fill="#27AAE1"/>
<path id="Vector_14" d="M5.02624 16.7794C4.98836 16.5971 4.95086 16.41 4.91449 16.2292C4.90736 16.1992 4.89874 16.182 4.88936 16.1569C4.88149 16.1302 4.87511 16.1006 4.86349 16.0744C4.84518 16.0349 4.82145 15.9982 4.79299 15.9652C4.78736 15.9577 4.78436 15.9495 4.77949 15.9416C3.73286 14.7686 3.20299 13.059 3.37586 11.2927C3.46999 10.3451 3.72574 10.3687 3.53224 9.414C3.45311 9.02287 3.15274 8.93137 3.03799 9.20025C1.98949 11.6584 2.72974 15.3127 4.65349 17.1679C4.86461 17.3704 5.10499 17.169 5.02624 16.7786" fill="#27AAE1"/>
</g>
</g>
<defs>
<clipPath id="clip0_1332_732">
<rect width="24" height="24" fill="white" transform="translate(0.5)"/>
</clipPath>
</defs>
</svg>
