<svg width="33" height="32" viewBox="0 0 33 32" fill="none" xmlns="http://www.w3.org/2000/svg">
<rect x="0.5" width="32" height="32" rx="16" fill="#F0F3FF"/>
<g clip-path="url(#clip0_1047_14492)">
<path d="M15.1042 9.5975C15.4592 8.13417 17.5408 8.13417 17.8958 9.5975C17.9491 9.81733 18.0535 10.0215 18.2006 10.1933C18.3477 10.3652 18.5332 10.4999 18.7422 10.5865C18.9512 10.673 19.1776 10.709 19.4032 10.6916C19.6287 10.6741 19.8469 10.6036 20.04 10.4858C21.3258 9.7025 22.7983 11.1742 22.015 12.4608C21.8974 12.6539 21.827 12.8719 21.8096 13.0973C21.7922 13.3227 21.8281 13.549 21.9146 13.7578C22.0011 13.9667 22.1356 14.1521 22.3073 14.2992C22.4789 14.4463 22.6829 14.5508 22.9025 14.6042C24.3658 14.9592 24.3658 17.0408 22.9025 17.3958C22.6827 17.4491 22.4785 17.5535 22.3067 17.7006C22.1348 17.8477 22.0001 18.0332 21.9135 18.2422C21.827 18.4512 21.791 18.6776 21.8084 18.9032C21.8259 19.1287 21.8964 19.3469 22.0142 19.54C22.7975 20.8258 21.3258 22.2983 20.0392 21.515C19.8461 21.3974 19.6281 21.327 19.4027 21.3096C19.1773 21.2922 18.951 21.3281 18.7422 21.4146C18.5333 21.5011 18.3479 21.6356 18.2008 21.8073C18.0537 21.9789 17.9492 22.1829 17.8958 22.4025C17.5408 23.8658 15.4592 23.8658 15.1042 22.4025C15.0509 22.1827 14.9465 21.9785 14.7994 21.8067C14.6523 21.6348 14.4668 21.5001 14.2578 21.4135C14.0488 21.327 13.8224 21.291 13.5968 21.3084C13.3713 21.3259 13.1531 21.3964 12.96 21.5142C11.6742 22.2975 10.2017 20.8258 10.985 19.5392C11.1026 19.3461 11.173 19.1281 11.1904 18.9027C11.2078 18.6773 11.1719 18.451 11.0854 18.2422C10.9989 18.0333 10.8644 17.8479 10.6927 17.7008C10.5211 17.5537 10.3171 17.4492 10.0975 17.3958C8.63417 17.0408 8.63417 14.9592 10.0975 14.6042C10.3173 14.5509 10.5215 14.4465 10.6933 14.2994C10.8652 14.1523 10.9999 13.9668 11.0865 13.7578C11.173 13.5488 11.209 13.3224 11.1916 13.0968C11.1741 12.8713 11.1036 12.6531 10.9858 12.46C10.2025 11.1742 11.6742 9.70167 12.9608 10.485C13.7942 10.9917 14.8742 10.5433 15.1042 9.5975Z" stroke="#011B6D" stroke-width="1.5" stroke-linecap="round" stroke-linejoin="round"/>
<path d="M14 16C14 16.663 14.2634 17.2989 14.7322 17.7678C15.2011 18.2366 15.837 18.5 16.5 18.5C17.163 18.5 17.7989 18.2366 18.2678 17.7678C18.7366 17.2989 19 16.663 19 16C19 15.337 18.7366 14.7011 18.2678 14.2322C17.7989 13.7634 17.163 13.5 16.5 13.5C15.837 13.5 15.2011 13.7634 14.7322 14.2322C14.2634 14.7011 14 15.337 14 16Z" stroke="#011B6D" stroke-width="1.5" stroke-linecap="round" stroke-linejoin="round"/>
</g>
<defs>
<clipPath id="clip0_1047_14492">
<rect width="20" height="20" fill="white" transform="translate(6.5 6)"/>
</clipPath>
</defs>
</svg>
