<svg width="25" height="25" viewBox="0 0 25 25" fill="none" xmlns="http://www.w3.org/2000/svg">
<g id="mingcute:send-fill" clip-path="url(#clip0_635_7387)">
<path id="Vector" d="M15.323 18.9897L8.86866 15.4695C8.24911 16.0845 7.46135 16.5023 6.6047 16.6702C5.74805 16.8382 4.86086 16.7487 4.05497 16.4132C3.24908 16.0776 2.56058 15.511 2.07626 14.7847C1.59195 14.0584 1.3335 13.205 1.3335 12.332C1.3335 11.4591 1.59195 10.6057 2.07626 9.87938C2.56058 9.15309 3.24908 8.58646 4.05497 8.2509C4.86086 7.91535 5.74805 7.8259 6.6047 7.99383C7.46135 8.16176 8.24911 8.57956 8.86866 9.19454L15.323 5.67435C15.1016 4.63576 15.2615 3.5522 15.7734 2.62181C16.2853 1.69141 17.115 0.976366 18.1107 0.607423C19.1065 0.23848 20.2018 0.240297 21.1963 0.612542C22.1908 0.984787 23.0182 1.70258 23.527 2.63467C24.0357 3.56675 24.192 4.65084 23.9672 5.68869C23.7424 6.72653 23.1515 7.64878 22.3026 8.28677C21.4538 8.92477 20.4036 9.23588 19.3441 9.16322C18.2847 9.09055 17.2869 8.63897 16.533 7.89105L10.0787 11.4112C10.2073 12.0179 10.2073 12.6449 10.0787 13.2516L16.533 16.773C17.2869 16.0251 18.2847 15.5735 19.3441 15.5008C20.4036 15.4282 21.4538 15.7393 22.3026 16.3773C23.1515 17.0153 23.7424 17.9375 23.9672 18.9754C24.192 20.0132 24.0357 21.0973 23.527 22.0294C23.0182 22.9615 22.1908 23.6793 21.1963 24.0515C20.2018 24.4238 19.1065 24.4256 18.1107 24.0566C17.115 23.6877 16.2853 22.9726 15.7734 22.0423C15.2615 21.1119 15.1016 20.0283 15.323 18.9897Z" fill="#011B6D"/>
</g>
<defs>
<clipPath id="clip0_635_7387">
<rect width="24" height="24" fill="white" transform="translate(0.975098 0.5)"/>
</clipPath>
</defs>
</svg>
