<svg width="25" height="24" viewBox="0 0 25 24" fill="none" xmlns="http://www.w3.org/2000/svg">
<path d="M23.3377 15C23.6002 14.0625 23.7502 13.05 23.7502 12C23.7502 10.95 23.6002 9.93752 23.3377 9.00002H12.3877L6.0502 2.77502C4.5502 3.82502 3.3127 5.25002 2.4502 6.90002L7.6252 12L2.4877 17.1C3.3127 18.75 4.5502 20.175 6.0877 21.225L12.3877 15H23.3377Z" fill="#699635"/>
<path d="M1.8125 8.4375C1.4375 9.5625 1.25 10.7625 1.25 12C1.25 13.2375 1.4375 14.4375 1.8125 15.5625L5.4125 12L1.8125 8.4375Z" fill="#3E4347"/>
<path d="M7.3623 22.0125C8.8998 22.8 10.6623 23.25 12.4998 23.25C17.1123 23.25 21.0873 20.475 22.8123 16.4625H13.0248L7.3623 22.0125Z" fill="#428BC1"/>
<path d="M22.8123 7.5375C21.0873 3.525 17.1123 0.75 12.4998 0.75C10.6623 0.75 8.8998 1.2 7.3623 1.9875L13.0248 7.5375H22.8123Z" fill="#ED4C5C"/>
<path d="M23.1873 8.51249C23.0748 8.17499 22.9623 7.83749 22.8123 7.53749H13.0248L7.3623 1.98749C7.0998 2.09999 6.8748 2.24999 6.6123 2.39999C6.4248 2.51249 6.2373 2.66249 6.0498 2.77499L12.3873 8.99999H23.3373C23.2998 8.84999 23.2623 8.66249 23.1873 8.51249Z" fill="white"/>
<path d="M2.4876 6.90002C2.4501 6.97502 2.4126 7.05002 2.3751 7.16252C2.1876 7.57502 2.0001 7.98752 1.8501 8.43752L5.4501 12L1.8501 15.5625C2.0001 16.0125 2.1501 16.425 2.3751 16.8375C2.4126 16.9125 2.4501 16.9875 2.4876 17.1L7.6251 12L2.4876 6.90002Z" fill="#FFCE31"/>
<path d="M12.3873 15L6.0498 21.225C6.1623 21.3 6.3123 21.4125 6.4248 21.4875C6.7248 21.675 7.0248 21.8625 7.3623 22.0125L13.0248 16.4625H22.8123C22.9623 16.0875 23.1123 15.7125 23.2623 15.3C23.2998 15.1875 23.2998 15.1125 23.3373 15H12.3873Z" fill="white"/>
</svg>
