<svg width="14" height="14" viewBox="0 0 14 14" fill="none" xmlns="http://www.w3.org/2000/svg">
<path d="M10.9069 4.39608C10.9069 4.74147 10.7697 5.07273 10.5255 5.31696C10.2812 5.56119 9.94997 5.6984 9.60457 5.6984C9.25917 5.6984 8.92792 5.56119 8.68369 5.31696C8.43946 5.07273 8.30225 4.74147 8.30225 4.39608C8.30225 4.05068 8.43946 3.71943 8.68369 3.47519C8.92792 3.23096 9.25917 3.09375 9.60457 3.09375C9.94997 3.09375 10.2812 3.23096 10.5255 3.47519C10.7697 3.71943 10.9069 4.05068 10.9069 4.39608Z" fill="#011B6D"/>
<path fill-rule="evenodd" clip-rule="evenodd" d="M7.03712 0H6.96288C5.45935 0 4.2814 3.88123e-08 3.36195 0.123721C2.42167 0.250047 1.67935 0.514419 1.09656 1.09656C0.513767 1.67935 0.250047 2.42167 0.123721 3.3626C3.88123e-08 4.2814 0 5.45935 0 6.96288V7.03712C0 8.54065 3.88123e-08 9.71861 0.123721 10.638C0.250047 11.5783 0.514419 12.3207 1.09656 12.9034C1.67935 13.4862 2.42167 13.75 3.3626 13.8763C4.2814 14 5.45935 14 6.96288 14H7.03712C8.54065 14 9.71861 14 10.638 13.8763C11.5783 13.75 12.3207 13.4856 12.9034 12.9034C13.4862 12.3207 13.75 11.5783 13.8763 10.6374C14 9.71861 14 8.54065 14 7.03712V6.96288C14 5.45935 14 4.2814 13.8763 3.36195C13.75 2.42167 13.4856 1.67935 12.9034 1.09656C12.3207 0.513767 11.5783 0.250047 10.6374 0.123721C9.71861 3.88123e-08 8.54065 0 7.03712 0ZM1.78744 1.78744C2.1586 1.41628 2.66 1.20335 3.49284 1.09135C4.33935 0.978047 5.45153 0.976744 7 0.976744C8.54847 0.976744 9.66065 0.978047 10.5072 1.09135C11.34 1.20335 11.842 1.41693 12.2132 1.78744C12.5837 2.1586 12.7967 2.66 12.9087 3.49284C13.022 4.33935 13.0233 5.45153 13.0233 7L13.0226 7.83349L12.878 7.81395C11.0261 7.5574 9.33116 8.51981 8.46837 9.97126C7.35488 7.15498 4.41358 5.23405 1.12716 5.70614L0.98 5.72698C0.987163 4.81209 1.01191 4.0867 1.09135 3.49284C1.20335 2.66 1.41693 2.1586 1.78744 1.78744Z" fill="#011B6D"/>
</svg>
