<svg width="33" height="32" viewBox="0 0 33 32" fill="none" xmlns="http://www.w3.org/2000/svg">
<rect x="0.95874" width="32" height="32" rx="16" fill="#F0F3FF"/>
<path d="M7.45874 21.8812C8.42324 22.4147 15.4042 26.4387 20.3687 23.3372C25.3327 20.2357 25.0587 14.8922 25.0587 12.4432C25.5087 11.5012 26.4587 11.0222 26.4587 8.47217C25.5257 9.33417 24.5982 9.62717 23.6762 9.35217C22.7732 7.97517 21.5307 7.36567 19.9482 7.52467C17.5752 7.76317 16.7072 10.0912 16.9627 13.1037C13.3037 14.9537 10.4347 11.7622 8.95574 9.35217C8.46174 11.2502 7.98574 13.5292 8.95574 16.0497C9.60274 17.7307 11.1582 19.1512 13.6212 20.3127C11.1247 21.6652 9.07074 22.1887 7.45874 21.8812Z" stroke="#011B6D" stroke-width="2" stroke-linejoin="round"/>
</svg>
