<svg width="25" height="24" viewBox="0 0 25 24" fill="none" xmlns="http://www.w3.org/2000/svg">
<path d="M8.75019 22.6125V17.4375L4.8877 20.2875C5.97519 21.3 7.28769 22.0875 8.75019 22.6125ZM16.2502 22.6125C17.7127 22.0875 19.0252 21.3 20.1127 20.2875L16.2502 17.4V22.6125ZM1.8877 15.75C2.0002 16.125 2.1502 16.4625 2.3377 16.8375L3.8002 15.75H1.8877ZM21.2002 15.75L22.6627 16.8375C22.8127 16.5 22.9627 16.125 23.1127 15.75H21.2002Z" fill="#2A5F9E"/>
<path d="M9.3126 14.25H1.4751C1.5876 14.775 1.7376 15.2625 1.8876 15.75H3.8001L2.3376 16.8375C2.6376 17.475 2.9751 18.0375 3.3876 18.6L7.2501 15.75H8.7501V16.5L4.3626 19.725L4.8876 20.25L8.7501 17.4375V22.6125C9.2376 22.8 9.7251 22.9125 10.2501 23.025V14.25H9.3126ZM23.5251 14.25H14.7501V23.025C15.2751 22.9125 15.7626 22.7625 16.2501 22.6125V17.4375L20.1126 20.25C20.6376 19.7625 21.0876 19.2375 21.5376 18.675L17.5251 15.75H20.0751L22.3626 17.4375C22.4751 17.25 22.5876 17.025 22.6626 16.8375L21.2001 15.75H23.1126C23.2626 15.2625 23.4126 14.775 23.5251 14.25Z" fill="white"/>
<path d="M3.3877 18.6C3.6877 19.0125 3.9877 19.3875 4.3252 19.7625L8.7502 16.5375V15.7875H7.2502L3.3877 18.6ZM17.5627 15.75L21.5752 18.675C21.7252 18.4875 21.8377 18.3 21.9877 18.1125C22.0252 18.075 22.0252 18.0375 22.0627 18.0375C22.1752 17.85 22.3252 17.625 22.4377 17.4375L20.0752 15.75H17.5627Z" fill="#ED4C5C"/>
<path d="M16.2502 1.38751V6.56251L20.1127 3.71251C19.0252 2.70001 17.7127 1.91251 16.2502 1.38751ZM8.75019 1.38751C7.28769 1.91251 5.97519 2.70001 4.8877 3.71251L8.75019 6.60001V1.38751ZM23.1127 8.25001C23.0002 7.87501 22.8502 7.53751 22.6627 7.16251L21.2002 8.25001H23.1127ZM3.8002 8.25001L2.3377 7.16251C2.1877 7.53751 2.0377 7.87501 1.8877 8.25001H3.8002Z" fill="#2A5F9E"/>
<path d="M15.6876 9.74998H23.4876C23.3751 9.22498 23.2251 8.73748 23.0751 8.24998H21.1626L22.6251 7.16248C22.3251 6.52498 21.9876 5.96248 21.5751 5.39998L17.7501 8.24998H16.2501V7.49998L20.6376 4.27498L20.1126 3.74998L16.2501 6.56248V1.38748C15.7626 1.19998 15.2751 1.08748 14.7501 0.974976V9.74998H15.6876ZM1.4751 9.74998H10.2501V0.974976C9.7251 1.08748 9.2376 1.23748 8.7501 1.38748V6.56248L4.8876 3.74998C4.3626 4.23748 3.9126 4.76248 3.4626 5.32498L7.4751 8.24998H4.9251L2.6376 6.56248C2.5251 6.74998 2.4126 6.97498 2.3376 7.16248L3.8001 8.24998H1.8876C1.7376 8.73748 1.5876 9.22498 1.4751 9.74998Z" fill="white"/>
<path d="M21.6126 5.39999C21.3126 4.98749 21.0126 4.61249 20.6751 4.23749L16.2501 7.46249V8.21249H17.7501L21.6126 5.39999ZM7.4376 8.24999L3.4626 5.32499C3.3126 5.51249 3.2001 5.69999 3.0501 5.88749C3.0126 5.92499 3.0126 5.96249 2.9751 5.96249C2.8626 6.14999 2.7126 6.37499 2.6001 6.56249L4.8876 8.24999H7.4376Z" fill="#ED4C5C"/>
<path d="M23.525 9.75H14.75V0.975C14.0375 0.825 13.2875 0.75 12.5 0.75C11.7125 0.75 10.9625 0.825 10.25 0.975V9.75H1.475C1.325 10.4625 1.25 11.2125 1.25 12C1.25 12.7875 1.325 13.5375 1.475 14.25H10.25V23.025C10.9625 23.175 11.7125 23.25 12.5 23.25C13.2875 23.25 14.0375 23.175 14.75 23.025V14.25H23.525C23.675 13.5375 23.75 12.7875 23.75 12C23.75 11.2125 23.675 10.4625 23.525 9.75Z" fill="#ED4C5C"/>
</svg>
