<svg width="33" height="32" viewBox="0 0 33 32" fill="none" xmlns="http://www.w3.org/2000/svg">
<rect x="0.5" width="32" height="32" rx="16" fill="#F0F3FF"/>
<path d="M9.83337 20.9974C9.83337 20.1133 10.1846 19.2655 10.8097 18.6404C11.4348 18.0153 12.2827 17.6641 13.1667 17.6641H19.8334C20.7174 17.6641 21.5653 18.0153 22.1904 18.6404C22.8155 19.2655 23.1667 20.1133 23.1667 20.9974C23.1667 21.4394 22.9911 21.8633 22.6786 22.1759C22.366 22.4885 21.9421 22.6641 21.5 22.6641H11.5C11.058 22.6641 10.6341 22.4885 10.3215 22.1759C10.009 21.8633 9.83337 21.4394 9.83337 20.9974Z" stroke="#011B6D" stroke-width="1.5" stroke-linejoin="round"/>
<path d="M16.5 14.332C17.8807 14.332 19 13.2127 19 11.832C19 10.4513 17.8807 9.33203 16.5 9.33203C15.1193 9.33203 14 10.4513 14 11.832C14 13.2127 15.1193 14.332 16.5 14.332Z" stroke="#011B6D" stroke-width="1.5"/>
</svg>
